<svg width="100" height="100" viewBox="0 0 100 100" fill="none" xmlns="http://www.w3.org/2000/svg">
<path d="M46.7 22.7002H23.5C22.9477 22.7002 22.5 23.1479 22.5 23.7002V46.9002C22.5 47.4525 22.9477 47.9002 23.5 47.9002H46.7C47.2523 47.9002 47.7 47.4525 47.7 46.9002V23.7002C47.7 23.1479 47.2523 22.7002 46.7 22.7002Z" fill="#F94D0D"/>
<path d="M77.2996 22.7002H54.0996C53.5473 22.7002 53.0996 23.1479 53.0996 23.7002V46.9002C53.0996 47.4525 53.5473 47.9002 54.0996 47.9002H77.2996C77.8519 47.9002 78.2996 47.4525 78.2996 46.9002V23.7002C78.2996 23.1479 77.8519 22.7002 77.2996 22.7002Z" fill="#F94D0D"/>
<path d="M46.7 53.2998H23.5C22.9477 53.2998 22.5 53.7475 22.5 54.2998V77.4998C22.5 78.0521 22.9477 78.4998 23.5 78.4998H46.7C47.2523 78.4998 47.7 78.0521 47.7 77.4998V54.2998C47.7 53.7475 47.2523 53.2998 46.7 53.2998Z" fill="#F94D0D"/>
<path d="M77.2996 53.2998H54.0996C53.5473 53.2998 53.0996 53.7475 53.0996 54.2998V77.4998C53.0996 78.0521 53.5473 78.4998 54.0996 78.4998H77.2996C77.8519 78.4998 78.2996 78.0521 78.2996 77.4998V54.2998C78.2996 53.7475 77.8519 53.2998 77.2996 53.2998Z" fill="#F94D0D"/>
</svg>
