<svg width="24" height="24" viewBox="0 0 24 24" fill="none" xmlns="http://www.w3.org/2000/svg">
<path d="M12 4C10.4178 4 8.87103 4.46919 7.55544 5.34824C6.23985 6.22729 5.21447 7.47672 4.60897 8.93853C4.00347 10.4003 3.84504 12.0089 4.15372 13.5607C4.4624 15.1126 5.22433 16.538 6.34315 17.6569C7.46197 18.7757 8.88743 19.5376 10.4393 19.8463C11.9911 20.155 13.5997 19.9965 15.0615 19.391C16.5233 18.7855 17.7727 17.7602 18.6518 16.4446C19.5308 15.129 20 13.5822 20 12C20 10.9494 19.7931 9.90914 19.391 8.93853C18.989 7.96793 18.3997 7.08601 17.6569 6.34315C16.914 5.60028 16.0321 5.011 15.0615 4.60896C14.0909 4.20693 13.0506 4 12 4ZM14.168 13.032C14.243 13.1064 14.3025 13.1948 14.3431 13.2923C14.3837 13.3898 14.4046 13.4944 14.4046 13.6C14.4046 13.7056 14.3837 13.8102 14.3431 13.9077C14.3025 14.0051 14.243 14.0936 14.168 14.168C14.0936 14.243 14.0051 14.3025 13.9077 14.3431C13.8102 14.3837 13.7056 14.4046 13.6 14.4046C13.4944 14.4046 13.3898 14.3837 13.2923 14.3431C13.1949 14.3025 13.1064 14.243 13.032 14.168L12 13.128L10.968 14.168C10.8936 14.243 10.8052 14.3025 10.7077 14.3431C10.6102 14.3837 10.5056 14.4046 10.4 14.4046C10.2944 14.4046 10.1898 14.3837 10.0923 14.3431C9.99485 14.3025 9.90637 14.243 9.832 14.168C9.75702 14.0936 9.6975 14.0051 9.65689 13.9077C9.61627 13.8102 9.59536 13.7056 9.59536 13.6C9.59536 13.4944 9.61627 13.3898 9.65689 13.2923C9.6975 13.1948 9.75702 13.1064 9.832 13.032L10.872 12L9.832 10.968C9.68136 10.8174 9.59673 10.613 9.59673 10.4C9.59673 10.187 9.68136 9.98264 9.832 9.832C9.98264 9.68136 10.187 9.59673 10.4 9.59673C10.613 9.59673 10.8174 9.68136 10.968 9.832L12 10.872L13.032 9.832C13.1826 9.68136 13.387 9.59673 13.6 9.59673C13.813 9.59673 14.0174 9.68136 14.168 9.832C14.3186 9.98264 14.4033 10.187 14.4033 10.4C14.4033 10.613 14.3186 10.8174 14.168 10.968L13.128 12L14.168 13.032Z" fill="#959595"/>
</svg>
