<svg width="100" height="100" viewBox="0 0 100 100" fill="none" xmlns="http://www.w3.org/2000/svg">
<path d="M50.393 85.7C73.793 85.7 85.493 67.203 85.493 44.292C61.261 55.462 37.797 56.029 15.293 44.292C15.293 67.202 26.993 85.7 50.393 85.7V85.7Z" fill="white"/>
<path d="M50.393 86.7C39.043 86.7 29.667 82.379 23.28 74.203C20.326 70.421 18.054 65.882 16.528 60.711C15.045 55.686 14.293 50.162 14.293 44.293C14.293 43.943 14.476 43.619 14.775 43.438C15.074 43.257 15.446 43.245 15.756 43.406C21.252 46.273 26.916 48.439 32.589 49.844C38.19 51.232 43.958 51.919 49.74 51.882C61.103 51.813 72.991 48.954 85.075 43.384C85.385 43.241 85.746 43.266 86.033 43.45C86.32 43.634 86.494 43.951 86.494 44.292C86.494 50.162 85.742 55.686 84.259 60.71C82.733 65.881 80.461 70.421 77.507 74.202C71.12 82.377 61.745 86.699 50.394 86.699L50.393 86.7ZM16.314 45.934C16.441 51 17.156 55.773 18.446 60.145C19.901 65.074 22.057 69.39 24.856 72.972C27.762 76.692 31.332 79.578 35.467 81.549C39.852 83.64 44.873 84.7 50.393 84.7C55.913 84.7 60.934 83.64 65.319 81.549C69.454 79.577 73.024 76.691 75.93 72.972C78.729 69.389 80.886 65.074 82.34 60.145C83.637 55.749 84.354 50.948 84.474 45.851C72.623 51.114 60.948 53.815 49.751 53.883C43.808 53.915 37.869 53.213 32.107 51.786C26.789 50.469 21.484 48.502 16.313 45.934H16.314Z" fill="#F94D0D"/>
<path d="M85.493 44.126C85.493 50.087 69.417 55.942 50.125 55.942C30.833 55.942 15.293 50.086 15.293 44.126C15.293 38.166 30.832 32.457 50.125 32.457C69.418 32.457 85.493 38.165 85.493 44.126Z" fill="white"/>
<path d="M50.125 56.943C40.87 56.943 31.998 55.619 25.143 53.214C18.146 50.759 14.293 47.532 14.293 44.127C14.293 40.722 18.148 37.527 25.148 35.112C31.978 32.756 40.848 31.458 50.125 31.458C59.402 31.458 68.392 32.755 75.364 35.11C82.541 37.534 86.493 40.737 86.493 44.127C86.493 47.517 82.542 50.752 75.368 53.216C68.371 55.62 59.406 56.943 50.124 56.943H50.125ZM50.125 33.457C41.065 33.457 32.426 34.716 25.801 37.002C19.848 39.056 16.294 41.719 16.294 44.126C16.294 45.55 17.571 46.857 18.643 47.702C20.302 49.01 22.779 50.264 25.806 51.326C32.453 53.658 41.09 54.943 50.125 54.943C59.16 54.943 68.024 53.624 74.719 51.324C80.748 49.253 84.493 46.495 84.493 44.126C84.493 42.717 83.178 41.422 82.075 40.584C80.372 39.291 77.83 38.052 74.724 37.003C68.051 34.749 59.086 33.456 50.125 33.456V33.457Z" fill="#F94D0D"/>
<path d="M18.9297 49.145C24.6247 52.991 36.4307 55.943 50.1297 55.943C63.8287 55.943 76.0437 52.956 81.8567 49.078C81.0077 43.32 66.9387 37.957 50.1567 37.957C33.3747 37.957 19.6547 43.362 18.9297 49.144V49.145Z" fill="#FFA38B"/>
<path d="M50.1291 56.5429C37.1801 56.5429 24.8011 53.8339 18.5941 49.6419L18.2891 49.4359L18.3351 49.0699C18.7221 45.9799 22.2581 43.0499 28.2901 40.8199C34.3301 38.5869 42.0961 37.3579 50.1571 37.3579C58.2181 37.3579 66.0311 38.5789 72.1851 40.7949C78.3531 43.0159 81.9991 45.9269 82.4501 48.9909L82.5051 49.3669L82.1891 49.5779C79.1801 51.5859 74.6571 53.3049 69.1101 54.5509C63.3061 55.8549 56.7421 56.5439 50.1281 56.5439L50.1291 56.5429ZM19.5891 48.8609C25.7151 52.8069 37.6271 55.3429 50.1291 55.3429C56.6561 55.3429 63.1291 54.6639 68.8481 53.3789C73.9701 52.2289 78.3291 50.6079 81.1881 48.7969C80.5501 46.3459 77.1581 43.8599 71.7781 41.9229C65.7511 39.7529 58.0731 38.5569 50.1571 38.5569C42.2411 38.5569 34.6161 39.7599 28.7061 41.9449C23.4501 43.8879 20.1631 46.3899 19.5901 48.8609H19.5891Z" fill="#F94D0D"/>
<path d="M35.9998 55.1002C39.9763 55.1002 43.1998 52.884 43.1998 50.1502C43.1998 47.4164 39.9763 45.2002 35.9998 45.2002C32.0234 45.2002 28.7998 47.4164 28.7998 50.1502C28.7998 52.884 32.0234 55.1002 35.9998 55.1002Z" fill="#F94D0D"/>
<path d="M43.718 55.8935C47.8499 55.0114 50.7677 52.2735 50.235 49.7782C49.7023 47.2829 45.9209 45.975 41.7891 46.857C37.6572 47.7391 34.7394 50.477 35.2721 52.9723C35.8048 55.4676 39.5862 56.7755 43.718 55.8935Z" fill="#F94D0D"/>
<path d="M71.6182 51.1674C74.1567 50.1526 75.9154 48.5816 75.5464 47.6586C75.1773 46.7355 72.8204 46.8098 70.2819 47.8246C67.7434 48.8394 65.9847 50.4104 66.3537 51.3335C66.7227 52.2566 69.0797 52.1822 71.6182 51.1674Z" fill="#F94D0D"/>
<path d="M62.3192 52.0682C64.8577 51.0534 66.7861 49.9069 66.6264 49.5074C66.4666 49.1079 64.2793 49.6067 61.7409 50.6215C59.2024 51.6363 57.274 52.7828 57.4337 53.1823C57.5934 53.5818 59.7807 53.083 62.3192 52.0682Z" fill="#F94D0D"/>
<path d="M70.6818 50.8259C70.756 50.4021 68.6333 49.676 65.9405 49.2041C63.2478 48.7322 61.0046 48.6932 60.9304 49.117C60.8561 49.5407 62.9788 50.2668 65.6716 50.7387C68.3644 51.2106 70.6075 51.2497 70.6818 50.8259Z" fill="#F94D0D"/>
<path d="M68.1902 39.8351C68.0992 38.2061 67.8602 37.4921 67.2002 36.0001C66.3762 34.1361 65.0762 32.4701 63.5032 31.1731C60.7672 28.9181 57.2902 28.4351 53.7902 27.5351C51.3692 26.9131 49.1152 25.2281 46.6892 24.6241C46.6452 24.6131 46.6012 24.6021 46.5562 24.5921C46.5312 24.5861 46.5092 24.5721 46.4932 24.5511C46.1342 24.0801 45.9412 23.8321 45.8892 23.9351C45.8532 24.0081 45.8282 24.0871 45.8122 24.1651C45.6972 24.1901 45.6822 24.1931 45.5672 24.2181C45.2242 23.7681 45.0392 23.5341 44.9882 23.6351C44.8882 23.8351 44.8782 24.0831 44.8882 24.2351C44.8882 24.2461 44.8892 24.2561 44.8902 24.2671C44.8942 24.3301 44.8452 24.3831 44.7822 24.3851H44.7802C44.7452 24.3851 44.7122 24.3701 44.6902 24.3421C44.1362 23.6241 43.8522 23.2061 43.7872 23.3351C43.6872 23.5351 43.6772 23.7831 43.6872 23.9351C43.6902 23.9831 43.6942 24.0321 43.6972 24.0801C43.0722 23.2781 42.7552 22.7981 42.6872 22.9351C42.5872 23.1351 42.5772 23.3831 42.5872 23.5351C42.5982 23.7081 42.6122 23.8871 42.6312 24.0701C42.6422 24.1781 42.5072 24.2361 42.4372 24.1521C41.4502 22.9631 40.9732 22.1631 40.8872 22.3351C40.7872 22.5351 40.7772 22.7831 40.7872 22.9351C40.8002 23.1361 40.8172 23.3451 40.8402 23.5591C40.8522 23.6681 40.7152 23.7261 40.6452 23.6411C39.7212 22.5141 39.2702 21.7691 39.1872 21.9351C39.0872 22.1351 39.0772 22.3831 39.0872 22.5351C39.0892 22.5631 39.0912 22.5921 39.0932 22.6201C37.5882 20.9791 36.8932 19.7241 36.7872 19.9351C36.6872 20.1351 36.6772 20.3831 36.6872 20.5351C36.6892 20.5731 36.6922 20.6111 36.6952 20.6491C36.7032 20.7561 36.5692 20.8101 36.5012 20.7281C35.4712 19.4971 34.9752 18.6591 34.8872 18.8341C34.7872 19.0341 34.7772 19.2821 34.7872 19.4341C34.9152 21.3991 35.3872 24.0341 38.5872 26.3341C39.9182 27.2901 40.7982 27.9181 41.3732 28.3251C41.4062 28.3491 41.4232 28.3881 41.4182 28.4291C41.2882 29.3811 41.3112 30.3781 41.5872 31.1341C42.4832 33.5831 44.9092 36.1831 46.9872 37.7341C50.0792 40.0421 51.8362 41.1671 56.9972 42.1991C57.4972 42.2991 57.9972 42.5991 58.0972 42.7991C58.9982 44.6001 58.9782 45.8651 59.4972 46.2991C60.3912 47.0471 61.9742 46.7981 63.0012 46.2471C64.8872 45.2341 66.5482 44.9161 67.1972 44.0991C68.3472 42.6531 68.2872 41.6341 68.1872 39.8341L68.1902 39.8351Z" fill="#F94D0D"/>
<path d="M48 29.6499C48.4142 29.6499 48.75 29.3141 48.75 28.8999C48.75 28.4857 48.4142 28.1499 48 28.1499C47.5858 28.1499 47.25 28.4857 47.25 28.8999C47.25 29.3141 47.5858 29.6499 48 29.6499Z" fill="#FFA38B"/>
<path d="M48.5345 28.2641C45.9205 26.3051 37.5045 19.4711 38.1855 16.0631C38.6125 14.4201 41.0055 14.4661 42.3445 14.5371C46.4445 14.8891 50.3495 16.2751 54.1425 17.7851C54.3675 17.8841 54.2485 18.2341 53.9975 18.1481C52.7375 17.6601 51.4635 17.2071 50.1775 16.8001C47.2705 15.9171 43.3645 14.8121 40.3555 15.2471C39.4455 15.4201 38.6415 15.7771 38.8845 16.8301C39.3335 18.6981 41.5515 20.9561 42.9285 22.3151C44.8595 24.1791 46.9615 25.8731 49.1335 27.4631C49.6545 27.8681 49.0875 28.6531 48.5355 28.2641H48.5345Z" fill="#F94D10"/>
<path d="M47.2576 26.718C46.1436 25.195 42.5736 20.06 44.1736 18.366C46.1166 16.54 53.4296 21.871 55.1606 23.275C55.3526 23.433 55.1366 23.734 54.9236 23.585C52.4946 21.817 49.9526 20.128 47.1276 19.082C46.5656 18.895 44.8936 18.336 44.6026 19.048C44.2126 20.339 45.8356 22.921 46.5536 24.034C47.0246 24.746 47.5296 25.439 48.0556 26.116C48.4496 26.654 47.6736 27.248 47.2576 26.719V26.718Z" fill="#F94D10"/>
<path d="M23.1065 47.321C25.4475 43.851 30.1395 42.38 34.0865 41.804C34.3965 41.761 35.0385 41.689 35.3505 41.648C35.5605 41.622 35.7515 41.771 35.7775 41.981C35.8045 42.196 35.6455 42.391 35.4305 42.409C34.3355 42.536 33.2465 42.712 32.1825 42.98C29.8375 43.585 27.5055 44.554 25.7255 46.213C25.5525 46.364 25.3385 46.607 25.1775 46.772C24.8435 47.17 24.5425 47.586 24.3155 48.028C23.8295 48.875 22.6055 48.167 23.1065 47.321V47.321Z" fill="#F94D10"/>
<path d="M54.7412 41.6858C55.0542 41.7678 55.3832 41.8478 55.7282 41.9268C58.2132 35.3108 61.0002 33.8078 65.6562 33.4038C65.4322 33.1108 65.1962 32.8278 64.9482 32.5548C64.8252 32.5178 64.6682 32.4968 64.6012 32.4998C60.2182 32.7218 57.4922 33.9888 54.7422 41.6858H54.7412Z" fill="#FFA38B"/>
<path d="M68.1883 39.7982C68.1563 39.2442 68.1063 38.7952 68.0273 38.3852C64.6153 37.6902 61.7883 38.1032 58.1953 42.9982C58.4583 43.5542 58.6373 44.0552 58.7733 44.4922C62.1113 39.7372 64.3853 39.1832 68.1883 39.7982Z" fill="#FFA38B"/>
</svg>
