<svg width="40" height="40" viewBox="0 0 40 40" fill="none" xmlns="http://www.w3.org/2000/svg">
<mask id="path-1-inside-1_89_2818" fill="white">
<path fill-rule="evenodd" clip-rule="evenodd" d="M10.62 7.19124C13.1167 4.71952 16.4881 3.33308 20.0013 3.33325C23.5145 3.33308 26.8859 4.71952 29.3826 7.19124C31.8793 9.66296 33.2995 13.0202 33.3346 16.5333C33.3346 25.6666 21.668 35.8333 21.0846 36.2666C20.7827 36.5248 20.3986 36.6667 20.0013 36.6667C19.604 36.6667 19.2199 36.5248 18.918 36.2666L18.9152 36.2642C18.3768 35.7976 6.66797 25.6506 6.66797 16.5333C6.7031 13.0202 8.12335 9.66296 10.62 7.19124Z"/>
</mask>
<path fill-rule="evenodd" clip-rule="evenodd" d="M10.62 7.19124C13.1167 4.71952 16.4881 3.33308 20.0013 3.33325C23.5145 3.33308 26.8859 4.71952 29.3826 7.19124C31.8793 9.66296 33.2995 13.0202 33.3346 16.5333C33.3346 25.6666 21.668 35.8333 21.0846 36.2666C20.7827 36.5248 20.3986 36.6667 20.0013 36.6667C19.604 36.6667 19.2199 36.5248 18.918 36.2666L18.9152 36.2642C18.3768 35.7976 6.66797 25.6506 6.66797 16.5333C6.7031 13.0202 8.12335 9.66296 10.62 7.19124Z" fill="#FEB0A2"/>
<path d="M20.0013 3.33325L20.0012 5.33325H20.0014L20.0013 3.33325ZM10.62 7.19124L9.21295 5.76994V5.76994L10.62 7.19124ZM29.3826 7.19124L30.7897 5.76994L29.3826 7.19124ZM33.3346 16.5333H35.3346V16.5233L35.3345 16.5133L33.3346 16.5333ZM21.0846 36.2666L19.892 34.6611L19.8368 34.7021L19.7846 34.7467L21.0846 36.2666ZM18.918 36.2666L17.6078 37.7777L17.618 37.7865L18.918 36.2666ZM18.9152 36.2642L20.2254 34.7531L20.225 34.7528L18.9152 36.2642ZM6.66797 16.5333L4.66807 16.5133L4.66797 16.5233V16.5333H6.66797ZM20.0014 1.33325C15.9612 1.33305 12.0841 2.92746 9.21295 5.76994L12.0271 8.61254C14.1493 6.51158 17.0149 5.3331 20.0012 5.33325L20.0014 1.33325ZM30.7897 5.76994C27.9185 2.92746 24.0414 1.33305 20.0012 1.33325L20.0014 5.33325C22.9877 5.3331 25.8533 6.51158 27.9755 8.61254L30.7897 5.76994ZM35.3345 16.5133C35.2941 12.4732 33.6608 8.61241 30.7897 5.76994L27.9755 8.61254C30.0977 10.7135 31.3049 13.5671 31.3347 16.5533L35.3345 16.5133ZM22.2773 37.8721C22.727 37.538 25.9103 34.7621 28.9902 30.9117C32.0173 27.1273 35.3346 21.8333 35.3346 16.5333H31.3346C31.3346 20.3665 28.8186 24.7225 25.8666 28.4131C24.4329 30.2054 22.9765 31.7431 21.8421 32.8591C21.276 33.4161 20.7941 33.8641 20.4407 34.1822C20.0591 34.5255 19.8789 34.6709 19.892 34.6611L22.2773 37.8721ZM20.0013 38.6667C20.8753 38.6667 21.7205 38.3545 22.3846 37.7865L19.7846 34.7467C19.845 34.6951 19.9219 34.6667 20.0013 34.6667V38.6667ZM17.618 37.7865C18.2821 38.3545 19.1273 38.6667 20.0013 38.6667V34.6667C20.0807 34.6667 20.1576 34.6951 20.218 34.7467L17.618 37.7865ZM17.6051 37.7753L17.6078 37.7777L20.2281 34.7555L20.2254 34.7531L17.6051 37.7753ZM4.66797 16.5333C4.66797 21.8285 7.99961 27.1152 11.0293 30.8939C14.1356 34.768 17.3029 37.5135 17.6054 37.7756L20.225 34.7528C19.9891 34.5484 17.0328 31.987 14.1501 28.3917C11.1908 24.7008 8.66797 20.3553 8.66797 16.5333H4.66797ZM9.21295 5.76994C6.34176 8.61241 4.70847 12.4732 4.66807 16.5133L8.66787 16.5533C8.69773 13.5671 9.90495 10.7135 12.0271 8.61254L9.21295 5.76994Z" fill="#D8412B" mask="url(#path-1-inside-1_89_2818)"/>
<circle cx="20" cy="16" r="6" fill="#D8412B"/>
</svg>
