<svg width="50" height="50" viewBox="0 0 50 50" fill="none" xmlns="http://www.w3.org/2000/svg">
<path d="M25.0007 4.16663C20.6091 4.16641 16.3949 5.89946 13.2741 8.98911C10.1532 12.0788 8.3779 16.2753 8.33398 20.6666C8.33398 32.0833 23.0215 44.7916 23.6465 45.3333C24.0238 45.6561 24.5041 45.8334 25.0007 45.8334C25.4972 45.8334 25.9775 45.6561 26.3548 45.3333C27.084 44.7916 41.6673 32.0833 41.6673 20.6666C41.6234 16.2753 39.8481 12.0788 36.7272 8.98911C33.6064 5.89946 29.3922 4.16641 25.0007 4.16663ZM25.0007 27.0833C23.5585 27.0833 22.1487 26.6556 20.9496 25.8544C19.7505 25.0532 18.8159 23.9144 18.264 22.582C17.7121 21.2496 17.5677 19.7835 17.8491 18.3691C18.1304 16.9546 18.8249 15.6554 19.8447 14.6356C20.8644 13.6159 22.1637 12.9214 23.5781 12.6401C24.9926 12.3587 26.4587 12.5031 27.7911 13.055C29.1234 13.6069 30.2622 14.5415 31.0635 15.7406C31.8647 16.9397 32.2923 18.3495 32.2923 19.7916C32.2923 21.7255 31.5241 23.5802 30.1566 24.9476C28.7892 26.3151 26.9345 27.0833 25.0007 27.0833Z" fill="#D8412B"/>
<path fill-rule="evenodd" clip-rule="evenodd" d="M25.0007 4.16663C20.6091 4.16641 16.3949 5.89946 13.2741 8.98911C10.1532 12.0788 8.3779 16.2753 8.33398 20.6666C8.33398 32.0634 22.9703 44.7473 23.6431 45.3304L23.6465 45.3333C24.0238 45.6561 24.5041 45.8334 25.0007 45.8334C25.4972 45.8334 25.9775 45.6561 26.3548 45.3333C27.084 44.7916 41.6673 32.0833 41.6673 20.6666C41.6234 16.2753 39.8481 12.0788 36.7272 8.98911C33.6064 5.89946 29.3922 4.16641 25.0007 4.16663ZM39.1673 20.6791C39.1267 16.951 37.6181 13.389 34.9684 10.7657C32.3156 8.13953 28.7336 6.66644 25.0008 6.66663H25.0005C21.2677 6.66644 17.6857 8.13953 15.0329 10.7657C12.3832 13.389 10.8746 16.9509 10.834 20.679C10.8394 25.4624 14.0022 30.8995 17.7055 35.5132C20.8436 39.4228 24.0467 42.3499 25.0093 43.2034C25.1227 43.1065 25.3024 42.9504 25.5498 42.7278C25.9916 42.3302 26.5941 41.7702 27.3017 41.074C28.7197 39.6789 30.5402 37.7568 32.3322 35.5165C36.0191 30.9072 39.1619 25.4677 39.1673 20.6791ZM25.0007 29.5833C23.064 29.5833 21.1709 29.009 19.5607 27.9331C17.9505 26.8572 16.6954 25.3279 15.9543 23.5387C15.2132 21.7495 15.0193 19.7808 15.3971 17.8814C15.7749 15.982 16.7075 14.2373 18.0769 12.8679C19.4463 11.4985 21.191 10.5659 23.0904 10.1881C24.9898 9.81029 26.9586 10.0042 28.7478 10.7453C30.537 11.4864 32.0662 12.7414 33.1421 14.3517C34.2181 15.9619 34.7923 17.855 34.7923 19.7916C34.7923 22.3885 33.7607 24.8791 31.9244 26.7154C30.0881 28.5517 27.5976 29.5833 25.0007 29.5833ZM20.9496 25.8544C22.1487 26.6556 23.5585 27.0833 25.0007 27.0833C26.9345 27.0833 28.7892 26.3151 30.1566 24.9476C31.5241 23.5802 32.2923 21.7255 32.2923 19.7916C32.2923 18.3495 31.8647 16.9397 31.0635 15.7406C30.2622 14.5415 29.1234 13.6069 27.7911 13.055C26.4587 12.5031 24.9926 12.3587 23.5781 12.6401C22.1637 12.9214 20.8644 13.6159 19.8447 14.6356C18.8249 15.6554 18.1304 16.9546 17.8491 18.3691C17.5677 19.7835 17.7121 21.2496 18.264 22.582C18.8159 23.9144 19.7505 25.0532 20.9496 25.8544Z" fill="#D8412B"/>
</svg>
