<svg width="50" height="50" viewBox="0 0 50 50" fill="none" xmlns="http://www.w3.org/2000/svg">
<path d="M33.752 20C33.752 24.8325 29.8344 28.75 25.002 28.75C20.1695 28.75 16.252 24.8325 16.252 20C16.252 15.1675 20.1695 11.25 25.002 11.25C29.8344 11.25 33.752 15.1675 33.752 20Z" fill="#FEB0A2"/>
<path d="M25.0007 4.16663C20.6091 4.16641 16.3949 5.89946 13.2741 8.98911C10.1532 12.0788 8.3779 16.2753 8.33398 20.6666C8.33398 32.0833 23.0215 44.7916 23.6465 45.3333C24.0238 45.6561 24.5041 45.8334 25.0007 45.8334C25.4972 45.8334 25.9775 45.6561 26.3548 45.3333C27.084 44.7916 41.6673 32.0833 41.6673 20.6666C41.6234 16.2753 39.8481 12.0788 36.7272 8.98911C33.6064 5.89946 29.3922 4.16641 25.0007 4.16663ZM25.0007 27.0833C23.5585 27.0833 22.1487 26.6556 20.9496 25.8544C19.7505 25.0532 18.8159 23.9144 18.264 22.582C17.7121 21.2496 17.5677 19.7835 17.8491 18.3691C18.1304 16.9546 18.8249 15.6554 19.8447 14.6356C20.8644 13.6159 22.1637 12.9214 23.5781 12.6401C24.9926 12.3587 26.4587 12.5031 27.7911 13.055C29.1234 13.6069 30.2622 14.5415 31.0635 15.7406C31.8647 16.9397 32.2923 18.3495 32.2923 19.7916C32.2923 21.7255 31.5241 23.5802 30.1566 24.9476C28.7892 26.3151 26.9345 27.0833 25.0007 27.0833Z" fill="#D8412B"/>
</svg>
