<svg width="24" height="24" viewBox="0 0 24 24" fill="none" xmlns="http://www.w3.org/2000/svg">
<path d="M13.8297 19.0003C13.6803 19.0008 13.5327 18.9678 13.3977 18.9038C13.2627 18.8398 13.1438 18.7463 13.0497 18.6303L8.21968 12.6303C8.07259 12.4513 7.99219 12.2269 7.99219 11.9953C7.99219 11.7637 8.07259 11.5392 8.21968 11.3603L13.2197 5.36028C13.3894 5.15606 13.6333 5.02763 13.8978 5.00325C14.1622 4.97888 14.4255 5.06054 14.6297 5.23028C14.8339 5.40001 14.9623 5.64393 14.9867 5.90835C15.0111 6.17278 14.9294 6.43606 14.7597 6.64028L10.2897 12.0003L14.6097 17.3603C14.732 17.5071 14.8096 17.6858 14.8335 17.8753C14.8574 18.0649 14.8265 18.2573 14.7444 18.4299C14.6624 18.6024 14.5326 18.7478 14.3705 18.8489C14.2084 18.95 14.0207 19.0025 13.8297 19.0003Z" fill="white"/>
</svg>
