<svg width="100" height="100" viewBox="0 0 100 100" fill="none" xmlns="http://www.w3.org/2000/svg">
<path d="M81.4106 48.5679C81.7456 48.2999 81.9626 47.8819 81.9626 47.4109C81.9626 46.8109 81.6126 46.2969 81.1126 46.0699C81.1366 45.9369 81.1496 45.7979 81.1496 45.6549C81.1496 44.7979 80.7026 44.0849 80.1116 43.9309C80.2286 43.6649 80.2976 43.3549 80.2976 43.0209C80.2976 42.2549 79.9406 41.6049 79.4426 41.3649C79.4436 41.3319 79.4466 41.2989 79.4466 41.2649C79.4466 40.4989 79.0896 39.8489 78.5916 39.6089C78.5926 39.5759 78.5956 39.5429 78.5956 39.5089C78.5956 38.6519 78.1486 37.9389 77.5576 37.7849C77.6746 37.5189 77.7436 37.2089 77.7436 36.8749C77.7436 35.9049 77.1716 35.1189 76.4666 35.1189C76.3916 35.1189 76.3176 35.1279 76.2466 35.1459C76.1256 35.1759 76.0196 35.0609 76.0456 34.9349C76.1146 34.6029 76.0986 34.2229 75.9816 33.8429C75.7146 32.9729 75.0116 32.4159 74.3696 32.5369C74.3536 32.3889 74.3256 32.2379 74.2786 32.0869C73.9946 31.1619 73.2186 30.5909 72.5466 30.8109C72.5086 30.8239 72.4716 30.8389 72.4346 30.8559C72.1076 30.1939 71.5136 29.7989 70.9636 29.9019C70.9476 29.7539 70.9196 29.6029 70.8726 29.4519C70.5886 28.5269 69.8126 27.9559 69.1406 28.1759C69.1026 28.1889 69.0656 28.2039 69.0286 28.2209C68.7016 27.5589 68.1076 27.1639 67.5576 27.2669C67.5416 27.1189 67.5106 26.9689 67.4666 26.8169C67.2986 26.2389 66.5426 25.7509 66.1636 25.7509C65.9516 25.7509 65.3626 25.7389 65.2316 25.9139C64.8816 25.5659 64.4376 25.4079 64.0316 25.5409C63.9936 25.5539 63.9566 25.5689 63.9196 25.5859C63.5686 24.8749 62.9106 24.4719 62.3286 24.6629C62.2906 24.6759 62.2536 24.6909 62.2166 24.7079C61.8656 23.9969 61.2076 23.5939 60.6256 23.7849C60.5876 23.7979 60.5506 23.8129 60.5136 23.8299C60.1626 23.1189 59.5046 22.7159 58.9226 22.9069C58.7196 22.9729 58.5506 23.1049 58.4196 23.2799C58.0696 22.9319 57.6256 22.7739 57.2196 22.9069C57.1346 22.9349 57.0546 22.9739 56.9816 23.0229C56.6126 22.4529 56.0346 22.1519 55.5166 22.3209C55.4146 22.3539 55.3216 22.4059 55.2366 22.4699C55.1096 22.4409 54.9786 22.4359 54.8486 22.4599C54.6476 22.4959 54.4686 22.5969 54.3196 22.7439C54.0156 22.3229 53.5806 22.0889 53.1456 22.1679C52.9056 22.2109 52.6976 22.3459 52.5336 22.5419C52.2356 22.1889 51.8396 21.9989 51.4426 22.0709C51.2416 22.1069 51.0626 22.2079 50.9136 22.3549C50.6096 21.9339 50.1746 21.6999 49.7396 21.7789C49.4676 21.8279 49.2366 21.9939 49.0646 22.2329C48.9966 22.1889 48.9236 22.1529 48.8446 22.1269C48.4386 21.9939 47.9956 22.1519 47.6446 22.4999C47.5136 22.3249 47.3446 22.1929 47.1416 22.1269C46.6826 21.9769 46.1756 22.1959 45.8096 22.6449C45.7026 22.5439 45.5796 22.4659 45.4386 22.4199C44.9206 22.2509 44.3426 22.5519 43.9736 23.1219C43.9006 23.0729 43.8206 23.0329 43.7356 23.0059C43.3296 22.8729 42.8866 23.0309 42.5356 23.3789C42.4046 23.2039 42.2356 23.0719 42.0326 23.0059C41.4506 22.8159 40.7926 23.2189 40.4416 23.9289C40.4056 23.9119 40.3686 23.8959 40.3296 23.8839C39.7476 23.6939 39.0896 24.0969 38.7386 24.8069C38.7026 24.7899 38.6656 24.7739 38.6266 24.7619C38.0446 24.5719 37.3866 24.9739 37.0356 25.6849C36.9996 25.6679 36.9626 25.6529 36.9246 25.6399C36.5186 25.5069 36.0756 25.6649 35.7246 26.0129C35.5936 25.8379 35.3426 25.7889 35.1326 25.7529C34.5646 25.6549 33.7736 25.9909 33.4896 26.9159C33.4436 27.0669 33.4146 27.2179 33.3986 27.3659C32.8486 27.2629 32.2546 27.6569 31.9276 28.3199C31.8916 28.3029 31.8546 28.2869 31.8156 28.2749C31.1436 28.0549 30.3676 28.6259 30.0836 29.5509C30.0376 29.7019 30.0086 29.8529 29.9926 30.0009C29.4426 29.8979 28.8486 30.2919 28.5216 30.9549C28.4856 30.9379 28.4486 30.9219 28.4096 30.9099C27.7376 30.6899 26.9616 31.2609 26.6776 32.1859C26.6316 32.3369 26.6026 32.4879 26.5866 32.6359C25.9446 32.5159 25.2426 33.0719 24.9746 33.9419C24.8256 34.4259 24.8426 34.9099 24.9866 35.2939C24.9656 35.3139 24.9636 35.3149 24.9426 35.3349C24.8016 35.2609 24.6486 35.2189 24.4886 35.2189C23.7836 35.2189 23.2116 36.0049 23.2116 36.9749C23.2116 37.2499 23.2586 37.5099 23.3406 37.7409L23.2566 37.9319C22.7376 38.1549 22.3606 38.8209 22.3606 39.6089C22.3606 39.6169 22.3606 39.6239 22.3606 39.6319C22.3436 39.6659 22.3276 39.7009 22.3116 39.7349C21.8416 39.9939 21.5086 40.6259 21.5086 41.3649C21.5086 41.3989 21.5106 41.4319 21.5126 41.4649C21.0146 41.7049 20.6576 42.3549 20.6576 43.1209C20.6576 43.3689 20.6956 43.6049 20.7636 43.8199C20.7386 43.9089 20.7136 43.9969 20.6886 44.0859C20.1766 44.3149 19.8066 44.9749 19.8066 45.7559C19.8066 45.8399 19.8116 45.9219 19.8196 46.0019C19.2136 46.1689 18.7666 46.7369 18.7666 47.4149C18.7666 47.9969 19.0966 48.4969 19.5726 48.7329C19.2566 49.0519 19.0506 49.5659 19.0506 50.1469C19.0506 50.8939 19.4846 51.6279 19.9626 51.8819C19.9626 51.8889 20.4366 52.1889 20.4366 52.1959C40.3586 62.9409 59.1876 62.5269 79.9046 52.1959C79.9066 52.1429 80.6666 51.7979 80.6686 51.7459C81.1066 51.3179 81.9956 50.8639 81.9956 50.0499C81.9956 49.4279 81.7596 48.8839 81.4056 48.5719L81.4106 48.5679Z" fill="white"/>
<path d="M49.5865 60.596C39.7525 60.596 30.1385 57.99 20.2045 52.632C20.1785 52.618 20.1545 52.602 20.1325 52.585C20.0965 52.56 20.0145 52.508 19.9335 52.455C19.8505 52.401 19.7805 52.356 19.7215 52.313C19.0565 51.951 18.5565 51.022 18.5565 50.143C18.5565 49.668 18.6705 49.217 18.8775 48.843C18.4955 48.479 18.2725 47.967 18.2725 47.411C18.2725 46.666 18.6855 45.997 19.3145 45.666C19.3385 44.863 19.6955 44.143 20.2385 43.768C20.1895 43.558 20.1645 43.339 20.1645 43.117C20.1645 42.306 20.4925 41.583 21.0215 41.183C21.0665 40.452 21.3855 39.799 21.8725 39.427C21.9195 38.658 22.2695 37.979 22.7925 37.62C22.7435 37.41 22.7185 37.193 22.7185 36.971C22.7185 35.756 23.4385 34.794 24.3785 34.719C24.3665 34.415 24.4085 34.1 24.5035 33.791C24.7805 32.889 25.4515 32.251 26.1775 32.135C26.1865 32.101 26.1955 32.068 26.2065 32.035C26.4115 31.367 26.8355 30.826 27.3695 30.549C27.6675 30.394 27.9865 30.333 28.2935 30.369C28.6325 29.888 29.0975 29.577 29.5835 29.5C29.5925 29.467 29.6015 29.433 29.6125 29.4C29.8175 28.732 30.2415 28.191 30.7755 27.914C31.0735 27.759 31.3935 27.699 31.6995 27.734C32.0385 27.253 32.5035 26.942 32.9895 26.865C32.9985 26.832 33.0075 26.798 33.0185 26.765C33.2855 25.896 34.1495 25.071 35.2245 25.256C35.3545 25.278 35.5325 25.309 35.7085 25.384C36.0545 25.155 36.4375 25.055 36.8085 25.099C37.2455 24.476 37.8855 24.143 38.5115 24.22C38.9485 23.597 39.5895 23.265 40.2145 23.342C40.7165 22.626 41.4875 22.294 42.1955 22.526C42.3295 22.57 42.4565 22.634 42.5745 22.715C42.9715 22.47 43.4135 22.393 43.8265 22.504C44.3245 21.968 44.9995 21.743 45.6015 21.94C45.6525 21.957 45.7025 21.976 45.7515 21.999C46.2195 21.613 46.7865 21.478 47.3045 21.648C47.4385 21.692 47.5655 21.756 47.6835 21.837C48.0835 21.591 48.5295 21.514 48.9445 21.629C49.1525 21.448 49.3935 21.331 49.6575 21.283C50.1285 21.198 50.6055 21.349 50.9965 21.694C51.1125 21.638 51.2345 21.599 51.3605 21.576C51.7745 21.501 52.1915 21.607 52.5535 21.871C52.7115 21.773 52.8825 21.707 53.0635 21.674C53.5345 21.589 54.0105 21.74 54.4025 22.085C54.5185 22.029 54.6405 21.99 54.7665 21.967C54.8875 21.945 55.0095 21.939 55.1315 21.948C55.2085 21.906 55.2875 21.872 55.3685 21.845C55.9715 21.648 56.6455 21.873 57.1435 22.409C57.5555 22.298 57.9985 22.375 58.3955 22.62C58.5125 22.538 58.6395 22.475 58.7745 22.431C59.4825 22.199 60.2535 22.531 60.7555 23.247C61.3805 23.171 62.0215 23.502 62.4585 24.125C63.0845 24.048 63.7245 24.381 64.1615 25.004C64.5495 24.958 64.9515 25.07 65.3105 25.323C65.5545 25.257 65.8445 25.251 66.1325 25.25H66.1705C66.7875 25.25 67.7305 25.909 67.9535 26.677C67.9625 26.708 67.9705 26.738 67.9785 26.769C68.4655 26.846 68.9305 27.158 69.2695 27.639C69.5765 27.603 69.8945 27.664 70.1935 27.819C70.7275 28.096 71.1515 28.637 71.3565 29.305C71.3665 29.338 71.3765 29.371 71.3855 29.405C71.8715 29.483 72.3375 29.794 72.6755 30.274C72.9815 30.238 73.3005 30.299 73.5995 30.454C74.1335 30.731 74.5575 31.272 74.7625 31.94C74.7725 31.973 74.7825 32.006 74.7915 32.04C75.5175 32.157 76.1885 32.794 76.4655 33.696C76.5605 34.004 76.6025 34.318 76.5905 34.624C77.5305 34.699 78.2495 35.661 78.2495 36.876C78.2495 37.096 78.2245 37.315 78.1745 37.524C78.6985 37.88 79.0485 38.551 79.0955 39.332C79.5855 39.703 79.9025 40.35 79.9465 41.088C80.4755 41.488 80.8035 42.211 80.8035 43.022C80.8035 43.242 80.7785 43.461 80.7285 43.67C81.2915 44.052 81.6545 44.799 81.6545 45.656C81.6545 45.705 81.6535 45.755 81.6505 45.804C82.1565 46.167 82.4675 46.764 82.4675 47.411C82.4675 47.842 82.3325 48.25 82.0865 48.586C82.3545 48.988 82.5065 49.504 82.5065 50.047C82.5065 50.908 81.8455 51.435 81.3625 51.819C81.2525 51.907 81.1475 51.99 81.0655 52.066C80.9605 52.186 80.7825 52.279 80.5295 52.411C80.4445 52.456 80.3215 52.519 80.2615 52.555C80.2255 52.589 80.1855 52.618 80.1395 52.64C69.5075 57.942 59.6115 60.545 49.8875 60.596C49.7895 60.596 49.6905 60.596 49.5935 60.596H49.5865ZM20.6895 51.757C30.4705 57.031 39.9265 59.596 49.5875 59.596C49.6835 59.596 49.7795 59.596 49.8765 59.596C59.4265 59.546 69.1605 56.987 79.6305 51.774C79.7355 51.695 79.8795 51.62 80.0615 51.525C80.1465 51.48 80.2695 51.417 80.3295 51.381C80.4505 51.263 80.5885 51.153 80.7345 51.037C81.1835 50.679 81.5015 50.399 81.5015 50.047C81.5015 49.595 81.3405 49.172 81.0805 48.944C80.9695 48.846 80.9075 48.704 80.9105 48.557C80.9145 48.409 80.9825 48.27 81.0985 48.178C81.3295 47.993 81.4625 47.714 81.4625 47.412C81.4625 47.027 81.2445 46.68 80.9065 46.527C80.6985 46.433 80.5805 46.209 80.6205 45.984C80.6395 45.875 80.6495 45.765 80.6495 45.657C80.6495 44.989 80.3115 44.502 79.9855 44.416C79.8435 44.379 79.7255 44.282 79.6615 44.149C79.5975 44.017 79.5955 43.864 79.6545 43.73C79.7485 43.518 79.7985 43.273 79.7985 43.022C79.7985 42.383 79.5015 41.949 79.2265 41.816C79.0465 41.729 78.9355 41.544 78.9435 41.345L78.9455 41.311C78.9455 41.296 78.9475 41.28 78.9475 41.265C78.9475 40.626 78.6505 40.192 78.3755 40.059C78.1955 39.972 78.0845 39.787 78.0925 39.588L78.0945 39.554C78.0945 39.539 78.0965 39.523 78.0965 39.508C78.0965 38.84 77.7585 38.353 77.4325 38.267C77.2905 38.23 77.1725 38.133 77.1085 38C77.0445 37.868 77.0425 37.715 77.1015 37.581C77.1955 37.369 77.2455 37.124 77.2455 36.873C77.2455 36.133 76.8365 35.617 76.4685 35.617C76.4345 35.617 76.4005 35.621 76.3665 35.629C76.1455 35.683 75.9145 35.62 75.7505 35.462C75.5815 35.299 75.5095 35.063 75.5575 34.831C75.6115 34.571 75.5925 34.271 75.5055 33.987C75.2975 33.311 74.8035 32.962 74.4635 33.025C74.3255 33.051 74.1845 33.018 74.0725 32.935C73.9605 32.852 73.8885 32.725 73.8735 32.586C73.8605 32.463 73.8365 32.343 73.8025 32.231C73.6775 31.824 73.4275 31.491 73.1355 31.339C73.0295 31.284 72.8685 31.229 72.7045 31.283C72.6895 31.288 72.6725 31.295 72.6515 31.305C72.4045 31.422 72.1095 31.32 71.9885 31.075C71.7635 30.62 71.3725 30.332 71.0575 30.391C70.9205 30.417 70.7785 30.384 70.6665 30.301C70.5545 30.218 70.4825 30.091 70.4675 29.952C70.4545 29.829 70.4305 29.709 70.3965 29.597C70.2715 29.19 70.0215 28.857 69.7295 28.705C69.6235 28.65 69.4625 28.595 69.2985 28.649C69.2835 28.654 69.2665 28.661 69.2455 28.671C68.9985 28.788 68.7045 28.685 68.5835 28.44C68.3585 27.985 67.9685 27.697 67.6525 27.756C67.5155 27.782 67.3735 27.749 67.2615 27.666C67.1495 27.583 67.0775 27.456 67.0625 27.317C67.0505 27.205 67.0255 27.082 66.9885 26.954C66.8855 26.599 66.3405 26.257 66.1645 26.249H66.1255C65.7855 26.249 65.6345 26.267 65.5665 26.286C65.4855 26.358 65.3815 26.403 65.2705 26.411C65.1255 26.422 64.9845 26.369 64.8815 26.267C64.6545 26.042 64.3965 25.947 64.1895 26.015C64.1745 26.02 64.1575 26.027 64.1365 26.037C63.8905 26.154 63.5955 26.051 63.4745 25.806C63.2335 25.319 62.8095 25.031 62.4875 25.136C62.4725 25.141 62.4555 25.148 62.4345 25.158C62.1875 25.275 61.8935 25.172 61.7725 24.927C61.5315 24.44 61.1075 24.152 60.7855 24.257C60.7705 24.262 60.7535 24.269 60.7325 24.279C60.4855 24.396 60.1915 24.293 60.0705 24.048C59.8295 23.561 59.4055 23.273 59.0835 23.378C58.9865 23.41 58.8995 23.476 58.8255 23.575C58.7385 23.691 58.6055 23.764 58.4615 23.774C58.3165 23.785 58.1755 23.732 58.0725 23.63C57.8455 23.405 57.5875 23.31 57.3805 23.378C57.3405 23.391 57.3025 23.41 57.2665 23.434C57.1555 23.509 57.0185 23.536 56.8875 23.509C56.7565 23.482 56.6415 23.403 56.5685 23.291C56.3165 22.901 55.9595 22.701 55.6785 22.793C55.6335 22.808 55.5895 22.832 55.5425 22.867C55.4245 22.956 55.2735 22.988 55.1295 22.954C55.0665 22.939 55.0035 22.938 54.9435 22.948C54.8485 22.965 54.7585 23.015 54.6755 23.096C54.5715 23.198 54.4285 23.249 54.2835 23.237C54.1385 23.225 54.0055 23.15 53.9205 23.032C53.7205 22.755 53.4665 22.614 53.2405 22.655C53.1255 22.676 53.0185 22.744 52.9235 22.858C52.8285 22.971 52.6885 23.037 52.5405 23.037C52.3935 23.037 52.2535 22.972 52.1585 22.859C51.9665 22.631 51.7405 22.521 51.5385 22.558C51.4445 22.575 51.3535 22.625 51.2705 22.707C51.1665 22.809 51.0235 22.861 50.8785 22.848C50.7335 22.836 50.6005 22.761 50.5155 22.643C50.3155 22.366 50.0605 22.225 49.8355 22.266C49.6685 22.296 49.5495 22.42 49.4785 22.519C49.3235 22.735 49.0265 22.792 48.8025 22.649C48.7665 22.626 48.7325 22.609 48.6975 22.598C48.4915 22.53 48.2325 22.625 48.0055 22.85C47.9025 22.952 47.7615 23.005 47.6165 22.994C47.4725 22.983 47.3395 22.911 47.2525 22.795C47.1785 22.696 47.0915 22.63 46.9945 22.598C46.7535 22.519 46.4505 22.656 46.2055 22.956C46.1175 23.064 45.9895 23.13 45.8505 23.139C45.7125 23.148 45.5755 23.099 45.4745 23.004C45.4175 22.95 45.3555 22.912 45.2915 22.891C45.0115 22.8 44.6535 23 44.4015 23.389C44.3285 23.502 44.2135 23.58 44.0825 23.607C43.9515 23.634 43.8145 23.607 43.7035 23.532C43.6675 23.508 43.6285 23.489 43.5895 23.476C43.3835 23.409 43.1245 23.503 42.8975 23.728C42.7945 23.83 42.6525 23.882 42.5085 23.872C42.3645 23.861 42.2315 23.789 42.1445 23.673C42.0705 23.574 41.9835 23.508 41.8865 23.476C41.5645 23.371 41.1395 23.658 40.8995 24.146C40.7785 24.391 40.4845 24.494 40.2375 24.377C40.2165 24.367 40.1995 24.36 40.1845 24.355C39.8625 24.249 39.4375 24.537 39.1975 25.025C39.0765 25.27 38.7825 25.373 38.5355 25.255C38.5145 25.245 38.4975 25.238 38.4825 25.233C38.1605 25.127 37.7355 25.415 37.4955 25.902C37.4475 26 37.3685 26.079 37.2705 26.128C37.1335 26.197 36.9715 26.199 36.8325 26.133C36.8115 26.123 36.7945 26.116 36.7795 26.111C36.5735 26.043 36.3145 26.138 36.0875 26.363C35.9845 26.465 35.8425 26.517 35.6985 26.507C35.5575 26.497 35.4275 26.427 35.3405 26.315C35.2905 26.281 35.1225 26.252 35.0585 26.241C34.7545 26.189 34.1915 26.364 33.9785 27.058C33.9445 27.17 33.9195 27.29 33.9075 27.413C33.8925 27.552 33.8205 27.678 33.7095 27.762C33.5975 27.845 33.4555 27.878 33.3185 27.852C33.0035 27.793 32.6125 28.081 32.3875 28.536C32.2665 28.781 31.9715 28.883 31.7245 28.766C31.7045 28.756 31.6865 28.749 31.6715 28.744C31.5075 28.69 31.3465 28.744 31.2405 28.8C30.9475 28.952 30.6985 29.285 30.5735 29.692C30.5395 29.804 30.5155 29.924 30.5025 30.047C30.4875 30.186 30.4155 30.312 30.3045 30.396C30.1935 30.48 30.0505 30.512 29.9135 30.486C29.5995 30.427 29.2075 30.715 28.9825 31.17C28.8615 31.415 28.5675 31.517 28.3205 31.4C28.2995 31.39 28.2825 31.383 28.2675 31.378C28.1035 31.325 27.9425 31.378 27.8355 31.434C27.5425 31.586 27.2935 31.919 27.1685 32.326C27.1345 32.438 27.1095 32.558 27.0975 32.681C27.0825 32.82 27.0105 32.946 26.8995 33.03C26.7875 33.113 26.6455 33.146 26.5085 33.12C26.1695 33.056 25.6745 33.406 25.4665 34.082C25.3565 34.44 25.3575 34.815 25.4685 35.11C25.5405 35.3 25.4895 35.515 25.3415 35.653L25.2975 35.694C25.1425 35.838 24.9125 35.869 24.7255 35.771C24.6495 35.731 24.5765 35.712 24.5035 35.712C24.1355 35.712 23.7265 36.228 23.7265 36.968C23.7265 37.178 23.7605 37.379 23.8265 37.568C23.8695 37.688 23.8645 37.82 23.8125 37.937L23.7285 38.128C23.6775 38.244 23.5845 38.336 23.4685 38.386C23.1745 38.512 22.8775 38.967 22.8755 39.595C22.8755 39.604 22.8755 39.612 22.8755 39.62C22.8755 39.697 22.8595 39.774 22.8255 39.844L22.7775 39.945C22.7325 40.039 22.6585 40.117 22.5675 40.168C22.2475 40.345 22.0235 40.835 22.0235 41.36C22.0235 41.376 22.0235 41.391 22.0255 41.406L22.0275 41.44C22.0355 41.639 21.9245 41.824 21.7455 41.911C21.4695 42.044 21.1735 42.478 21.1735 43.117C21.1735 43.307 21.2015 43.492 21.2555 43.665C21.2855 43.759 21.2865 43.859 21.2595 43.953C21.2345 44.04 21.2105 44.127 21.1865 44.214C21.1465 44.358 21.0445 44.477 20.9085 44.538C20.6175 44.668 20.3225 45.127 20.3225 45.751C20.3225 45.815 20.3255 45.88 20.3325 45.946C20.3575 46.189 20.2035 46.415 19.9675 46.479C19.5635 46.59 19.2815 46.973 19.2815 47.41C19.2815 47.78 19.4885 48.122 19.8095 48.281C19.9535 48.352 20.0545 48.488 20.0805 48.647C20.1065 48.805 20.0555 48.967 19.9425 49.081C19.7065 49.32 19.5655 49.716 19.5655 50.143C19.5655 50.711 19.8995 51.27 20.2125 51.436C20.2395 51.45 20.2645 51.466 20.2875 51.485C20.3235 51.51 20.4055 51.562 20.4865 51.615C20.5695 51.669 20.6395 51.714 20.6985 51.757H20.6895ZM19.9425 52.209C19.9485 52.377 20.0345 52.505 20.1205 52.575C20.0135 52.485 19.9475 52.352 19.9425 52.209ZM80.4085 52.227C80.4085 52.227 80.4085 52.23 80.4085 52.231C80.4085 52.23 80.4085 52.228 80.4085 52.227ZM20.2885 51.497C20.3955 51.587 20.4615 51.72 20.4665 51.863C20.4605 51.695 20.3745 51.567 20.2885 51.497ZM80.1755 51.687C80.1745 51.699 80.1735 51.711 80.1725 51.723C80.1725 51.711 80.1745 51.699 80.1755 51.687Z" fill="#F94D0D"/>
<path d="M50.3865 84.977C67.8465 84.977 82.0005 71.278 82.0005 50.728C60.1755 60.747 39.0415 61.255 18.7725 50.728C18.7725 71.277 32.9265 84.977 50.3865 84.977Z" fill="#F94D0D"/>
<path d="M50.3864 58.924C67.1996 58.924 80.8294 55.3638 80.8294 50.972C80.8294 46.5803 67.1996 43.02 50.3864 43.02C33.5732 43.02 19.9434 46.5803 19.9434 50.972C19.9434 55.3638 33.5732 58.924 50.3864 58.924Z" fill="white"/>
<path d="M37.7871 35.0058C37.7871 35.0058 37.7871 33.2528 39.6431 33.6648Z" fill="white"/>
<path d="M37.7867 35.4049H37.7847C37.5647 35.4039 37.3867 35.2259 37.3867 35.0059C37.3867 34.9679 37.3937 34.0709 38.0427 33.5509C38.4647 33.2129 39.0327 33.1199 39.7297 33.2749C39.9457 33.3229 40.0817 33.5369 40.0337 33.7519C39.9857 33.9679 39.7727 34.1029 39.5567 34.0559C39.1097 33.9569 38.7697 33.9959 38.5467 34.1729C38.1977 34.4499 38.1877 35.0029 38.1877 35.0089C38.1847 35.2279 38.0067 35.4049 37.7877 35.4049H37.7867Z" fill="#F94D0D"/>
<path d="M39.9318 33.8739C39.9318 33.8739 39.8768 32.0549 41.6098 32.8369Z" fill="white"/>
<path d="M39.9318 34.274C39.7168 34.274 39.5388 34.103 39.5318 33.886C39.5288 33.783 39.5197 32.867 40.1607 32.439C40.5727 32.164 41.1157 32.175 41.7747 32.472C41.9757 32.563 42.0657 32.8 41.9747 33.001C41.8837 33.202 41.6467 33.292 41.4457 33.201C41.1777 33.08 40.8137 32.965 40.6057 33.104C40.3647 33.265 40.3287 33.742 40.3327 33.861C40.3397 34.082 40.1658 34.266 39.9448 34.273C39.9408 34.273 39.9367 34.273 39.9327 34.273L39.9318 34.274Z" fill="#F94D0D"/>
<path d="M57.6162 42.1816C57.6162 42.1816 59.2372 40.7806 59.6502 42.7396Z" fill="white"/>
<path d="M59.65 43.1397C59.465 43.1397 59.299 43.0107 59.259 42.8217C59.2 42.5417 59.082 42.1927 58.852 42.1147C58.557 42.0157 58.06 42.3267 57.878 42.4837C57.711 42.6287 57.458 42.6097 57.314 42.4427C57.17 42.2757 57.188 42.0227 57.355 41.8787C57.45 41.7967 58.304 41.0867 59.108 41.3577C59.58 41.5167 59.894 41.9537 60.042 42.6577C60.088 42.8737 59.949 43.0857 59.733 43.1317C59.705 43.1377 59.677 43.1407 59.65 43.1407V43.1397Z" fill="#F94D0D"/>
<path d="M59.5469 42.9472C59.5469 42.9472 61.1789 41.5632 61.8569 43.3392Z" fill="white"/>
<path d="M61.8565 43.739C61.6955 43.739 61.5435 43.641 61.4825 43.481C61.3455 43.121 61.1615 42.909 60.9355 42.851C60.5225 42.745 59.9665 43.113 59.8045 43.251C59.6365 43.394 59.3835 43.373 59.2405 43.205C59.0975 43.036 59.1185 42.784 59.2865 42.641C59.3825 42.559 60.2525 41.85 61.1335 42.076C61.6255 42.202 61.9935 42.579 62.2285 43.195C62.3075 43.401 62.2035 43.633 61.9975 43.711C61.9505 43.729 61.9025 43.737 61.8555 43.737L61.8565 43.739Z" fill="#F94D0D"/>
<path d="M33.2539 48.1019C33.2539 48.1019 34.8759 45.1409 35.8739 48.3339Z" fill="white"/>
<path d="M35.8737 48.7337C35.7037 48.7337 35.5457 48.6237 35.4917 48.4527C35.2647 47.7277 34.9757 47.2787 34.7187 47.2527C34.3717 47.2167 33.8477 47.8527 33.6047 48.2937C33.4977 48.4867 33.2547 48.5577 33.0617 48.4517C32.8687 48.3457 32.7977 48.1027 32.9037 47.9097C32.9907 47.7507 33.7837 46.3577 34.7977 46.4567C35.4287 46.5197 35.9057 47.0937 36.2557 48.2137C36.3217 48.4247 36.2037 48.6487 35.9937 48.7147C35.9537 48.7267 35.9137 48.7327 35.8747 48.7327L35.8737 48.7337Z" fill="#F94D0D"/>
<path d="M35.8008 48.7217C35.8008 48.7217 37.4398 45.7847 38.7158 48.5727Z" fill="white"/>
<path d="M35.7995 49.1207C35.7335 49.1207 35.6665 49.1037 35.6045 49.0697C35.4115 48.9617 35.3425 48.7187 35.4505 48.5257C35.5415 48.3617 36.3785 46.9267 37.4865 46.9717C38.1185 46.9967 38.6535 47.4797 39.0775 48.4057C39.1695 48.6067 39.0815 48.8437 38.8805 48.9357C38.6795 49.0277 38.4425 48.9397 38.3505 48.7387C38.1525 48.3057 37.8365 47.7867 37.4555 47.7707C36.9265 47.7457 36.3195 48.6117 36.1485 48.9157C36.0755 49.0467 35.9395 49.1197 35.7995 49.1197V49.1207Z" fill="#F94D0D"/>
<path d="M54.6729 32.6338C54.6729 32.6338 57.0719 30.2618 57.4839 33.1498Z" fill="white"/>
<path d="M57.484 33.5499C57.288 33.5499 57.117 33.4059 57.088 33.2059C57.027 32.7809 56.887 32.2509 56.561 32.1409C56.098 31.9849 55.279 32.5969 54.954 32.9179C54.797 33.0729 54.544 33.0719 54.388 32.9149C54.233 32.7579 54.234 32.5049 54.391 32.3489C54.529 32.2129 55.766 31.0299 56.815 31.3829C57.387 31.5749 57.745 32.1509 57.879 33.0929C57.91 33.3119 57.758 33.5139 57.54 33.5459C57.521 33.5489 57.502 33.5499 57.483 33.5499H57.484Z" fill="#F94D0D"/>
<path d="M70.6843 48.1029C70.6843 48.1029 70.1003 45.3579 68.2383 47.6019Z" fill="white"/>
<path d="M70.6836 48.5029C70.4986 48.5029 70.3326 48.3739 70.2926 48.1869C70.2256 47.8779 69.9756 47.2129 69.6306 47.1289C69.3766 47.0669 68.9806 47.3329 68.5446 47.8579C68.4036 48.0279 68.1516 48.0519 67.9816 47.9099C67.8116 47.7689 67.7876 47.5169 67.9296 47.3469C68.5976 46.5419 69.2346 46.2079 69.8226 46.3519C70.7436 46.5789 71.0436 47.8729 71.0746 48.0189C71.1206 48.2349 70.9826 48.4479 70.7666 48.4929C70.7386 48.4989 70.7106 48.5019 70.6826 48.5019L70.6836 48.5029Z" fill="#F94D0D"/>
</svg>
