<svg width="24" height="24" viewBox="0 0 24 24" fill="none" xmlns="http://www.w3.org/2000/svg">
<path fill-rule="evenodd" clip-rule="evenodd" d="M12 2C12.5523 2 13 2.44772 13 3V5.07089C16.0657 5.5094 18.4906 7.93431 18.9291 11H21C21.5523 11 22 11.4477 22 12C22 12.5523 21.5523 13 21 13H18.9291C18.4906 16.0657 16.0657 18.4906 13 18.9291V21C13 21.5523 12.5523 22 12 22C11.4477 22 11 21.5523 11 21V18.9291C7.93431 18.4906 5.5094 16.0657 5.07089 13H3C2.44772 13 2 12.5523 2 12C2 11.4477 2.44772 11 3 11H5.07089C5.5094 7.93431 7.93431 5.5094 11 5.07089V3C11 2.44772 11.4477 2 12 2ZM7 12C7 14.7614 9.23858 17 12 17C14.7614 17 17 14.7614 17 12C17 9.23858 14.7614 7 12 7C9.23858 7 7 9.23858 7 12Z" fill="#282828"/>
</svg>
