<svg width="20" height="20" viewBox="0 0 20 20" fill="none" xmlns="http://www.w3.org/2000/svg">
<path fill-rule="evenodd" clip-rule="evenodd" d="M10 0C10.5523 0 11 0.447715 11 1V3.07089C14.0657 3.5094 16.4906 5.93431 16.9291 9H19C19.5523 9 20 9.44772 20 10C20 10.5523 19.5523 11 19 11H16.9291C16.4906 14.0657 14.0657 16.4906 11 16.9291V19C11 19.5523 10.5523 20 10 20C9.44771 20 9 19.5523 9 19V16.9291C5.93431 16.4906 3.5094 14.0657 3.07089 11H1C0.447715 11 0 10.5523 0 10C0 9.44772 0.447715 9 1 9H3.07089C3.5094 5.93431 5.93431 3.5094 9 3.07089V1C9 0.447715 9.44771 0 10 0ZM5 10C5 12.7614 7.23858 15 10 15C12.7614 15 15 12.7614 15 10C15 7.23858 12.7614 5 10 5C7.23858 5 5 7.23858 5 10Z" fill="#D8412B"/>
</svg>
