<svg width="100" height="100" viewBox="0 0 100 100" fill="none" xmlns="http://www.w3.org/2000/svg">
<path d="M28.7996 57.1998C32.7761 57.1998 35.9996 53.9763 35.9996 49.9998C35.9996 46.0234 32.7761 42.7998 28.7996 42.7998C24.8232 42.7998 21.5996 46.0234 21.5996 49.9998C21.5996 53.9763 24.8232 57.1998 28.7996 57.1998Z" fill="#F94D0D"/>
<path d="M50.4002 57.1998C54.3766 57.1998 57.6002 53.9763 57.6002 49.9998C57.6002 46.0234 54.3766 42.7998 50.4002 42.7998C46.4237 42.7998 43.2002 46.0234 43.2002 49.9998C43.2002 53.9763 46.4237 57.1998 50.4002 57.1998Z" fill="#F94D0D"/>
<path d="M71.9998 57.1998C75.9763 57.1998 79.1998 53.9763 79.1998 49.9998C79.1998 46.0234 75.9763 42.7998 71.9998 42.7998C68.0234 42.7998 64.7998 46.0234 64.7998 49.9998C64.7998 53.9763 68.0234 57.1998 71.9998 57.1998Z" fill="#F94D0D"/>
</svg>
