<svg width="100" height="100" viewBox="0 0 100 100" fill="none" xmlns="http://www.w3.org/2000/svg">
<path d="M59.4952 42.5949C61.2002 44.2999 62.9602 46.7419 63.0002 47.0999C63.9002 55.0999 63.0002 63.1999 54.4832 74.4169C45.7852 85.8729 30.0652 86.8319 22.6612 79.4289C15.2582 72.0259 15.7712 55.6859 27.6732 47.6069C38.0912 40.5359 47.7002 37.9999 54.9002 39.5589C56.6472 39.9369 58.1052 41.2049 59.4952 42.5949V42.5949Z" fill="#F94D0D"/>
<path d="M65.6998 45.2002C62.0998 47.0002 62.9998 48.8002 62.9998 51.5002L46.7998 39.8002C50.3998 39.8002 54.2768 40.4322 55.7998 36.2002L65.6998 45.2002Z" fill="#F94D0D"/>
<path d="M57.1496 41.6C59.3864 41.6 61.1996 39.7868 61.1996 37.55C61.1996 35.3132 59.3864 33.5 57.1496 33.5C54.9129 33.5 53.0996 35.3132 53.0996 37.55C53.0996 39.7868 54.9129 41.6 57.1496 41.6Z" fill="#F94D0D"/>
<path d="M76.4999 25.3999C76.4999 22.9149 74.4849 20.8999 71.9999 20.8999C69.5149 20.8999 67.4999 22.9149 67.4999 25.3999C67.4999 26.5559 67.9359 27.6099 68.6519 28.4059L60.5449 36.5129L65.6359 41.6039L73.7669 33.4729C74.5249 34.0529 75.4719 34.3989 76.4999 34.3989C78.9849 34.3989 80.9999 32.3839 80.9999 29.8989C80.9999 27.4139 78.9849 25.3989 76.4999 25.3989V25.3999Z" fill="white"/>
<path d="M65.6359 42.6049C65.3799 42.6049 65.1239 42.5069 64.9289 42.3119L59.8379 37.2209C59.6499 37.0329 59.5449 36.7789 59.5449 36.5139C59.5449 36.2489 59.6499 35.9939 59.8379 35.8069L67.3339 28.3109C66.7919 27.4429 66.5009 26.4369 66.5009 25.3999C66.5009 22.3669 68.9679 19.8999 72.0009 19.8999C74.7189 19.8999 76.9839 21.8819 77.4239 24.4769C80.0189 24.9169 82.0009 27.1809 82.0009 29.8999C82.0009 32.9329 79.5339 35.3999 76.5009 35.3999C75.5819 35.3999 74.6989 35.1769 73.9059 34.7499L66.3439 42.3119C66.1489 42.5069 65.8929 42.6049 65.6369 42.6049H65.6359ZM61.9589 36.5139L65.6359 40.1909L73.0599 32.7669C73.4149 32.4129 73.9769 32.3749 74.3749 32.6799C74.9899 33.1509 75.7249 33.3999 76.4999 33.3999C78.4299 33.3999 79.9999 31.8299 79.9999 29.8999C79.9999 27.9699 78.4299 26.3999 76.4999 26.3999C75.9479 26.3999 75.4999 25.9519 75.4999 25.3999C75.4999 23.4699 73.9299 21.8999 71.9999 21.8999C70.0699 21.8999 68.4999 23.4699 68.4999 25.3999C68.4999 26.2649 68.8179 27.0949 69.3959 27.7379C69.7509 28.1329 69.7349 28.7379 69.3589 29.1139L61.9589 36.5139V36.5139Z" fill="#F94D0D"/>
<path d="M62.0996 44.2998C64.5849 44.2998 66.5996 42.2851 66.5996 39.7998C66.5996 37.3145 64.5849 35.2998 62.0996 35.2998C59.6143 35.2998 57.5996 37.3145 57.5996 39.7998C57.5996 42.2851 59.6143 44.2998 62.0996 44.2998Z" fill="#F94D0D"/>
<path d="M64.3498 48.8002C66.5866 48.8002 68.3998 46.9869 68.3998 44.7502C68.3998 42.5134 66.5866 40.7002 64.3498 40.7002C62.1131 40.7002 60.2998 42.5134 60.2998 44.7502C60.2998 46.9869 62.1131 48.8002 64.3498 48.8002Z" fill="#F94D0D"/>
</svg>
