<svg width="100" height="100" viewBox="0 0 100 100" fill="none" xmlns="http://www.w3.org/2000/svg">
<g clip-path="url(#clip0_569_3697)">
<path d="M77.5493 41.4263H68.3809V46.8301H74.5519C75.5257 46.8301 76.3151 47.6195 76.3151 48.5932V63.4148C76.3151 64.3886 75.5257 65.178 74.5519 65.178H68.3809V70.7829H77.5493C79.4968 70.7829 81.0756 69.2041 81.0756 67.2565V44.9526C81.0756 43.0051 79.4968 41.4263 77.5493 41.4263Z" fill="white"/>
<path d="M77.549 71.6646H67.499V64.2967H74.5516C75.0377 64.2967 75.4332 63.9012 75.4332 63.415V48.5935C75.4332 48.1073 75.0377 47.7119 74.5516 47.7119H67.499V40.5449H77.549C79.9795 40.5449 81.9568 42.5223 81.9568 44.9528V67.2567C81.9568 69.6873 79.9795 71.6647 77.549 71.6647V71.6646ZM69.2621 69.9016H77.549C79.0073 69.9016 80.1938 68.715 80.1938 67.2567V44.9528C80.1938 43.4945 79.0073 42.3081 77.549 42.3081H69.2621V45.9487H74.5516C76.0099 45.9487 77.1963 47.1351 77.1963 48.5934V63.415C77.1963 64.8733 76.0099 66.0598 74.5516 66.0598H69.2621V69.9016V69.9016Z" fill="#F94D0D"/>
<path d="M24.7422 32.6987H69.1738V79.9516C69.1738 83.5382 66.2619 86.45 62.6753 86.45H31.2406C27.654 86.45 24.7422 83.5382 24.7422 79.9516V32.6987Z" fill="white"/>
<path d="M67.4008 34.4717V79.9516C67.4008 82.5572 65.281 84.6771 62.6753 84.6771H31.2406C28.635 84.6771 26.5151 82.5572 26.5151 79.9516V34.4717H67.4008ZM69.1738 32.6987H24.7422V79.9516C24.7422 83.5406 27.6516 86.45 31.2406 86.45H62.6753C66.2643 86.45 69.1738 83.5406 69.1738 79.9516V32.6987Z" fill="#F94D0D"/>
<path d="M67.587 37.459H26.3291V81.0498H67.587V37.459Z" fill="#F94D0D"/>
<path d="M62.3982 20.7991C60.5878 17.0456 56.7031 14.4502 52.2023 14.4502C48.6344 14.4502 45.4539 16.0815 43.3866 18.6274C41.3357 16.5411 38.462 15.2436 35.2801 15.2436C29.0496 15.2436 23.9987 20.2168 23.9987 26.3515C23.9987 27.1708 24.0896 27.9691 24.2605 28.7379C22.1485 30.2526 20.7754 32.7062 20.7754 35.4758C20.7754 40.0769 24.5636 43.8068 29.2365 43.8068C31.2042 43.8068 33.0149 43.1453 34.4521 42.0361C36.5013 44.107 39.3641 45.3936 42.5325 45.3936C45.7601 45.3936 48.6709 44.0589 50.7271 41.9195C51.713 42.6076 52.9164 43.0133 54.2168 43.0133C56.3821 43.0133 58.2803 41.8915 59.3476 40.2066C60.2741 40.4834 61.2567 40.6331 62.275 40.6331C67.838 40.6331 72.3478 36.1927 72.3478 30.7153C72.3478 25.2784 67.9044 20.8642 62.3982 20.7991H62.3982Z" fill="white"/>
<path d="M52.2023 16.2134C54.0423 16.2134 55.8272 16.7293 57.3637 17.7054C58.8584 18.6548 60.0501 19.9895 60.8101 21.5651L61.2847 22.5492L62.3773 22.5621C64.5803 22.5882 66.646 23.4512 68.1937 24.9922C69.7355 26.5273 70.5846 28.5598 70.5846 30.7153C70.5846 35.2118 66.8569 38.8699 62.275 38.8699C61.4508 38.8699 60.6357 38.7513 59.8522 38.5172L58.5726 38.135L57.8581 39.2632C57.0699 40.5074 55.7087 41.2502 54.2168 41.2502C53.3218 41.2502 52.464 40.9817 51.7361 40.4737L50.5002 39.6112L49.4558 40.6978C47.6382 42.5889 45.1794 43.6305 42.5325 43.6305C39.9386 43.6305 37.514 42.6238 35.7053 40.7959L34.6088 39.6878L33.3747 40.6403C32.1853 41.5584 30.7543 42.0436 29.2365 42.0436C25.5432 42.0436 22.5385 39.0973 22.5385 35.4759C22.5385 34.4116 22.7896 33.397 23.2847 32.4602C23.7596 31.5618 24.4524 30.7701 25.2881 30.1707L26.2344 29.492L25.9816 28.3552C25.8358 27.6992 25.7618 27.0251 25.7618 26.3515C25.7618 21.1988 30.0317 17.0068 35.2801 17.0068C37.8859 17.0068 40.3183 18.0213 42.1292 19.8635L43.512 21.2701L44.7553 19.7388C46.5746 17.4984 49.2889 16.2134 52.2023 16.2134M52.2023 14.4502C48.6344 14.4502 45.4538 16.0815 43.3866 18.6274C41.3356 16.5411 38.4619 15.2436 35.2801 15.2436C29.0495 15.2436 23.9987 20.2168 23.9987 26.3515C23.9987 27.1708 24.0896 27.9691 24.2605 28.7379C22.1485 30.2527 20.7754 32.7062 20.7754 35.4759C20.7754 40.0769 24.5635 43.8068 29.2365 43.8068C31.2042 43.8068 33.0149 43.1454 34.452 42.0361C36.5013 44.107 39.364 45.3936 42.5325 45.3936C45.7601 45.3936 48.6709 44.0589 50.7271 41.9195C51.713 42.6076 52.9164 43.0134 54.2168 43.0134C56.3821 43.0134 58.2803 41.8915 59.3476 40.2066C60.2741 40.4834 61.2567 40.6331 62.275 40.6331C67.838 40.6331 72.3478 36.1928 72.3478 30.7153C72.3478 25.2784 67.9044 20.8642 62.3982 20.7991C60.5878 17.0456 56.7031 14.4502 52.2023 14.4502L52.2023 14.4502Z" fill="#F94D0D"/>
<path d="M32.6766 40.6327C32.6766 39.7563 31.9662 39.0459 31.0898 39.0459C30.2134 39.0459 29.5029 39.7563 29.5029 40.6327V49.3604C29.5029 50.2368 30.2134 50.9472 31.0898 50.9472C31.9662 50.9472 32.6766 50.2368 32.6766 49.3604V40.6327Z" fill="white"/>
<path d="M39.8172 40.6327C39.8172 39.7563 39.1068 39.0459 38.2304 39.0459C37.354 39.0459 36.6436 39.7563 36.6436 40.6327V52.5341C36.6436 53.4104 37.354 54.1209 38.2304 54.1209C39.1068 54.1209 39.8172 53.4104 39.8172 52.5341V40.6327Z" fill="white"/>
</g>
<defs>
<clipPath id="clip0_569_3697">
<rect width="100" height="100" fill="white"/>
</clipPath>
</defs>
</svg>
