<svg width="16" height="16" viewBox="0 0 16 16" fill="none" xmlns="http://www.w3.org/2000/svg">
<path d="M13.5333 8.95337C13.3654 8.90102 13.1835 8.91719 13.0274 8.99836C12.8713 9.07954 12.7536 9.21913 12.7 9.3867C12.385 10.3497 11.771 11.1871 10.9473 11.777C10.1236 12.3669 9.13311 12.6786 8.12 12.6667C6.8669 12.6809 5.65929 12.1977 4.76198 11.3229C3.86467 10.448 3.3509 9.2531 3.33333 8.00004C3.3509 6.74698 3.86467 5.55203 4.76198 4.67721C5.65929 3.8024 6.8669 3.31913 8.12 3.33337C9.25172 3.33064 10.3486 3.72458 11.22 4.4467L9.77333 4.2067C9.68663 4.19244 9.59796 4.19545 9.51243 4.21557C9.4269 4.2357 9.34619 4.27253 9.27494 4.32395C9.20369 4.37537 9.14331 4.44037 9.09727 4.51521C9.05123 4.59005 9.02044 4.67326 9.00667 4.76004C8.9924 4.84674 8.99541 4.93541 9.01554 5.02094C9.03566 5.10647 9.07249 5.18718 9.12391 5.25843C9.17533 5.32968 9.24033 5.39006 9.31517 5.4361C9.39001 5.48214 9.47322 5.51293 9.56 5.5267L12.3867 5.99337H12.5C12.5773 5.99328 12.654 5.97975 12.7267 5.95337C12.7511 5.9441 12.7737 5.93056 12.7933 5.91337C12.8411 5.8956 12.8861 5.87089 12.9267 5.84004L12.9867 5.7667C12.9867 5.73337 13.0467 5.7067 13.0733 5.6667C13.1 5.6267 13.0733 5.60004 13.1067 5.57337C13.1251 5.53455 13.1407 5.49444 13.1533 5.45337L13.6533 2.78671C13.67 2.69916 13.6692 2.60919 13.6511 2.52194C13.6329 2.43469 13.5978 2.35187 13.5476 2.2782C13.4975 2.20453 13.4333 2.14146 13.3588 2.09259C13.2843 2.04372 13.2009 2.01001 13.1133 1.99337C13.0258 1.97674 12.9358 1.97751 12.8486 1.99565C12.7613 2.01378 12.6785 2.04892 12.6048 2.09907C12.456 2.20034 12.3536 2.35656 12.32 2.53337L12.14 3.50004C11.024 2.53287 9.59679 2.00033 8.12 2.00004C6.51329 1.98582 4.96656 2.60957 3.8192 3.73443C2.67185 4.85928 2.01759 6.39336 2 8.00004C2.01759 9.60672 2.67185 11.1408 3.8192 12.2656C4.96656 13.3905 6.51329 14.0143 8.12 14C9.42209 14.02 10.6962 13.6215 11.7548 12.8629C12.8133 12.1044 13.6003 11.0261 14 9.7867C14.0253 9.70135 14.0332 9.6118 14.0233 9.52333C14.0135 9.43486 13.986 9.34926 13.9425 9.27159C13.899 9.19392 13.8404 9.12574 13.7701 9.07109C13.6998 9.01644 13.6193 8.97641 13.5333 8.95337Z" fill="#D8412B"/>
</svg>
