<svg width="100" height="100" viewBox="0 0 100 100" fill="none" xmlns="http://www.w3.org/2000/svg">
<path d="M18.8789 49.145C24.5739 52.991 36.3799 55.943 50.0789 55.943C63.7779 55.943 75.9929 52.956 81.8059 49.078C80.9569 43.32 66.8879 37.957 50.1059 37.957C33.3239 37.957 19.6039 43.362 18.8789 49.144V49.145Z" fill="#FFA38B"/>
<path d="M50.0793 56.5429C37.1303 56.5429 24.7523 53.8339 18.5443 49.6419L18.2393 49.4359L18.2853 49.0699C18.6723 45.9799 22.2083 43.0499 28.2403 40.8199C34.2803 38.5869 42.0463 37.3579 50.1073 37.3579C58.1683 37.3579 65.9813 38.5789 72.1353 40.7949C78.3033 43.0159 81.9493 45.9269 82.4003 48.9909L82.4553 49.3669L82.1393 49.5779C79.1303 51.5859 74.6073 53.3049 69.0603 54.5509C63.2563 55.8549 56.6923 56.5439 50.0783 56.5439L50.0793 56.5429ZM19.5393 48.8609C25.6653 52.8069 37.5773 55.3429 50.0793 55.3429C56.6063 55.3429 63.0783 54.6639 68.7983 53.3789C73.9203 52.2289 78.2793 50.6079 81.1383 48.7969C80.5003 46.3459 77.1083 43.8599 71.7283 41.9229C65.7013 39.7529 58.0233 38.5569 50.1073 38.5569C42.1913 38.5569 34.5663 39.7599 28.6563 41.9449C23.4003 43.8879 20.1133 46.3899 19.5403 48.8609H19.5393Z" fill="#F94D0D"/>
<path d="M85.4422 44.126C85.4422 50.087 69.3662 55.942 50.0742 55.942C30.7822 55.942 15.2422 50.086 15.2422 44.126C15.2422 38.166 30.7812 32.457 50.0742 32.457C69.3672 32.457 85.4422 38.165 85.4422 44.126Z" fill="#FFA38B"/>
<path d="M50.0742 56.943C40.8192 56.943 31.9472 55.619 25.0922 53.214C18.0952 50.759 14.2422 47.532 14.2422 44.127C14.2422 40.722 18.0972 37.527 25.0972 35.112C31.9272 32.756 40.7972 31.458 50.0742 31.458C59.3512 31.458 68.3412 32.755 75.3132 35.11C82.4902 37.534 86.4422 40.737 86.4422 44.127C86.4422 47.517 82.4912 50.752 75.3172 53.216C68.3202 55.62 59.3552 56.943 50.0732 56.943H50.0742ZM50.0742 33.457C41.0142 33.457 32.3752 34.716 25.7502 37.002C19.7972 39.056 16.2432 41.719 16.2432 44.126C16.2432 45.55 17.5202 46.857 18.5922 47.702C20.2512 49.01 22.7282 50.264 25.7552 51.326C32.4022 53.658 41.0392 54.943 50.0742 54.943C59.1092 54.943 67.9732 53.624 74.6682 51.324C80.6972 49.253 84.4422 46.495 84.4422 44.126C84.4422 42.717 83.1272 41.422 82.0242 40.584C80.3212 39.291 77.7792 38.052 74.6732 37.003C68.0002 34.749 59.0352 33.456 50.0742 33.456V33.457Z" fill="#F94D0D"/>
<path d="M80.9501 51.2925C81.7628 44.7117 74.8327 38.4398 65.4713 37.2838C56.11 36.1277 47.8623 40.5253 47.0496 47.106C46.2369 53.6867 53.167 59.9587 62.5284 61.1147C71.8897 62.2708 80.1374 57.8732 80.9501 51.2925Z" fill="white"/>
<path d="M65.5172 62.1007C64.4992 62.1007 63.4682 62.0377 62.4302 61.9097C57.7402 61.3307 53.4812 59.4937 50.4372 56.7387C47.3152 53.9127 45.8302 50.4577 46.2562 47.0087C46.6822 43.5597 48.9632 40.5697 52.6792 38.5887C56.3022 36.6567 60.8802 35.9117 65.5702 36.4907C70.2602 37.0697 74.5192 38.9057 77.5632 41.6617C80.6852 44.4877 82.1702 47.9427 81.7442 51.3917C81.3182 54.8407 79.0372 57.8307 75.3212 59.8117C72.4992 61.3157 69.0982 62.1007 65.5172 62.1007V62.1007ZM62.4772 37.8987C59.1592 37.8987 56.0222 38.6187 53.4312 40.0007C50.1882 41.7297 48.2042 44.2887 47.8432 47.2047C47.4832 50.1217 48.7852 53.0857 51.5102 55.5517C54.3132 58.0877 58.2602 59.7817 62.6262 60.3207C66.9912 60.8597 71.2332 60.1777 74.5682 58.3987C77.8112 56.6697 79.7952 54.1107 80.1562 51.1947C80.5162 48.2777 79.2142 45.3137 76.4892 42.8477C73.6862 40.3117 69.7392 38.6177 65.3732 38.0787C64.3992 37.9587 63.4302 37.8987 62.4772 37.8987V37.8987Z" fill="#F94D0D"/>
<path d="M37.2032 57.9791C45.3532 55.7922 50.7495 49.5076 49.2561 43.9419C47.7627 38.3763 39.9452 35.6372 31.7951 37.824C23.645 40.0109 18.2487 46.2956 19.7421 51.8612C21.2355 57.4269 29.0531 60.166 37.2032 57.9791Z" fill="white"/>
<path d="M31.6167 59.5328C29.5287 59.5328 27.5237 59.2148 25.7137 58.5808C22.1587 57.3348 19.7637 55.0218 18.9707 52.0668C18.1777 49.1118 19.0927 45.9108 21.5467 43.0528C23.9267 40.2808 27.4937 38.1488 31.5887 37.0498C35.6847 35.9508 39.8387 36.0108 43.2877 37.2188C46.8427 38.4648 49.2377 40.7778 50.0307 43.7328C50.8237 46.6878 49.9087 49.8888 47.4547 52.7468C45.0747 55.5188 41.5077 57.6508 37.4127 58.7508C35.4667 59.2728 33.5077 59.5338 31.6167 59.5338V59.5328ZM37.3987 37.8658C35.6697 37.8658 33.8467 38.0998 32.0047 38.5938C24.2937 40.6628 19.1407 46.5208 20.5177 51.6518C21.8947 56.7828 29.2887 59.2738 36.9987 57.2038C44.7087 55.1348 49.8617 49.2768 48.4857 44.1458C47.4377 40.2408 42.9037 37.8648 37.3987 37.8648V37.8658Z" fill="#F94D0D"/>
<path d="M72.8455 58.2115C70.7245 54.3645 68.0345 51.8825 64.6225 50.6235C61.7775 49.5735 58.4345 49.3526 54.1045 49.9256L53.8945 48.3395C60.5485 47.4575 68.8745 47.6956 74.2475 57.4396L72.8465 58.2115H72.8455Z" fill="#F94D0D"/>
<path d="M72.3431 62.0488C67.7511 55.4368 61.5971 52.7218 53.5291 53.7498L53.3271 52.1628C57.4991 51.6308 61.2831 52.0608 64.5731 53.4408C68.0741 54.9088 71.1311 57.4978 73.6571 61.1358L72.3431 62.0488V62.0488Z" fill="#F94D0D"/>
<path d="M77.5159 51.6566C76.7409 47.7816 74.2579 44.8566 70.1349 42.9626C66.6719 41.3716 62.0879 40.5866 57.2259 40.7526L57.1719 39.1536C62.2769 38.9786 67.1179 39.8166 70.8029 41.5096C75.3529 43.5996 78.2159 47.0006 79.0849 51.3436L77.5159 51.6576V51.6566Z" fill="#F94D0D"/>
<path d="M20.7837 53.647L19.4297 52.795C21.7887 49.046 24.7247 46.321 28.1557 44.696C31.3797 43.169 35.1397 42.568 39.3327 42.91L39.2027 44.505C31.0957 43.843 25.0717 46.834 20.7847 53.648L20.7837 53.647Z" fill="#F94D0D"/>
<path d="M20.3602 47.9389L19.2402 46.7969C21.3052 44.7719 23.7402 43.1329 26.4792 41.9269C29.1722 40.7409 32.2492 39.9329 35.6242 39.5269L35.8152 41.1159C29.2972 41.8999 24.2412 44.1319 20.3602 47.9389V47.9389Z" fill="#F94D0D"/>
<path d="M73.8496 53.2998C73.8496 62.2588 63.0776 67.7218 50.8996 67.7218C38.7216 67.7218 27.8496 61.3588 27.8496 52.3998C27.8496 43.4408 38.7216 35.2778 50.8996 35.2778C63.0776 35.2778 73.8496 44.3408 73.8496 53.2998Z" fill="white"/>
<path d="M50.8998 68.522C44.7108 68.522 38.8438 66.95 34.3768 64.095C29.6518 61.074 27.0498 56.921 27.0498 52.4C27.0498 47.879 29.7038 43.286 34.3298 39.838C38.8998 36.432 44.9388 34.478 50.8998 34.478C56.8608 34.478 62.8318 36.602 67.4428 40.306C72.0228 43.985 74.6498 48.721 74.6498 53.3C74.6498 55.631 73.9728 57.811 72.6388 59.782C71.3978 61.614 69.6178 63.222 67.3478 64.56C63.0148 67.115 57.1738 68.522 50.8998 68.522V68.522ZM50.8998 36.078C39.2548 36.078 28.6498 43.858 28.6498 52.4C28.6498 56.356 30.9898 60.03 35.2388 62.747C39.3898 65.401 45.0978 66.922 50.8998 66.922C56.7018 66.922 62.4448 65.594 66.5348 63.182C69.5068 61.429 73.0498 58.293 73.0498 53.3C73.0498 49.208 70.6408 44.927 66.4408 41.553C62.1088 38.074 56.4448 36.078 50.8998 36.078V36.078Z" fill="#F94D0D"/>
<path d="M62.2246 58.8997C61.1256 54.6337 59.0976 51.5107 56.0226 49.3527C53.4566 47.5507 50.1426 46.4257 45.8896 45.9127L46.0816 44.3247C50.6026 44.8707 54.1546 46.0867 56.9416 48.0437C60.2936 50.3977 62.5926 53.9157 63.7736 58.5017L62.2246 58.9007V58.8997Z" fill="#F94D0D"/>
<path d="M65.8406 55.3529C64.5396 51.4489 62.5436 48.5019 59.7386 46.3429C56.7246 44.0229 52.7536 42.5769 47.5986 41.9229L47.7996 40.3359C58.2866 41.6669 64.5016 46.2779 67.3576 54.8479L65.8396 55.3539L65.8406 55.3529Z" fill="#F94D0D"/>
<path d="M59.5568 62.3529C57.7958 58.5119 56.2768 55.7529 54.1438 53.8719C51.9898 51.9729 49.1468 50.9509 44.9258 50.5569L45.0738 48.9639C49.6538 49.3909 52.7778 50.5339 55.2018 52.6719C57.5468 54.7399 59.1628 57.6539 61.0108 61.6859L59.5568 62.3529V62.3529Z" fill="#F94D0D"/>
<path d="M70.3406 54.4529C68.8366 49.9419 66.9936 47.0219 64.1766 44.6909C60.8456 41.9339 56.1346 40.0579 49.3516 38.7859L49.6466 37.2129C64.4216 39.9829 69.0996 45.6689 71.8586 53.9459L70.3406 54.4519V54.4529Z" fill="#F94D0D"/>
<path d="M44.2149 56.1527C43.3229 51.5697 43.6639 47.2927 45.2279 43.4397C46.6809 39.8607 49.1709 36.8157 52.4279 34.6357L53.3179 35.9657C50.3269 37.9677 48.0419 40.7607 46.7099 44.0427C45.2639 47.6037 44.9529 51.5757 45.7849 55.8487L44.2139 56.1547L44.2149 56.1527Z" fill="#F94D0D"/>
<path d="M37.9027 56.0737C37.0807 47.1757 40.1576 39.3257 46.1356 35.0747L47.0627 36.3787C41.5557 40.2957 38.7266 47.6027 39.4956 55.9267L37.9027 56.0737V56.0737Z" fill="#F94D0D"/>
<path d="M32.5107 55.2318C32.0507 52.4708 32.3487 49.1458 33.3497 45.8678C34.3667 42.5388 36.0277 39.5488 38.0287 37.4478L39.1867 38.5518C35.4477 42.4768 33.2087 49.6878 34.0887 54.9688L32.5107 55.2318Z" fill="#F94D0D"/>
<path d="M50.0742 55.9432C31.9142 55.9432 17.0802 50.7552 15.4012 45.1742C15.3482 45.1472 15.2952 45.1202 15.2422 45.0932C15.2422 68.0032 26.9422 85.7012 50.3422 85.7012C73.7422 85.7012 85.4422 67.9042 85.4422 44.9932C85.3992 45.0132 85.3572 45.0322 85.3142 45.0512C83.7682 50.6782 68.3672 55.9432 50.0742 55.9432Z" fill="#F94D0D"/>
<path d="M50.3422 86.7002C44.5152 86.7002 39.2082 85.6182 34.5682 83.4852C30.1412 81.4502 26.3292 78.4652 23.2372 74.6132C17.3522 67.2822 14.2422 57.0732 14.2422 45.0922V43.4422L16.2372 44.4812L16.3592 44.8862C17.0742 47.2632 21.0012 49.8102 26.8642 51.6992C33.3532 53.7912 41.5962 54.9432 50.0742 54.9432C58.5522 54.9432 67.0242 53.7752 73.6702 51.6542C79.7042 49.7292 83.6972 47.1612 84.3492 44.7852L84.4732 44.3352L86.4422 43.4292V44.9912C86.4422 56.9802 83.3322 67.2052 77.4482 74.5612C74.3562 78.4272 70.5432 81.4242 66.1182 83.4682C61.4762 85.6122 56.1692 86.6992 50.3422 86.6992V86.7002ZM16.3242 48.3632C16.8352 58.4662 19.7382 67.0592 24.7972 73.3622C27.6932 76.9702 31.2612 79.7642 35.4042 81.6692C39.7802 83.6812 44.8062 84.7012 50.3432 84.7012C55.8802 84.7012 60.9032 83.6762 65.2802 81.6542C69.4222 79.7412 72.9902 76.9352 75.8872 73.3142C80.9392 66.9982 83.8422 58.4052 84.3592 48.3112C82.3382 50.2822 78.8992 52.0862 74.2792 53.5602C67.4412 55.7422 58.8452 56.9432 50.0752 56.9432C41.3052 56.9432 32.9342 55.7572 26.2522 53.6032C21.7152 52.1412 18.3252 50.3382 16.3252 48.3632H16.3242Z" fill="#F94D0D"/>
<path d="M41.8854 63.6997C41.8474 63.6977 41.8094 63.6947 41.7704 63.6887C40.9174 63.5597 40.4894 63.4927 39.6304 63.3537C39.4134 63.3187 39.2094 63.2187 39.0654 63.0777C38.9204 62.9367 38.8474 62.7647 38.8604 62.6007C38.8974 62.1617 38.9164 61.9417 38.9544 61.5037C38.9844 61.1627 39.3834 60.9517 39.8444 61.0297C40.3054 61.1067 40.6504 61.4417 40.6164 61.7797C40.5974 61.9707 40.5874 62.0657 40.5684 62.2567C40.7724 62.2897 40.8754 62.3057 41.0794 62.3377C41.1634 61.5207 41.2074 61.1127 41.2974 60.2977C40.1414 60.1127 38.9874 59.9147 37.8364 59.7047C37.7484 60.7757 37.7064 61.3127 37.6254 62.3887C37.5994 62.7317 37.2104 62.9457 36.7534 62.8637C35.0484 62.5537 33.3474 62.2247 31.6494 61.8757C31.4264 61.8287 31.2134 61.7167 31.0584 61.5617C30.9034 61.4077 30.8194 61.2237 30.8244 61.0537C30.8614 59.9147 30.9004 58.7757 30.9424 57.6367C30.9484 57.4677 31.0464 57.3267 31.2134 57.2457C31.3804 57.1647 31.6034 57.1487 31.8324 57.2017C32.7384 57.4097 33.1904 57.5107 34.0914 57.7027C34.5664 57.8037 34.9334 58.1627 34.9114 58.5077C34.8834 58.9517 34.8694 59.1747 34.8434 59.6197C34.8224 59.9657 34.4274 60.1707 33.9594 60.0757C33.4914 59.9797 33.1244 59.6167 33.1414 59.2677C33.1514 59.0707 33.1554 58.9727 33.1654 58.7767C32.9534 58.7307 32.8474 58.7077 32.6354 58.6617C32.5964 59.5057 32.5774 59.9277 32.5424 60.7757C33.6934 61.0167 34.8474 61.2457 36.0034 61.4627C36.0724 60.3797 36.1094 59.8407 36.1864 58.7637C36.2114 58.4207 36.6144 58.2187 37.0874 58.3097C38.8154 58.6337 40.5454 58.9337 42.2814 59.2107C42.5054 59.2457 42.7124 59.3427 42.8564 59.4807C43.0004 59.6187 43.0684 59.7867 43.0484 59.9487C42.9134 61.0327 42.7824 62.1167 42.6554 63.2017C42.6194 63.5097 42.2874 63.7207 41.8874 63.7027L41.8854 63.6997Z" fill="#FFA38B"/>
<path d="M55.2674 64.039C53.6184 64.082 51.9684 64.099 50.3194 64.1C49.8724 64.1 49.5074 63.823 49.5054 63.484C49.4964 62.42 49.4924 61.888 49.4834 60.824C48.3394 60.813 47.1964 60.795 46.0514 60.768C46.0844 61.589 46.1004 62 46.1324 62.822C46.3354 62.827 46.4364 62.829 46.6394 62.833C46.6324 62.642 46.6294 62.546 46.6224 62.354C46.6104 62.014 46.9714 61.747 47.4284 61.755C47.8854 61.763 48.2614 62.042 48.2684 62.382C48.2774 62.819 48.2814 63.037 48.2904 63.474C48.2974 63.813 47.9404 64.084 47.4934 64.078C46.6454 64.065 46.2204 64.057 45.3714 64.035C44.9234 64.023 44.5454 63.736 44.5264 63.394C44.4664 62.295 44.4064 61.196 44.3474 60.097C44.3284 59.756 44.6924 59.494 45.1584 59.51C46.8784 59.563 48.5964 59.593 50.3164 59.6C50.7824 59.6 51.1584 59.873 51.1564 60.212C51.1494 61.276 51.1454 61.808 51.1384 62.872C52.2614 62.864 53.3834 62.849 54.5054 62.827C54.5364 62.006 54.5524 61.595 54.5834 60.774C54.3764 60.779 54.2734 60.782 54.0664 60.787C54.0604 60.978 54.0564 61.074 54.0504 61.266C54.0394 61.606 53.6594 61.889 53.2034 61.897C52.7474 61.904 52.3824 61.634 52.3884 61.294C52.3964 60.857 52.4004 60.639 52.4084 60.202C52.4144 59.863 52.7974 59.583 53.2634 59.574C54.1474 59.557 54.5894 59.546 55.4744 59.517C55.9404 59.502 56.3044 59.763 56.2864 60.105C56.2284 61.204 56.1704 62.302 56.1114 63.401C56.0934 63.742 55.7154 64.03 55.2674 64.041V64.039Z" fill="#FFA38B"/>
<path d="M58.9146 63.6997C58.5146 63.7177 58.1816 63.5067 58.1466 63.1987C58.0196 62.1137 57.8886 61.0297 57.7536 59.9457C57.7106 59.6097 58.0536 59.2807 58.5206 59.2077C60.2566 58.9307 61.9866 58.6307 63.7146 58.3067C63.9416 58.2627 64.1646 58.2857 64.3336 58.3707C64.5026 58.4557 64.6036 58.5957 64.6156 58.7607C64.6926 59.8377 64.7296 60.3777 64.7986 61.4597C65.9546 61.2427 67.1076 61.0137 68.2586 60.7727C68.2236 59.9247 68.2046 59.5017 68.1656 58.6587C67.9536 58.7047 67.8476 58.7277 67.6356 58.7737C67.6456 58.9697 67.6506 59.0677 67.6596 59.2647C67.6766 59.6137 67.3096 59.9767 66.8416 60.0727C66.3736 60.1687 65.9786 59.9627 65.9576 59.6167C65.9306 59.1717 65.9176 58.9487 65.8896 58.5047C65.8786 58.3387 65.9596 58.1617 66.1126 58.0107C66.2666 57.8597 66.4806 57.7477 66.7096 57.6997C67.6106 57.5077 68.0626 57.4077 68.9686 57.1987C69.1986 57.1457 69.4206 57.1617 69.5876 57.2427C69.7546 57.3237 69.8516 57.4647 69.8586 57.6337C69.9006 58.7727 69.9396 59.9117 69.9766 61.0507C69.9876 61.4057 69.6176 61.7757 69.1526 61.8727C67.4546 62.2207 65.7536 62.5497 64.0486 62.8607C63.8286 62.8997 63.6146 62.8717 63.4506 62.7817C63.2876 62.6927 63.1886 62.5497 63.1756 62.3847C63.0956 61.3087 63.0536 60.7717 62.9646 59.7007C61.8136 59.9117 60.6596 60.1087 59.5036 60.2937C59.5936 61.1087 59.6366 61.5167 59.7216 62.3337C59.9256 62.3017 60.0276 62.2857 60.2326 62.2527C60.2136 62.0617 60.2046 61.9667 60.1846 61.7757C60.1506 61.4367 60.4946 61.1027 60.9566 61.0257C61.4176 60.9487 61.8176 61.1597 61.8466 61.4997C61.8846 61.9387 61.9036 62.1577 61.9406 62.5967C61.9546 62.7607 61.8806 62.9327 61.7356 63.0737C61.5916 63.2147 61.3876 63.3147 61.1706 63.3497C60.3116 63.4897 59.8836 63.5567 59.0306 63.6847C58.9916 63.6907 58.9536 63.6947 58.9156 63.6957L58.9146 63.6997Z" fill="#FFA38B"/>
<path d="M73.1824 60.2617C73.0394 60.2807 72.9024 60.2697 72.7844 60.2297C72.6014 60.1677 72.4784 60.0407 72.4434 59.8767C72.2074 58.7857 71.9654 57.6957 71.7184 56.6077C71.6414 56.2717 71.9634 55.8637 72.4394 55.6897C74.2194 55.0307 75.9844 54.3427 77.7414 53.6237C77.9724 53.5277 78.2084 53.5007 78.3954 53.5497C78.5824 53.5987 78.7064 53.7207 78.7394 53.8877C78.9224 54.8067 79.1014 55.7277 79.2754 56.6487C80.4764 56.1627 81.6704 55.6597 82.8574 55.1397C82.6964 54.2597 82.6164 53.8237 82.4544 52.9577C82.2374 53.0557 82.1294 53.1047 81.9124 53.2017C81.9504 53.4027 81.9694 53.5037 82.0074 53.7057C82.0744 54.0647 81.7374 54.5297 81.2554 54.7377C80.7734 54.9457 80.3284 54.8217 80.2604 54.4677C80.1734 54.0117 80.1294 53.7847 80.0414 53.3317C80.0084 53.1627 80.0694 52.9617 80.2094 52.7707C80.3504 52.5797 80.5594 52.4137 80.7924 52.3107C81.7094 51.9007 82.1694 51.6907 83.0884 51.2567C83.5724 51.0277 84.0194 51.1297 84.0864 51.4917C84.3044 52.6707 84.5184 53.8497 84.7294 55.0297C84.7964 55.4007 84.4574 55.8787 83.9734 56.0897C82.2114 56.8487 80.4394 57.5787 78.6534 58.2817C78.4244 58.3707 78.1924 58.3877 78.0074 58.3297C77.8224 58.2717 77.7004 58.1437 77.6674 57.9747C77.4534 56.8687 77.3454 56.3197 77.1244 55.2327C75.9464 55.7047 74.7624 56.1597 73.5714 56.5987C73.7504 57.4187 73.8384 57.8307 74.0114 58.6597C74.2224 58.5837 74.3284 58.5457 74.5404 58.4677C74.5004 58.2737 74.4804 58.1767 74.4394 57.9827C74.3674 57.6387 74.6934 57.2197 75.1684 57.0407C75.6434 56.8617 76.0874 56.9937 76.1574 57.3407C76.2474 57.7877 76.2924 58.0117 76.3814 58.4617C76.4144 58.6297 76.3554 58.8247 76.2184 59.0037C76.0814 59.1817 75.8764 59.3287 75.6494 59.4117C74.7534 59.7387 74.3074 59.8967 73.4194 60.2057C73.3394 60.2337 73.2594 60.2527 73.1804 60.2627L73.1824 60.2617Z" fill="#FFA38B"/>
<path d="M27.619 60.2618C27.541 60.2518 27.461 60.2328 27.38 60.2048C26.492 59.8958 26.045 59.7368 25.149 59.4108C24.922 59.3278 24.717 59.1808 24.58 59.0028C24.443 58.8248 24.384 58.6288 24.417 58.4608C24.506 58.0108 24.551 57.7868 24.641 57.3398C24.711 56.9928 25.155 56.8618 25.63 57.0398C26.105 57.2188 26.431 57.6378 26.359 57.9818C26.319 58.1758 26.298 58.2728 26.258 58.4668C26.47 58.5438 26.576 58.5828 26.787 58.6588C26.96 57.8288 27.048 57.4168 27.227 56.5978C26.037 56.1588 24.852 55.7038 23.674 55.2318C23.454 56.3188 23.345 56.8668 23.131 57.9738C23.098 58.1428 22.976 58.2708 22.791 58.3288C22.606 58.3868 22.374 58.3698 22.145 58.2808C20.359 57.5778 18.588 56.8478 16.825 56.0888C16.341 55.8778 16.002 55.3998 16.069 55.0288C16.281 53.8488 16.495 52.6698 16.712 51.4908C16.779 51.1288 17.226 51.0278 17.71 51.2558C18.629 51.6898 19.088 51.8998 20.006 52.3098C20.238 52.4138 20.448 52.5788 20.589 52.7698C20.73 52.9608 20.79 53.1628 20.758 53.3308C20.67 53.7838 20.626 54.0108 20.539 54.4668C20.471 54.8208 20.026 54.9448 19.544 54.7368C19.062 54.5288 18.725 54.0638 18.792 53.7048C18.83 53.5028 18.849 53.4018 18.886 53.2008C18.669 53.1038 18.561 53.0548 18.344 52.9568C18.182 53.8228 18.102 54.2588 17.941 55.1388C19.128 55.6588 20.322 56.1618 21.523 56.6478C21.698 55.7268 21.876 54.8068 22.059 53.8868C22.092 53.7198 22.216 53.5978 22.404 53.5488C22.591 53.4998 22.827 53.5268 23.058 53.6228C24.815 54.3418 26.58 55.0298 28.36 55.6888C28.836 55.8628 29.158 56.2708 29.081 56.6068C28.834 57.6958 28.592 58.7848 28.356 59.8758C28.296 60.1578 27.987 60.3088 27.617 60.2608L27.619 60.2618Z" fill="#FFA38B"/>
<path d="M50.0742 56.943C40.8192 56.943 31.9472 55.619 25.0922 53.214C18.0952 50.759 14.2422 47.532 14.2422 44.127C14.2422 40.722 18.0972 37.527 25.0972 35.112C31.9272 32.756 40.7972 31.458 50.0742 31.458C59.3512 31.458 68.3412 32.755 75.3132 35.11C82.4902 37.534 86.4422 40.737 86.4422 44.127C86.4422 47.517 82.4912 50.752 75.3172 53.216C68.3202 55.62 59.3552 56.943 50.0732 56.943H50.0742ZM50.0742 33.457C41.0142 33.457 32.3752 34.716 25.7502 37.002C19.7972 39.056 16.2432 41.719 16.2432 44.126C16.2432 45.55 17.5202 46.857 18.5922 47.702C20.2512 49.01 22.7282 50.264 25.7552 51.326C32.4022 53.658 41.0392 54.943 50.0742 54.943C59.1092 54.943 67.9732 53.624 74.6682 51.324C80.6972 49.253 84.4422 46.495 84.4422 44.126C84.4422 42.717 83.1272 41.422 82.0242 40.584C80.3212 39.291 77.7792 38.052 74.6732 37.003C68.0002 34.749 59.0352 33.456 50.0742 33.456V33.457Z" fill="#F94D0D"/>
</svg>
