<svg width="100" height="100" viewBox="0 0 100 100" fill="none" xmlns="http://www.w3.org/2000/svg">
<path d="M39.6611 67.352C40.4598 66.4001 40.3357 64.9809 39.3838 64.1821C38.4318 63.3834 37.0126 63.5075 36.2139 64.4594L23.704 79.3682C22.9052 80.3201 23.0294 81.7393 23.9813 82.5381C24.9332 83.3368 26.3524 83.2127 27.1512 82.2607L39.6611 67.352Z" fill="white"/>
<path d="M25.4242 84.0637C24.6872 84.0637 23.9452 83.8147 23.3382 83.3047C21.9652 82.1527 21.7862 80.0987 22.9372 78.7257L35.4472 63.8167C36.0052 63.1517 36.7892 62.7437 37.6532 62.6677C38.5182 62.5927 39.3602 62.8577 40.0252 63.4157C41.3982 64.5677 41.5772 66.6217 40.4262 67.9947L27.9162 82.9037C27.2742 83.6687 26.3522 84.0627 25.4242 84.0627V84.0637ZM24.6232 81.7727C25.1512 82.2157 25.9412 82.1467 26.3842 81.6187L38.8942 66.7097C39.3372 66.1817 39.2682 65.3917 38.7402 64.9487C38.2122 64.5057 37.4222 64.5747 36.9792 65.1027L24.4692 80.0117C24.0262 80.5397 24.0952 81.3297 24.6232 81.7727Z" fill="#F94D0D"/>
<path d="M81.25 41.125L54.8214 18.9488C52.7061 17.1738 49.5523 17.4497 47.7773 19.5651L47.263 20.1779C45.488 22.2933 45.764 25.4471 47.8793 27.2221L74.3079 49.3983C76.4232 51.1733 79.577 50.8973 81.352 48.782L81.8663 48.1691C83.6413 46.0538 83.3653 42.9 81.25 41.125Z" fill="#F94D0D"/>
<path d="M77.5113 51.5677C76.1043 51.5677 74.7553 51.0787 73.6653 50.1637L47.2363 27.9877C44.7023 25.8607 44.3703 22.0687 46.4963 19.5347L47.0103 18.9217C48.0403 17.6937 49.4873 16.9407 51.0833 16.8017C52.6793 16.6617 54.2353 17.1527 55.4633 18.1827L81.8923 40.3587C83.1203 41.3887 83.8733 42.8357 84.0123 44.4317C84.1523 46.0287 83.6613 47.5837 82.6313 48.8117L82.1173 49.4247C81.0873 50.6527 79.6403 51.4057 78.0443 51.5457C77.8663 51.5617 77.6883 51.5687 77.5113 51.5687V51.5677ZM51.6133 18.7787C51.4953 18.7787 51.3763 18.7837 51.2573 18.7947C50.1933 18.8877 49.2283 19.3897 48.5413 20.2087L48.0273 20.8217C46.6093 22.5117 46.8303 25.0397 48.5203 26.4567L74.9493 48.6327C75.7683 49.3197 76.8053 49.6457 77.8693 49.5537C78.9333 49.4607 79.8983 48.9587 80.5853 48.1397L81.0993 47.5267C81.7863 46.7077 82.1133 45.6717 82.0203 44.6067C81.9273 43.5427 81.4253 42.5777 80.6063 41.8907L54.1773 19.7147C53.4503 19.1047 52.5513 18.7787 51.6133 18.7787V18.7787Z" fill="#FFA38B"/>
<path d="M81.7864 48.6249C83.7034 46.3403 84.3314 43.7113 83.1891 42.7528C82.0468 41.7943 79.5668 42.8693 77.6498 45.1539C75.7328 47.4385 75.1047 50.0675 76.247 51.0261C77.3893 51.9846 79.8694 50.9095 81.7864 48.6249Z" fill="#FFA38B"/>
<path d="M73.4707 50.396L47.0421 28.2198C44.9268 26.4448 41.773 26.7207 39.998 28.8361L39.4837 29.4489C37.7087 31.5643 37.9847 34.7181 40.1 36.4931L66.5286 58.6693C68.6439 60.4443 71.7977 60.1683 73.5727 58.053L74.087 57.4401C75.862 55.3248 75.586 52.171 73.4707 50.396Z" fill="#F94D0D"/>
<path d="M69.733 60.8392C68.326 60.8392 66.977 60.3502 65.887 59.4352L39.458 37.2592C36.924 35.1322 36.592 31.3402 38.718 28.8062L39.232 28.1932C40.262 26.9652 41.709 26.2122 43.305 26.0732C44.901 25.9332 46.457 26.4242 47.685 27.4542L74.114 49.6302C75.342 50.6602 76.095 52.1072 76.234 53.7032C76.374 55.3002 75.883 56.8552 74.853 58.0832L74.339 58.6962C73.309 59.9242 71.862 60.6772 70.266 60.8172C70.088 60.8332 69.91 60.8402 69.733 60.8402V60.8392ZM43.832 28.0512C42.69 28.0512 41.555 28.5362 40.765 29.4782L40.251 30.0912C38.833 31.7812 39.054 34.3092 40.744 35.7262L67.173 57.9022C67.992 58.5892 69.029 58.9152 70.093 58.8232C71.157 58.7302 72.122 58.2282 72.809 57.4092L73.323 56.7962C74.01 55.9782 74.337 54.9412 74.244 53.8762C74.151 52.8122 73.649 51.8472 72.83 51.1602L46.401 28.9842C45.653 28.3562 44.741 28.0502 43.833 28.0502L43.832 28.0512Z" fill="#FFA38B"/>
<path d="M73.8147 58.1269C75.7317 55.8423 76.3598 53.2132 75.2175 52.2547C74.0752 51.2962 71.5951 52.3712 69.6781 54.6558C67.7611 56.9404 67.133 59.5695 68.2754 60.528C69.4177 61.4865 71.8977 60.4115 73.8147 58.1269Z" fill="#FFA38B"/>
<path d="M65.6923 59.6655L39.2638 37.4893C37.1484 35.7143 33.9947 35.9902 32.2197 38.1056L31.7054 38.7184C29.9304 40.8338 30.2063 43.9876 32.3217 45.7626L58.7502 67.9388C60.8656 69.7138 64.0194 69.4379 65.7944 67.3225L66.3086 66.7097C68.0836 64.5943 67.8077 61.4405 65.6923 59.6655Z" fill="#F94D0D"/>
<path d="M61.9587 70.1058C60.5967 70.1058 59.2287 69.6458 58.1067 68.7048L31.6777 46.5288C29.1437 44.4018 28.8117 40.6098 30.9377 38.0758L31.4517 37.4628C33.5787 34.9288 37.3707 34.5968 39.9047 36.7228L66.3337 58.8988C67.5617 59.9288 68.3147 61.3758 68.4537 62.9718C68.5937 64.5688 68.1027 66.1238 67.0727 67.3518L66.5587 67.9648C65.3737 69.3768 63.6707 70.1058 61.9577 70.1058H61.9587ZM36.0567 37.3198C35.9387 37.3198 35.8197 37.3248 35.7007 37.3358C34.6367 37.4288 33.6717 37.9308 32.9847 38.7498L32.4707 39.3628C31.0527 41.0528 31.2737 43.5808 32.9637 44.9978L59.3927 67.1738C61.0827 68.5918 63.6107 68.3708 65.0277 66.6808L65.5417 66.0678C66.2287 65.2488 66.5557 64.2128 66.4627 63.1478C66.3697 62.0838 65.8677 61.1188 65.0487 60.4318L38.6197 38.2558C37.8927 37.6458 36.9937 37.3198 36.0557 37.3198H36.0567Z" fill="#FFA38B"/>
<path d="M66.2932 67.0898C68.2102 64.8052 68.8383 62.1761 67.696 61.2176C66.5537 60.2591 64.0736 61.3341 62.1566 63.6187C60.2396 65.9033 59.6116 68.5324 60.7539 69.4909C61.8962 70.4494 64.3762 69.3744 66.2932 67.0898Z" fill="#FFA38B"/>
<path d="M57.914 68.9365L31.4855 46.7603C29.3701 44.9853 26.2163 45.2612 24.4413 47.3766L23.9271 47.9894C22.1521 50.1048 22.428 53.2586 24.5434 55.0336L50.9719 77.2098C53.0873 78.9848 56.2411 78.7089 58.0161 76.5935L58.5303 75.9807C60.3053 73.8653 60.0294 70.7115 57.914 68.9365Z" fill="#F94D0D"/>
<path d="M54.1753 79.3798C52.7683 79.3798 51.4193 78.8908 50.3293 77.9758L23.9003 55.7998C21.3663 53.6728 21.0343 49.8808 23.1603 47.3468L23.6743 46.7338C24.7043 45.5058 26.1513 44.7528 27.7473 44.6138C29.3443 44.4738 30.8993 44.9648 32.1273 45.9948L58.5563 68.1708C59.7843 69.2008 60.5373 70.6478 60.6763 72.2438C60.8163 73.8408 60.3253 75.3958 59.2953 76.6238L58.7813 77.2368C57.7513 78.4648 56.3043 79.2178 54.7083 79.3578C54.5303 79.3738 54.3523 79.3808 54.1753 79.3808V79.3798ZM51.6143 76.4438C52.4333 77.1308 53.4703 77.4578 54.5343 77.3648C55.5983 77.2718 56.5633 76.7698 57.2503 75.9508L57.7643 75.3378C58.4513 74.5188 58.7783 73.4828 58.6853 72.4178C58.5923 71.3538 58.0903 70.3888 57.2713 69.7018L30.8423 47.5258C30.0243 46.8388 28.9863 46.5118 27.9223 46.6048C26.8583 46.6978 25.8933 47.1998 25.2063 48.0188L24.6923 48.6318C23.2743 50.3218 23.4963 52.8498 25.1853 54.2668L51.6143 76.4428V76.4438Z" fill="#FFA38B"/>
<path d="M58.1946 76.7412C60.1116 74.4565 60.7396 71.8275 59.5973 70.869C58.455 69.9105 55.975 70.9855 54.058 73.2701C52.141 75.5547 51.5129 78.1838 52.6552 79.1423C53.7975 80.1008 56.2776 79.0258 58.1946 76.7412Z" fill="#FFA38B"/>
</svg>
