<svg width="14" height="14" viewBox="0 0 14 14" fill="none" xmlns="http://www.w3.org/2000/svg">
<path d="M10.1493 12.8334C7.76777 12.8303 5.48462 11.8828 3.80058 10.1988C2.11655 8.51476 1.1691 6.23161 1.16602 3.85003C1.16602 3.13836 1.44872 2.45585 1.95195 1.95262C2.45517 1.4494 3.13768 1.16669 3.84935 1.16669C4.00005 1.16554 4.15049 1.17922 4.29852 1.20753C4.44161 1.2287 4.58229 1.26387 4.71852 1.31253C4.81433 1.34614 4.8997 1.40419 4.9662 1.48092C5.0327 1.55765 5.07802 1.65041 5.09768 1.75003L5.89685 5.25003C5.91839 5.34503 5.9158 5.44391 5.8893 5.53766C5.86281 5.6314 5.81326 5.71702 5.74518 5.78669C5.66935 5.86836 5.66352 5.87419 4.94602 6.24753C5.5206 7.50803 6.52871 8.52028 7.78685 9.10003C8.16602 8.37669 8.17185 8.37086 8.25352 8.29503C8.32319 8.22695 8.40881 8.1774 8.50255 8.15091C8.59629 8.12441 8.69518 8.12182 8.79018 8.14336L12.2902 8.94253C12.3866 8.9649 12.4758 9.01144 12.5492 9.07778C12.6227 9.14411 12.6781 9.22805 12.7102 9.32169C12.7594 9.46015 12.7965 9.60263 12.821 9.74753C12.8445 9.89413 12.8562 10.0424 12.856 10.1909C12.8453 10.8995 12.5546 11.5751 12.0475 12.0702C11.5404 12.5652 10.858 12.8396 10.1493 12.8334Z" fill="#D8412B"/>
</svg>
