<svg width="100" height="100" viewBox="0 0 100 100" fill="none" xmlns="http://www.w3.org/2000/svg">
<path d="M87.97 73.7069C87.97 79.2269 70.688 84.6499 49.948 84.6499C29.208 84.6499 12.502 79.2269 12.502 73.7069C12.502 68.1869 29.208 62.8999 49.948 62.8999C70.688 62.8999 87.97 68.1859 87.97 73.7069V73.7069Z" fill="white"/>
<path d="M49.947 85.6499C40.02 85.6499 30.506 84.4269 23.157 82.2059C18.804 80.8899 11.501 78.0369 11.501 73.7069C11.501 71.9979 12.637 70.3669 14.877 68.8599C16.86 67.5249 19.648 66.3189 23.161 65.2749C30.484 63.0989 39.996 61.8999 49.946 61.8999C59.896 61.8999 69.539 63.0979 77.014 65.2729C80.606 66.3179 83.459 67.5229 85.491 68.8519C87.798 70.3609 88.968 71.9939 88.968 73.7059C88.968 75.4179 87.799 77.0559 85.495 78.5789C83.46 79.9239 80.608 81.1439 77.018 82.2059C69.516 84.4259 59.902 85.6489 49.945 85.6489L49.947 85.6499ZM49.947 63.8999C40.185 63.8999 30.874 65.0689 23.731 67.1919C16.188 69.4339 13.501 72.0269 13.501 73.7069C13.501 75.3869 16.19 78.0109 23.736 80.2909C30.903 82.4569 40.211 83.6499 49.947 83.6499C59.683 83.6499 69.235 82.4249 76.452 80.2899C84.206 77.9949 86.969 75.3849 86.969 73.7069C86.969 72.0289 84.207 69.4489 76.456 67.1939C69.263 65.1009 59.601 63.9009 49.947 63.9009V63.8999Z" fill="#F94D0D"/>
<path d="M81.027 43.489C80.724 43.521 76.847 43.946 76.557 44.009C72.576 44.878 73.383 48.246 73.819 52.392C74.222 56.226 71.858 59.529 75.531 59.965C76.12 60.035 82.107 59.664 82.722 59.599C87.171 59.131 90.398 55.145 89.93 50.696C89.462 46.247 85.476 43.02 81.027 43.488V43.489ZM82.252 55.125C81.943 55.158 78.059 55.527 77.765 55.483C76.179 55.248 76.681 53.778 76.505 52.11C76.329 50.442 75.533 49.108 77.035 48.548C77.313 48.444 81.189 47.997 81.498 47.964C83.475 47.756 85.247 49.19 85.455 51.167C85.663 53.144 84.229 54.916 82.252 55.124V55.125Z" fill="white"/>
<path d="M75.7927 60.9718C75.6187 60.9718 75.4887 60.9678 75.4127 60.9588C74.2977 60.8258 73.5137 60.4468 73.0167 59.7998C72.2137 58.7538 72.4167 57.3408 72.6327 55.8438C72.7797 54.8198 72.9467 53.6598 72.8247 52.4968C72.7847 52.1148 72.7417 51.7408 72.6987 51.3738C72.4847 49.5198 72.2817 47.7688 72.6437 46.3298C73.0887 44.5568 74.2997 43.4788 76.3437 43.0318C76.7307 42.9478 80.8807 42.4988 80.9227 42.4938C85.9137 41.9688 90.3997 45.6008 90.9257 50.5918C91.4507 55.5818 87.8177 60.0688 82.8277 60.5948C82.3697 60.6428 77.3477 60.9718 75.7927 60.9718V60.9718ZM75.6417 58.9718C76.2647 59.0158 81.9417 58.6768 82.6177 58.6058C86.5107 58.1958 89.3457 54.6948 88.9357 50.8018C88.5257 46.9088 85.0237 44.0738 81.1317 44.4838C80.5267 44.5478 77.1267 44.9238 76.7607 44.9888C74.2657 45.5368 74.2097 47.0298 74.6857 51.1448C74.7287 51.5178 74.7727 51.8998 74.8137 52.2878C74.9627 53.6988 74.7767 54.9908 74.6127 56.1298C74.4587 57.1968 74.3137 58.2048 74.6037 58.5828C74.7887 58.8238 75.2687 58.9278 75.6417 58.9728V58.9718ZM77.8097 56.4808C77.7237 56.4808 77.6587 56.4778 77.6177 56.4718C75.5707 56.1688 75.5597 54.4338 75.5517 53.2858C75.5497 52.9348 75.5467 52.5718 75.5097 52.2138C75.4717 51.8558 75.3987 51.5008 75.3277 51.1568C75.0957 50.0328 74.7457 48.3338 76.6847 47.6108C77.1637 47.4318 81.3507 46.9738 81.3927 46.9698C83.9147 46.7048 86.1837 48.5408 86.4487 51.0628C86.5777 52.2848 86.2227 53.4838 85.4487 54.4388C84.6757 55.3938 83.5767 55.9908 82.3547 56.1188C82.3167 56.1228 78.7747 56.4808 77.8077 56.4808H77.8097ZM77.9067 54.4928C77.9067 54.4928 77.9097 54.4928 77.9107 54.4928C77.9097 54.4928 77.9077 54.4928 77.9067 54.4928ZM77.3417 49.5008C77.1587 49.5748 77.1507 49.6178 77.1447 49.6558C77.1067 49.8808 77.1987 50.3238 77.2867 50.7528C77.3637 51.1258 77.4507 51.5488 77.4987 52.0048C77.5467 52.4608 77.5497 52.8928 77.5517 53.2728C77.5547 53.7108 77.5577 54.1628 77.6407 54.3748C77.6547 54.4108 77.6707 54.4518 77.8657 54.4858C78.3947 54.4828 81.6047 54.1858 82.1457 54.1298C82.8367 54.0568 83.4577 53.7198 83.8947 53.1798C84.3317 52.6398 84.5327 51.9628 84.4597 51.2718C84.3097 49.8458 83.0287 48.8088 81.6017 48.9578C81.0607 49.0148 77.8597 49.3928 77.3407 49.4998L77.3417 49.5008Z" fill="#F94D0D"/>
<path d="M49.8419 75.997C70.5389 75.997 80.8869 59.637 80.8869 39.373C59.4549 49.253 38.7019 49.754 18.7969 39.373C18.7969 59.637 29.1449 75.997 49.8419 75.997Z" fill="white"/>
<path d="M49.8419 76.997C39.7659 76.997 31.4419 73.16 25.7699 65.9C23.1479 62.544 21.1319 58.516 19.7779 53.928C18.4629 49.473 17.7969 44.576 17.7969 39.374C17.7969 39.024 17.9799 38.7 18.2789 38.519C18.5779 38.338 18.9499 38.326 19.2599 38.487C28.9009 43.515 38.9949 46.037 49.2629 45.971C59.2959 45.91 69.7949 43.385 80.4679 38.465C80.7779 38.322 81.1389 38.347 81.4259 38.531C81.7129 38.715 81.8869 39.032 81.8869 39.373C81.8869 44.576 81.2199 49.472 79.9059 53.927C78.5519 58.515 76.5359 62.543 73.9139 65.899C68.2419 73.159 59.9179 76.996 49.8419 76.996V76.997ZM19.8199 41.013C19.9449 45.412 20.5739 49.559 21.6959 53.361C22.9779 57.707 24.8789 61.511 27.3459 64.668C29.9049 67.944 33.0489 70.485 36.6899 72.221C40.5519 74.063 44.9769 74.996 49.8419 74.996C54.7069 74.996 59.1309 74.062 62.9939 72.221C66.6349 70.485 69.7789 67.944 72.3379 64.668C74.8049 61.511 76.7049 57.707 77.9879 53.361C79.1169 49.536 79.7469 45.361 79.8669 40.931C69.4279 45.543 59.1429 47.911 49.2759 47.971C49.1489 47.971 49.0199 47.972 48.8929 47.972C38.9549 47.972 29.1849 45.633 19.8219 41.014L19.8199 41.013Z" fill="#F94D0D"/>
<path d="M80.8869 39.2258C80.8869 44.4978 66.6679 49.6768 49.6049 49.6768C32.5419 49.6768 18.7969 44.4978 18.7969 39.2258C18.7969 33.9538 32.5409 28.9048 49.6049 28.9048C66.6689 28.9048 80.8869 33.9538 80.8869 39.2258Z" fill="white"/>
<path d="M49.6049 50.6768C41.4069 50.6768 33.5459 49.5028 27.4709 47.3718C21.2329 45.1828 17.7969 42.2898 17.7969 39.2258C17.7969 36.1618 21.2339 33.2958 27.4759 31.1428C33.5289 29.0548 41.3879 27.9048 49.6049 27.9048C57.8219 27.9048 65.7869 29.0538 71.9649 31.1408C78.3629 33.3018 81.8869 36.1738 81.8869 39.2258C81.8869 42.2778 78.3649 45.1768 71.9699 47.3738C65.7699 49.5038 57.8269 50.6768 49.6049 50.6768V50.6768ZM49.6049 29.9048C41.6039 29.9048 33.9769 31.0158 28.1289 33.0338C22.9899 34.8068 19.7979 37.1798 19.7979 39.2258C19.7979 40.4388 20.9039 41.5658 21.8319 42.2978C23.2889 43.4478 25.4679 44.5498 28.1349 45.4848C34.0019 47.5438 41.6279 48.6768 49.6059 48.6768C57.5839 48.6768 65.4109 47.5128 71.3209 45.4828C76.6049 43.6678 79.8879 41.2698 79.8879 39.2258C79.8879 37.1818 76.6069 34.8198 71.3259 33.0358C65.4359 31.0458 57.5189 29.9048 49.6059 29.9048H49.6049Z" fill="#F94D0D"/>
<path d="M23.042 43.8029C27.893 47.0789 37.949 49.5929 49.617 49.5929C61.285 49.5929 71.69 47.0489 76.641 43.7459C75.918 38.8419 63.934 34.2739 49.64 34.2739C35.346 34.2739 23.659 38.8769 23.042 43.8029V43.8029Z" fill="#F94D0D"/>
<path d="M49.6167 50.5929C38.4957 50.5929 27.8447 48.2529 22.4817 44.6309L21.9727 44.2869L22.0487 43.6779C22.4027 40.8559 25.5257 38.2189 30.8437 36.2529C36.0407 34.3319 42.7157 33.2739 49.6387 33.2739C56.5617 33.2739 63.2737 34.3239 68.5677 36.2299C73.9987 38.1859 77.2177 40.8029 77.6297 43.5999L77.7217 44.2259L77.1947 44.5769C71.7177 48.2309 60.8917 50.5929 49.6157 50.5929H49.6167ZM24.1787 43.3429C26.5187 44.7669 29.9677 46.0379 33.9947 46.9509C38.7327 48.0249 44.1347 48.5929 49.6177 48.5929C55.1007 48.5929 60.6177 48.0189 65.4547 46.9319C69.5747 46.0069 73.0997 44.7249 75.4877 43.2919C74.7637 41.4889 72.0027 39.5909 67.8917 38.1109C62.8107 36.2809 56.3287 35.2729 49.6407 35.2729C42.9527 35.2729 36.5197 36.2869 31.5387 38.1279C27.5217 39.6129 24.8447 41.5239 24.1787 43.3419V43.3429Z" fill="#F94D0D"/>
<path d="M25.099 42.1932C25.597 41.5472 26.225 41.0132 26.874 40.5272C27.923 39.7512 29.094 39.1382 30.29 38.6412L31.013 38.3522L31.748 38.1032C31.96 38.0312 32.273 37.9262 32.489 37.8722C32.738 37.8062 33.362 37.6182 33.611 37.5702C33.863 37.5122 34.487 37.3752 34.744 37.3172L36.266 37.0572C37.58 36.8842 37.906 38.7532 36.603 39.0312C36.568 39.0372 36.522 39.0422 36.486 39.0452L35.05 39.1912C34.803 39.2292 34.218 39.3192 33.982 39.3552C33.57 39.4182 32.98 39.5562 32.572 39.6382C32.357 39.6952 31.756 39.8542 31.532 39.9132C30.291 40.2992 29.045 40.7752 27.937 41.4482C27.291 41.8302 26.673 42.2742 26.145 42.8062L26.051 42.9072L26.007 42.9542C25.486 43.4862 24.667 42.8002 25.099 42.1932V42.1932Z" fill="#FFA38B"/>
<path d="M68.6642 38.0588C71.2762 38.7408 74.8012 40.6368 72.4392 43.6808C70.1942 46.3438 64.5672 46.7698 61.2742 47.0838C60.5372 47.1218 60.4252 46.0668 61.1612 45.9548C64.0002 45.5958 69.4262 45.0158 71.2742 42.7538C71.8212 41.9948 71.8602 41.4728 71.0692 40.8608C70.3082 40.2808 69.3292 39.9248 68.4002 39.6698C68.3832 39.6638 68.2732 39.6398 68.2572 39.6348C67.2132 39.3298 67.6002 37.8228 68.6632 38.0598L68.6642 38.0588Z" fill="#FFA38B"/>
<path d="M49.7704 54.8338C39.7494 54.8338 29.6164 52.5858 19.6494 48.1498L20.0564 47.2358C29.8944 51.6138 39.8924 53.8338 49.7714 53.8338H49.8414C59.6974 53.8238 69.7194 51.6038 79.6314 47.2358L80.0344 48.1508C69.9954 52.5748 59.8364 54.8238 49.8424 54.8338H49.7714H49.7704Z" fill="#F94D0D"/>
<path d="M49.7704 58.6009C39.7494 58.6009 29.6164 56.3519 19.6484 51.9169L20.0554 51.0029C29.8934 55.3809 39.8914 57.6009 49.7704 57.6009C49.7944 57.6009 49.8164 57.6009 49.8404 57.6009C59.6964 57.5909 69.7184 55.3709 79.6304 51.0029L80.0334 51.9179C69.9944 56.3419 59.8354 58.5909 49.8414 58.6009C49.8184 58.6009 49.7934 58.6009 49.7704 58.6009V58.6009Z" fill="#F94D0D"/>
</svg>
