<svg width="14" height="14" viewBox="0 0 14 14" fill="none" xmlns="http://www.w3.org/2000/svg">
<path d="M10.1493 12.8332C7.76777 12.8301 5.48462 11.8827 3.80058 10.1987C2.11655 8.51464 1.1691 6.23148 1.16602 3.8499C1.16602 3.13824 1.44872 2.45572 1.95195 1.9525C2.45517 1.44928 3.13768 1.16657 3.84935 1.16657C4.00005 1.16542 4.15049 1.1791 4.29852 1.2074C4.44161 1.22858 4.58229 1.26375 4.71852 1.3124C4.81433 1.34602 4.8997 1.40407 4.9662 1.4808C5.0327 1.55753 5.07802 1.65029 5.09768 1.7499L5.89685 5.2499C5.91839 5.34491 5.9158 5.44379 5.8893 5.53754C5.86281 5.63128 5.81326 5.7169 5.74518 5.78657C5.66935 5.86824 5.66352 5.87407 4.94602 6.2474C5.5206 7.5079 6.52871 8.52016 7.78685 9.0999C8.16602 8.37657 8.17185 8.37074 8.25352 8.2949C8.32319 8.22682 8.40881 8.17728 8.50255 8.15078C8.59629 8.12429 8.69518 8.1217 8.79018 8.14324L12.2902 8.9424C12.3866 8.96478 12.4758 9.01132 12.5492 9.07765C12.6227 9.14399 12.6781 9.22793 12.7102 9.32157C12.7594 9.46003 12.7965 9.60251 12.821 9.7474C12.8445 9.89401 12.8562 10.0423 12.856 10.1907C12.8453 10.8994 12.5546 11.575 12.0475 12.07C11.5404 12.5651 10.858 12.8395 10.1493 12.8332Z" fill="#959595"/>
</svg>
