<svg width="24" height="24" viewBox="0 0 24 24" fill="none" xmlns="http://www.w3.org/2000/svg">
<path d="M16.2008 9.60002C16.2008 11.9196 14.3204 13.8 12.0008 13.8C9.68119 13.8 7.80078 11.9196 7.80078 9.60002C7.80078 7.28043 9.68119 5.40002 12.0008 5.40002C14.3204 5.40002 16.2008 7.28043 16.2008 9.60002Z" fill="#BDBDBD"/>
<path d="M12 2C9.89206 1.99989 7.86926 2.83176 6.37124 4.31479C4.87323 5.79782 4.02108 7.81216 4 9.92C4 15.4 11.05 21.5 11.35 21.76C11.5311 21.9149 11.7616 22.0001 12 22.0001C12.2384 22.0001 12.4689 21.9149 12.65 21.76C13 21.5 20 15.4 20 9.92C19.9789 7.81216 19.1268 5.79782 17.6288 4.31479C16.1307 2.83176 14.1079 1.99989 12 2ZM12 13C11.3078 13 10.6311 12.7947 10.0555 12.4101C9.47993 12.0256 9.03133 11.4789 8.76642 10.8394C8.50151 10.1999 8.4322 9.49612 8.56725 8.81718C8.7023 8.13825 9.03564 7.51461 9.52513 7.02513C10.0146 6.53564 10.6383 6.2023 11.3172 6.06725C11.9961 5.9322 12.6999 6.00152 13.3394 6.26642C13.9789 6.53133 14.5256 6.97993 14.9101 7.5555C15.2947 8.13108 15.5 8.80777 15.5 9.5C15.5 10.4283 15.1313 11.3185 14.4749 11.9749C13.8185 12.6313 12.9283 13 12 13Z" fill="#282828"/>
<path fill-rule="evenodd" clip-rule="evenodd" d="M12 2C9.89206 1.99989 7.86926 2.83176 6.37124 4.31479C4.87323 5.79782 4.02108 7.81216 4 9.92C4 15.3904 11.0255 21.4787 11.3484 21.7586L11.35 21.76C11.5311 21.9149 11.7616 22.0001 12 22.0001C12.2384 22.0001 12.4689 21.9149 12.65 21.76C13 21.5 20 15.4 20 9.92C19.9789 7.81216 19.1268 5.79782 17.6288 4.31479C16.1307 2.83176 14.1079 1.99989 12 2ZM18.8 9.92598C18.7805 8.1365 18.0564 6.42674 16.7845 5.16757C15.5112 3.907 13.7918 3.19991 12.0001 3.2H11.9999C10.2082 3.19991 8.48881 3.90699 7.2155 5.16757C5.94362 6.42673 5.21949 8.13647 5.2 9.92593C5.20262 12.222 6.72075 14.8318 8.49832 17.0463C10.0046 18.9229 11.5421 20.328 12.0042 20.7376C12.0586 20.6911 12.1448 20.6162 12.2636 20.5094C12.4757 20.3185 12.7648 20.0497 13.1045 19.7155C13.7851 19.0459 14.659 18.1233 15.5192 17.0479C17.2889 14.8355 18.7974 12.2245 18.8 9.92598ZM12 14.2C11.0704 14.2 10.1617 13.9244 9.38882 13.4079C8.61591 12.8915 8.0135 12.1574 7.65777 11.2986C7.30203 10.4398 7.20896 9.49479 7.39031 8.58307C7.57166 7.67136 8.01929 6.8339 8.6766 6.1766C9.3339 5.51929 10.1714 5.07166 11.0831 4.89031C11.9948 4.70896 12.9398 4.80203 13.7986 5.15777C14.6574 5.5135 15.3915 6.11591 15.9079 6.88882C16.4244 7.66173 16.7 8.57043 16.7 9.5C16.7 10.7465 16.2048 11.942 15.3234 12.8234C14.442 13.7048 13.2465 14.2 12 14.2ZM10.0555 12.4101C10.6311 12.7947 11.3078 13 12 13C12.9283 13 13.8185 12.6313 14.4749 11.9749C15.1313 11.3185 15.5 10.4283 15.5 9.5C15.5 8.80777 15.2947 8.13108 14.9101 7.5555C14.5256 6.97993 13.9789 6.53133 13.3394 6.26642C12.6999 6.00152 11.9961 5.9322 11.3172 6.06725C10.6382 6.2023 10.0146 6.53564 9.52513 7.02513C9.03564 7.51461 8.7023 8.13825 8.56725 8.81718C8.4322 9.49612 8.50151 10.1999 8.76642 10.8394C9.03133 11.4789 9.47993 12.0256 10.0555 12.4101Z" fill="#282828"/>
</svg>
