<svg width="24" height="24" viewBox="0 0 24 24" fill="none" xmlns="http://www.w3.org/2000/svg">
<path d="M5.03335 18.9494C5.5414 18.8605 6.06209 18.6692 6.61749 18.4949C7.47269 18.2267 8.3277 17.9217 9.11303 17.7328C9.2577 17.6981 9.40844 17.7005 9.5532 17.7349L14.6667 18.9495C15.511 19.1306 16.3483 18.7885 17.2842 18.4949C17.862 18.3137 18.4398 18.1156 18.996 17.948C19.5765 17.773 20 17.2584 20 16.6631V6.07539C20 5.4801 19.5694 4.96824 18.9644 5.01965C18.2916 5.07682 17.5723 5.24723 17.0596 5.37699C16.4201 5.53883 15.6806 5.8815 14.9681 6.19264C14.7727 6.278 14.5548 6.29607 14.3473 6.24678L9.33332 5.05582C8.48898 4.87469 7.19074 5.17506 6.39289 5.37699C5.89452 5.50313 5.33536 5.7391 4.77559 5.98439C4.30514 6.19054 4 6.64963 4 7.15476V17.9299C4 18.5252 4.4355 19.054 5.03335 18.9494Z" fill="#FEB0A2"/>
<path fill-rule="evenodd" clip-rule="evenodd" d="M7.95448 5.81479C7.46423 5.88667 6.97073 6.00436 6.5769 6.10403C6.14768 6.21266 5.64316 6.42303 5.0766 6.67129C4.87153 6.76116 4.75 6.9554 4.75 7.15472V17.9299C4.75 18.0524 4.79641 18.1435 4.83658 18.1859C4.85443 18.2047 4.86651 18.2097 4.8697 18.2108L4.86985 18.2109C4.8714 18.2114 4.88022 18.2147 4.90408 18.2106C5.24134 18.1516 5.57572 18.043 5.9828 17.9109C6.11148 17.8691 6.24743 17.825 6.39302 17.7793C6.61574 17.7094 6.84583 17.6345 7.07933 17.5584C7.69932 17.3563 8.34341 17.1465 8.93772 17.0036C9.20571 16.9392 9.47622 16.9457 9.72653 17.0051L14.8312 18.2177C15.1033 18.2746 15.4015 18.2549 15.7726 18.1694C16.0552 18.1042 16.3327 18.014 16.6546 17.9093C16.7817 17.868 16.9157 17.8244 17.0597 17.7793C17.2823 17.7095 17.5187 17.6325 17.7584 17.5545C18.103 17.4423 18.454 17.328 18.7796 17.2299L18.996 17.948L18.7796 17.2299C19.0817 17.1388 19.25 16.889 19.25 16.6631V6.07535C19.25 5.95452 19.2058 5.86479 19.1613 5.81729C19.1253 5.77877 19.0876 5.76185 19.0279 5.76692C18.4216 5.81844 17.7541 5.97481 17.2436 6.10403C16.7501 6.22893 16.1789 6.47998 15.5417 6.76001C15.4519 6.79949 15.3607 6.83955 15.2683 6.87992C14.9205 7.03179 14.5362 7.06248 14.1739 6.97644L9.1689 5.7876C8.88124 5.72759 8.4566 5.74116 7.95448 5.81479ZM7.73686 4.33066C8.29025 4.24951 8.93404 4.20307 9.49063 4.32247L9.50664 4.32609L14.5206 5.51705C14.5733 5.52957 14.6249 5.52412 14.668 5.50529C14.7534 5.46799 14.841 5.42937 14.9303 5.39C15.549 5.11725 16.25 4.80819 16.8756 4.64988L17.0589 5.3742L16.8756 4.64988C17.3904 4.51957 18.1617 4.33512 18.9009 4.2723C20.0512 4.17455 20.75 5.15661 20.75 6.07535V16.6631C20.75 17.6277 20.0713 18.4072 19.2125 18.666C18.8908 18.763 18.5791 18.8647 18.256 18.97C18.0161 19.0483 17.7699 19.1286 17.5086 19.2105C17.4017 19.2441 17.2901 19.2804 17.1755 19.3176C16.8321 19.4293 16.4616 19.5498 16.1096 19.631C15.6202 19.7439 15.0796 19.8051 14.5094 19.6828L14.4934 19.6791L9.37987 18.4645C9.34065 18.4552 9.3097 18.4569 9.28835 18.462C8.75557 18.5901 8.20023 18.7711 7.60325 18.9656C7.35702 19.0459 7.1037 19.1284 6.84196 19.2105C6.73603 19.2438 6.62579 19.2797 6.51243 19.3166C6.08573 19.4556 5.61474 19.609 5.16263 19.6881C4.59351 19.7877 4.08855 19.5768 3.74839 19.2183C3.42135 18.8736 3.25 18.4026 3.25 17.9299V7.15472C3.25 6.34378 3.73875 5.61985 4.47457 5.29741C5.02756 5.05509 5.64135 4.79351 6.20887 4.64988C6.6129 4.54762 7.16744 4.41415 7.73686 4.33066Z" fill="#D7412C"/>
<path d="M14.9901 19L9.32575 17.7945C9.21869 17.7717 9.10931 17.7594 9 17.7588V5.15968C9 5.10583 9.00381 5.05251 9.01125 5L14.5269 6.17384C14.6827 6.207 14.8426 6.21715 15 6.2043V18.8495C15 18.9001 14.9967 18.9504 14.9901 19Z" fill="white"/>
<path fill-rule="evenodd" clip-rule="evenodd" d="M8.58145 4.38537C8.75183 4.26623 8.96402 4.22316 9.16737 4.26643L14.683 5.44027C14.7674 5.45824 14.8542 5.46371 14.939 5.45679C15.1478 5.43974 15.3542 5.51083 15.5083 5.65282C15.6624 5.79482 15.75 5.99479 15.75 6.20431V18.8495C15.75 18.9331 15.7445 19.0161 15.7337 19.0978C15.7065 19.3052 15.5938 19.4918 15.423 19.6125C15.2521 19.7332 15.0386 19.7771 14.834 19.7336L9.16963 18.5281L9.32575 17.7945L9.16962 18.5281C9.11046 18.5155 9.05187 18.5091 8.99545 18.5088C8.58302 18.5063 8.25 18.1712 8.25 17.7588V5.15968C8.25 5.07039 8.25632 4.98195 8.26865 4.89487C8.29779 4.68902 8.41108 4.50451 8.58145 4.38537ZM9.75 5.92402V17.118L14.25 18.0757V6.88172L9.75 5.92402Z" fill="#D7412C"/>
</svg>
