<svg width="100" height="100" viewBox="0 0 100 100" fill="none" xmlns="http://www.w3.org/2000/svg">
<path d="M50.0996 80.3002C74.6763 80.3002 94.5996 69.4207 94.5996 56.0002C94.5996 42.5797 74.6763 31.7002 50.0996 31.7002C25.5229 31.7002 5.59961 42.5797 5.59961 56.0002C5.59961 69.4207 25.5229 80.3002 50.0996 80.3002Z" fill="white"/>
<path d="M50.0996 81.3002C38.0486 81.3002 26.7035 78.7291 18.1541 74.0606C13.9456 71.7624 10.6322 69.0744 8.30606 66.0712C5.84668 62.896 4.59961 59.5076 4.59961 56.0002C4.59961 52.4928 5.84668 49.1044 8.30606 45.9292C10.6322 42.926 13.9456 40.2379 18.1541 37.9398C26.7035 33.2713 38.0486 30.7002 50.0996 30.7002C62.1506 30.7002 73.4957 33.2713 82.0451 37.9398C86.2536 40.2379 89.567 42.926 91.8932 45.9292C94.3526 49.1044 95.5996 52.4928 95.5996 56.0002C95.5996 59.5076 94.3526 62.896 91.8932 66.0712C89.567 69.0744 86.2536 71.7624 82.0451 74.0606C73.4957 78.7291 62.1506 81.3002 50.0996 81.3002ZM50.0996 32.7002C38.3778 32.7002 27.3732 35.1844 19.1126 39.6952C15.1475 41.8604 12.0437 44.3699 9.88722 47.1539C7.70577 49.9703 6.59962 52.9467 6.59962 56.0002C6.59962 59.0537 7.70577 62.0301 9.88722 64.8465C12.0437 67.6305 15.1475 70.1401 19.1126 72.3052C27.3732 76.816 38.3778 79.3002 50.0996 79.3002C61.8214 79.3002 72.8261 76.816 81.0866 72.3052C85.0518 70.1401 88.1556 67.6305 90.312 64.8465C92.4935 62.0301 93.5996 59.0537 93.5996 56.0002C93.5996 52.9467 92.4935 49.9703 90.312 47.1539C88.1556 44.3699 85.0518 41.8604 81.0866 39.6952C72.8261 35.1844 61.8214 32.7002 50.0996 32.7002Z" fill="#F94D0D"/>
<path d="M89.5962 55.9499C89.613 60.1572 86.903 63.7884 83.7382 66.3096C71.9498 75.3359 52.7306 76.7279 38.4562 74.5781C30.115 73.2255 20.4913 70.3748 14.498 64.1225C12.4303 61.9137 10.909 59.0331 10.9299 55.9499C10.9191 51.8163 13.5986 48.2477 16.7114 45.7744C25.7435 38.7909 38.9714 36.6092 50.1505 36.5498C61.2918 36.5907 74.6846 38.6753 83.7139 45.6203C86.8918 48.1268 89.6047 51.7412 89.5962 55.9499L89.5962 55.9499ZM88.0962 55.9499C88.0352 50.1861 82.7347 46.1168 78.0732 43.6155C73.8355 41.3807 69.2017 39.9305 64.5139 38.9643C59.7922 37.9967 54.9682 37.5644 50.1505 37.5499C39.1979 37.6097 26.1821 39.7044 17.3508 46.5674C14.4864 48.8652 11.9669 52.1271 11.9799 55.9499C11.9755 58.7654 13.3998 61.3731 15.2948 63.3822C21.1152 69.3941 30.5606 72.119 38.638 73.3919C52.4727 75.4616 71.441 73.9487 82.8018 65.1482C85.6152 62.8941 88.1028 59.7038 88.0962 55.9499L88.0962 55.9499Z" fill="#F94D0D"/>
<path d="M32.3996 39.1999C32.3996 39.1999 20.0996 43.7999 20.0996 52.9999C20.0996 63.5018 32.2075 64.455 34.4996 64.0999C41.5996 62.9999 40.9996 60.2999 44.9996 59.6999C48.9996 59.0999 48.8996 61.3999 54.1996 59.7999C56.8283 59.0063 64.5996 59.3999 67.0996 54.2999C69.5996 49.1999 71.3996 43.6999 65.5996 40.3999C59.7996 37.0999 51.8996 36.1999 45.1996 36.4999C37.9895 36.8227 32.3996 39.1999 32.3996 39.1999Z" fill="#FFA38B"/>
<path d="M33.5393 64.7559C31.1609 64.756 26.4011 64.0548 23.1089 61.2333C20.7142 59.1809 19.5 56.4108 19.5 52.9998C19.5 49.0415 21.7099 45.2964 25.8906 42.1693C28.9309 39.8952 31.9275 38.737 32.1772 38.6425C32.5452 38.4873 38.0342 36.22 45.1731 35.9004C48.838 35.7363 52.5258 35.9465 55.8378 36.5082C59.7477 37.1713 63.1319 38.3052 65.8967 39.8783C68.706 41.4767 70.1075 43.7665 70.0624 46.684C70.0211 49.355 68.8141 52.1663 67.6388 54.5638C65.5796 58.7645 60.3082 59.4773 56.82 59.949C55.8109 60.0854 54.9394 60.2033 54.3734 60.3742C51.1728 61.3404 49.7948 60.9471 48.4625 60.5668C47.5418 60.3038 46.6723 60.0557 45.089 60.2931C43.5182 60.5288 42.748 61.1008 41.7729 61.8251C40.4427 62.8131 38.7871 64.0427 34.5919 64.6927C34.3392 64.7318 33.98 64.7559 33.5392 64.7559H33.5393ZM32.6104 39.7617C32.5803 39.773 29.5585 40.9188 26.5867 43.1472C22.6806 46.0762 20.7 49.3911 20.7 52.9998C20.7 56.0446 21.7731 58.5082 23.8898 60.3221C27.5078 63.4228 33.1376 63.7043 34.4081 63.5068C38.31 62.9023 39.7696 61.8182 41.0574 60.8617C42.0788 60.1031 43.0436 59.3865 44.911 59.1064C46.751 58.8303 47.7887 59.1264 48.7919 59.4129C50.0113 59.7609 51.1636 60.0897 54.0266 59.2254C54.6841 59.0269 55.5994 58.9031 56.6593 58.7598C60.0881 58.2962 64.784 57.6612 66.5612 54.0357C67.6128 51.8905 68.8247 49.1142 68.8626 46.6655C68.901 44.1848 67.7367 42.3058 65.3033 40.9213C62.6606 39.4177 59.4085 38.331 55.6372 37.6914C52.4078 37.1436 48.8083 36.9389 45.2269 37.0992C38.2183 37.413 32.6897 39.7287 32.6346 39.752L32.6104 39.7617V39.7617Z" fill="#F94D0D"/>
<path d="M53.7004 45.95C53.7004 49.1809 49.7157 50.7 44.8004 50.7C39.8851 50.7 35.9004 49.1809 35.9004 45.95C35.9004 42.7191 39.8851 39 44.8004 39C49.7157 39 53.7004 42.7191 53.7004 45.95Z" fill="#F94D10"/>
<path d="M37.6996 45.2999C37.6249 45.2999 37.5492 45.2813 37.4794 45.242C37.263 45.1203 37.1861 44.8463 37.3077 44.6298C37.3766 44.5069 39.0297 41.6108 41.8722 40.7686C42.1108 40.6981 42.361 40.834 42.4315 41.0723C42.5021 41.3105 42.3662 41.5609 42.1279 41.6315C39.6408 42.3684 38.1074 45.0438 38.0922 45.0708C38.0095 45.2174 37.8568 45.2999 37.6996 45.2999V45.2999Z" fill="#FFA38B"/>
<path d="M66.0004 35.5001C66.2444 34.3156 67.6004 32.9001 70.2004 33.1001C72.8004 33.3001 76.9473 34.8461 79.0004 41.4001C80.0498 44.7501 80.2609 48.406 80.1004 50.6001C79.8004 54.7001 78.6004 58.2001 74.8004 62.6001C69.2419 69.0362 65.1004 66.8001 63.5004 65.2001C62.4492 64.1489 62.7004 61.4001 63.2004 60.6001C63.7004 59.8001 68.5274 55.1001 69.2639 52.4501C70.0004 49.8001 70.0004 44.8001 68.3004 42.2001C66.6004 39.6001 65.6431 37.2346 66.0004 35.5001Z" fill="#F94D10"/>
<path d="M61.2909 34.6703C61.9744 33.6726 64.4801 32.3089 66.7999 33.4998C69.1198 34.6907 71.4292 38.5427 70.7851 45.3805C70.4559 48.8756 69.7152 51.6123 68.7229 54.1673C67.2567 57.9425 64.8194 61.0155 58.9143 63.064C49.0127 66.4988 47.7999 62.5998 47.4888 61.087C47.1893 59.6309 47.5999 57.8998 48.9929 56.7295C50.4751 55.4841 55.2999 53.7998 57.7385 51.5621C59.7651 49.7025 60.9999 45.7998 60.8179 41.7382C60.6789 38.6349 60.2899 36.1312 61.2909 34.6703V34.6703Z" fill="#F94D10"/>
<path d="M64.7224 59.7119C64.5542 59.7119 64.3871 59.6417 64.2685 59.5046C64.0516 59.254 64.0788 58.8751 64.3294 58.6583C64.368 58.6247 68.2516 55.1897 69.4851 49.2251C70.7069 43.3166 67.9413 39.1805 67.9133 39.1394C67.7266 38.8662 67.796 38.4929 68.0689 38.3057C68.3419 38.1183 68.7144 38.1871 68.9021 38.4595C69.0288 38.6435 71.9899 43.0376 70.6602 49.468C69.3409 55.8472 65.2867 59.4167 65.1147 59.5655C65.0013 59.6637 64.8614 59.7119 64.7224 59.7119L64.7224 59.7119Z" fill="#FFA38B"/>
</svg>
