<svg width="100" height="100" viewBox="0 0 100 100" fill="none" xmlns="http://www.w3.org/2000/svg">
<path d="M20.543 68.741C20.543 62.778 33.84 63.207 50.243 63.207C66.646 63.207 79.943 62.778 79.943 68.741C79.943 74.704 74.7 84.8 50.243 84.8C25.786 84.8 20.543 74.703 20.543 68.741V68.741Z" fill="#EA9079"/>
<path d="M50.243 85.7999C39.345 85.7999 31.102 83.7839 25.744 79.8089C20.148 75.6569 19.543 70.6849 19.543 68.7399C19.543 67.5209 19.984 66.4629 20.853 65.5949C22.493 63.9579 25.565 63.0249 30.815 62.5719C35.319 62.1829 41.062 62.1929 47.143 62.2029C48.162 62.2049 49.196 62.2069 50.242 62.2069C51.288 62.2069 52.323 62.2049 53.341 62.2029C59.422 62.1929 65.166 62.1829 69.669 62.5719C74.919 63.0259 77.991 63.9579 79.631 65.5949C80.501 66.4629 80.941 67.5209 80.941 68.7399C80.941 70.5729 80.49 72.4629 79.638 74.2039C78.599 76.3259 76.992 78.2109 74.862 79.8059C69.549 83.7829 61.266 85.7989 50.241 85.7989L50.243 85.7999ZM44.269 64.1999C39.31 64.1999 34.696 64.2449 30.987 64.5649C26.367 64.9639 23.515 65.7639 22.266 67.0109C21.772 67.5039 21.543 68.0529 21.543 68.7399C21.543 70.3819 22.068 74.5919 26.935 78.2029C29.219 79.8969 32.159 81.2289 35.673 82.1619C39.765 83.2479 44.667 83.7989 50.242 83.7989C60.825 83.7989 68.705 81.9169 73.664 78.2049C75.538 76.8019 76.944 75.1599 77.842 73.3249C78.751 71.4679 78.942 69.8069 78.942 68.7399C78.942 68.0529 78.712 67.5029 78.219 67.0109C76.97 65.7639 74.117 64.9639 69.498 64.5649C65.082 64.1829 59.381 64.1939 53.345 64.2029C52.325 64.2049 51.29 64.2069 50.243 64.2069C49.196 64.2069 48.16 64.2049 47.14 64.2029C46.173 64.2009 45.214 64.1999 44.269 64.1999Z" fill="#F94D10"/>
<path d="M17.1914 65.9002C17.1914 70.4002 20.9514 71.4722 21.6914 71.3002C22.5374 71.1032 22.6094 69.6032 23.4914 69.5002C24.5944 69.3712 24.9254 71.6662 27.0914 73.1002C28.6374 74.1242 30.7514 74.4662 32.4914 74.0002C34.5074 73.4602 34.6144 72.2112 36.0914 72.2002C37.8434 72.1872 38.0654 73.9402 40.5914 74.9002C40.9724 75.0452 43.6314 76.0142 45.9914 74.9002C47.9164 73.9912 47.8844 72.5262 49.5914 72.2002C50.6154 72.0042 51.4754 72.3702 53.1914 73.1002C55.2194 73.9622 55.3464 74.5182 56.7914 74.9002C57.4584 75.0762 58.9284 75.4652 60.3914 74.9002C62.6014 74.0462 62.6214 71.8562 64.8914 71.3002C65.2504 71.2122 65.9354 71.0442 66.6914 71.3002C68.1794 71.8032 68.0594 73.3092 69.3914 74.0002C70.7324 74.6962 72.7954 74.1762 73.8914 73.1002C74.9664 72.0442 74.5824 70.9722 75.6914 70.4002C76.7604 69.8492 78.1414 70.3162 78.3914 70.4002C79.4754 70.7662 79.5234 71.2772 80.1914 71.3002C81.4104 71.3412 82.4734 69.6792 82.8914 68.6002C83.0404 68.2162 83.7204 66.4592 82.8914 65.0002C82.2244 63.8252 80.8924 63.3962 80.1914 63.2002C38.2504 51.4592 20.7844 63.2002 20.7844 63.2002C19.8914 63.2002 17.1914 64.1002 17.1914 65.9002V65.9002Z" fill="white"/>
<path d="M43.4734 76.4311C41.9784 76.4311 40.7264 76.0211 40.2364 75.8341C38.8364 75.3021 38.0264 74.5361 37.4344 73.9771C36.8254 73.4011 36.5864 73.1991 36.1114 73.1991C36.1074 73.1991 36.1034 73.1991 36.0984 73.1991C35.7184 73.2021 35.5564 73.3201 35.1024 73.6941C34.6154 74.0951 33.9484 74.6441 32.7494 74.9651C30.7064 75.5121 28.3264 75.1171 26.5384 73.9331C25.2824 73.1021 24.5724 72.0361 24.0534 71.2581C23.9114 71.0451 23.7314 70.7751 23.5934 70.6081C23.5364 70.6981 23.4744 70.8071 23.4264 70.8921C23.1594 71.3641 22.7544 72.0781 21.9164 72.2731C21.1884 72.4431 19.7494 72.0941 18.5154 71.1141C17.4544 70.2721 16.1904 68.6831 16.1904 65.8991C16.1904 63.5301 19.0354 62.3791 20.4644 62.2191C21.5194 61.5801 26.0154 59.1201 34.6084 57.8081C40.2614 56.9451 46.5454 56.7561 53.2874 57.2491C61.6874 57.8621 70.8294 59.5411 80.4604 62.2371C81.0514 62.4031 82.8524 62.9061 83.7604 64.5061C84.4454 65.7131 84.4684 67.2951 83.8234 68.9611C83.3324 70.2301 82.0034 72.3591 80.1564 72.2991C79.4994 72.2771 79.1124 71.9821 78.8304 71.7661C78.6254 71.6101 78.4494 71.4751 78.0704 71.3471C77.3004 71.0871 76.5824 71.0651 76.1494 71.2881C75.9224 71.4051 75.8624 71.5211 75.6794 72.0131C75.4984 72.4991 75.2514 73.1651 74.5914 73.8131C73.3054 75.0751 70.7764 75.8451 68.9304 74.8871C68.0594 74.4351 67.6424 73.7511 67.3084 73.2021C66.9774 72.6591 66.7994 72.3921 66.3704 72.2471C65.8904 72.0851 65.4324 72.1971 65.1294 72.2711C64.2824 72.4781 63.8854 72.9891 63.3344 73.6961C62.7694 74.4211 62.0674 75.3241 60.7514 75.8321C58.9864 76.5141 57.2694 76.0601 56.5354 75.8661C55.6214 75.6241 55.1214 75.3071 54.5914 74.9721C54.1634 74.7011 53.6784 74.3941 52.7984 74.0191C51.0924 73.2941 50.4674 73.0491 49.7774 73.1811C49.2454 73.2831 49.0194 73.5251 48.5594 74.0641C48.0974 74.6061 47.5214 75.2811 46.4164 75.8031C45.4234 76.2721 44.4004 76.4301 43.4714 76.4301L43.4734 76.4311ZM36.1114 71.1991C37.4074 71.1991 38.1514 71.9021 38.8084 72.5231C39.3554 73.0401 39.9204 73.5741 40.9474 73.9641C41.3804 74.1291 43.6394 74.9041 45.5654 73.9941C46.2814 73.6561 46.6504 73.2241 47.0404 72.7661C47.5654 72.1511 48.1594 71.4541 49.4044 71.2161C50.7274 70.9631 51.8024 71.4201 53.5824 72.1781C54.6124 72.6161 55.1954 72.9851 55.6634 73.2821C56.1424 73.5861 56.4324 73.7691 57.0474 73.9321C57.6394 74.0891 58.8714 74.4141 60.0314 73.9661C60.8304 73.6581 61.2594 73.1061 61.7564 72.4671C62.4014 71.6391 63.1314 70.7001 64.6534 70.3281C65.0844 70.2221 65.9804 70.0031 67.0114 70.3521C68.1484 70.7361 68.6494 71.5601 69.0164 72.1611C69.3104 72.6441 69.4944 72.9261 69.8514 73.1111C70.7424 73.5731 72.3334 73.2271 73.1904 72.3851C73.5324 72.0491 73.6584 71.7091 73.8054 71.3161C74.0124 70.7581 74.2964 69.9931 75.2324 69.5101C76.4904 68.8611 77.9514 69.1951 78.7114 69.4511C79.4024 69.6841 79.7894 69.9801 80.0454 70.1751C80.1034 70.2191 80.1804 70.2781 80.2154 70.2981C80.2184 70.2981 80.2214 70.2981 80.2254 70.2981C80.2294 70.2981 80.2334 70.2981 80.2364 70.2981C80.7134 70.2981 81.5454 69.3031 81.9584 68.2361C82.3824 67.1411 82.4044 66.1661 82.0214 65.4911C81.5714 64.6991 80.6074 64.3521 79.9214 64.1601C70.4184 61.5001 61.4094 59.8451 53.1424 59.2411C46.5504 58.7601 40.4164 58.9421 34.9114 59.7831C25.6314 61.2001 21.3844 63.9991 21.3424 64.0271L21.0894 64.1971H20.7844C20.1764 64.1971 18.1914 64.9221 18.1914 65.8971C18.1914 67.3481 18.6324 68.5011 19.5034 69.3231C20.2574 70.0361 21.1084 70.2811 21.4344 70.3111C21.5084 70.2201 21.6134 70.0341 21.6874 69.9041C21.9784 69.3911 22.4174 68.6151 23.3754 68.5031C24.5334 68.3681 25.1624 69.3131 25.7184 70.1461C26.1894 70.8531 26.7234 71.6541 27.6434 72.2631C28.9484 73.1271 30.7494 73.4281 32.2324 73.0311C33.0124 72.8221 33.4104 72.4941 33.8324 72.1481C34.3424 71.7281 34.9774 71.2061 36.0844 71.1971C36.0934 71.1971 36.1024 71.1971 36.1114 71.1971V71.1991Z" fill="#F94D10"/>
<path d="M74.5432 66.7999C74.5432 66.7999 63.7272 68.5999 49.3272 68.5999C36.7272 68.5999 25.9432 66.7999 25.9432 66.7999C22.3272 65.8999 18.7432 63.5759 18.7432 59.5999C18.7432 55.6239 21.9672 52.3999 25.9432 52.3999H74.5432C78.5192 52.3999 81.7432 55.6239 81.7432 59.5999C81.7432 63.5759 78.1272 65.8999 74.5432 66.7999Z" fill="#F94D10"/>
<path d="M46.9297 61.499C37.8087 58.534 16.9688 53.35 16.9688 53.35L49.2938 33.5L83.5188 53.35C83.5188 53.35 61.2978 57.901 51.4498 61.432C49.9918 61.955 48.4037 61.978 46.9307 61.499H46.9297Z" fill="white"/>
<path d="M49.0897 62.8401C48.2547 62.8401 47.4187 62.7101 46.6197 62.4511C37.6367 59.5311 16.9347 54.3731 16.7257 54.3211C16.3347 54.2241 16.0407 53.9011 15.9787 53.5031C15.9167 53.1051 16.1007 52.7091 16.4437 52.4981L48.7687 32.6481C49.0817 32.4561 49.4757 32.4511 49.7937 32.6351L84.0187 52.4851C84.3777 52.6931 84.5707 53.1021 84.5037 53.5111C84.4367 53.9211 84.1237 54.2461 83.7177 54.3301C83.4967 54.3751 61.4537 58.9071 51.7857 62.3741C50.9197 62.6851 50.0047 62.8401 49.0897 62.8401V62.8401ZM47.2387 60.5491C48.4947 60.9571 49.8697 60.9371 51.1107 60.4921C59.0377 57.6491 74.6087 54.2161 80.7587 52.9081L49.3067 34.6661L19.5147 52.9611C25.2077 54.4011 39.9857 58.1921 47.2377 60.5501L47.2387 60.5491Z" fill="#F94D0D"/>
<path d="M77.0338 49.6998C77.0338 49.6998 61.9428 53.2998 50.3428 53.2998C40.3428 53.2998 23.4518 49.6998 23.4518 49.6998C22.8388 49.6998 22.3428 49.2028 22.3428 48.5908V45.4088C22.3428 44.7958 22.8398 44.2998 23.4518 44.2998C23.4518 44.2998 43.0428 47.8998 50.3428 47.8998C57.6428 47.8998 77.0338 44.2998 77.0338 44.2998C77.6468 44.2998 78.1428 44.7968 78.1428 45.4088V48.5908C78.1428 49.2038 77.6458 49.6998 77.0338 49.6998Z" fill="#F94D10"/>
<path d="M81.7432 41.413C81.7432 49.363 67.6402 48.791 50.2432 48.791C32.8462 48.791 18.7432 49.363 18.7432 41.413C18.7432 33.463 26.6182 20 50.2432 20C73.8682 20 81.7432 33.462 81.7432 41.413Z" fill="#EA9079"/>
<path d="M56.6711 49.8C55.6431 49.8 54.5961 49.798 53.5301 49.796C52.4501 49.794 51.3531 49.791 50.2441 49.791C49.1351 49.791 48.0381 49.793 46.9581 49.796C33.8821 49.825 23.5531 49.846 19.5241 45.825C18.3431 44.647 17.7451 43.162 17.7451 41.413C17.7451 39.134 18.3301 36.672 19.4381 34.291C20.7051 31.568 22.5671 29.107 24.9731 26.976C27.7281 24.536 31.1131 22.619 35.0341 21.281C39.4681 19.767 44.5861 19 50.2461 19C55.9061 19 61.0241 19.768 65.4581 21.281C69.3781 22.619 72.7631 24.535 75.5191 26.976C77.9251 29.107 79.7871 31.568 81.0541 34.291C82.1621 36.671 82.7471 39.134 82.7471 41.413C82.7471 43.162 82.1481 44.646 80.9681 45.825C77.2671 49.518 68.2521 49.801 56.6751 49.801L56.6711 49.8ZM50.2431 47.791C51.3541 47.791 52.4521 47.793 53.5341 47.796C65.6481 47.823 76.1091 47.844 79.5511 44.409C80.3531 43.609 80.7431 42.628 80.7431 41.413C80.7431 39.424 80.2221 37.253 79.2371 35.135C78.0871 32.662 76.3881 30.421 74.1901 28.474C67.2161 22.297 57.3191 21.001 50.2441 21.001C43.1691 21.001 33.2721 22.298 26.2981 28.474C24.0991 30.421 22.4011 32.663 21.2511 35.135C20.2661 37.253 19.7451 39.424 19.7451 41.413C19.7451 42.629 20.1351 43.609 20.9371 44.409C24.3791 47.844 34.8411 47.822 46.9541 47.796C48.0361 47.794 49.1331 47.791 50.2451 47.791H50.2431Z" fill="#F94D10"/>
<path d="M39.4195 35.84C38.8235 36.635 38.0175 37.038 37.6195 36.74C37.2215 36.442 37.3835 35.555 37.9795 34.76C38.3795 34.227 39.0525 34.004 39.4525 33.915C39.6335 33.875 39.8065 34.004 39.8185 34.189C39.8455 34.598 39.8195 35.306 39.4195 35.84V35.84Z" fill="white"/>
<path d="M49.5389 29.326C49.1779 30.252 48.5109 30.857 48.0469 30.677C47.5829 30.497 47.5009 29.6 47.8609 28.673C48.1029 28.052 48.6909 27.656 49.0519 27.463C49.2149 27.376 49.4169 27.454 49.4779 27.629C49.6139 28.016 49.7799 28.705 49.5379 29.326H49.5389Z" fill="white"/>
<path d="M61.4903 34.4689C61.9663 35.3419 61.9983 36.2419 61.5613 36.4799C61.1243 36.7179 60.3853 36.2029 59.9093 35.3299C59.5903 34.7449 59.6673 34.0399 59.7523 33.6389C59.7913 33.4579 59.9803 33.3539 60.1533 33.4199C60.5363 33.5649 61.1703 33.8829 61.4893 34.4679L61.4903 34.4689Z" fill="white"/>
<path d="M61.5442 27.6009C61.9392 28.3259 61.9842 29.0629 61.6442 29.2489C61.3042 29.4349 60.7082 28.9969 60.3132 28.2729C60.0732 27.8329 60.0882 27.3209 60.1362 26.9859C60.1652 26.7869 60.3752 26.6729 60.5582 26.7559C60.8662 26.8969 61.3052 27.1629 61.5442 27.6019V27.6009Z" fill="white"/>
<path d="M29.344 37.201C29.739 37.926 29.784 38.663 29.444 38.849C29.104 39.035 28.508 38.597 28.113 37.873C27.873 37.433 27.888 36.921 27.936 36.586C27.965 36.387 28.175 36.273 28.358 36.356C28.666 36.497 29.105 36.763 29.344 37.202V37.201Z" fill="white"/>
<path d="M50.5364 40.1242C50.6694 39.3092 51.0874 38.7002 51.4694 38.7622C51.8514 38.8242 52.0535 39.5352 51.9205 40.3502C51.8395 40.8442 51.5134 41.2402 51.2694 41.4752C51.1244 41.6142 50.8885 41.5752 50.7955 41.3972C50.6385 41.0972 50.4554 40.6182 50.5364 40.1242V40.1242Z" fill="white"/>
<path d="M35.28 27.2989C35.795 26.6539 36.457 26.3259 36.76 26.5679C37.063 26.8099 36.891 27.5279 36.377 28.1739C36.065 28.5649 35.587 28.7509 35.259 28.8369C35.065 28.8879 34.877 28.7379 34.883 28.5369C34.893 28.1979 34.968 27.6909 35.28 27.2999V27.2989Z" fill="white"/>
<path d="M72.336 37.2119C71.895 36.5149 71.802 35.7809 72.129 35.5739C72.456 35.3669 73.079 35.7639 73.521 36.4619C73.789 36.8849 73.808 37.3969 73.781 37.7349C73.765 37.9349 73.562 38.0629 73.375 37.9919C73.058 37.8709 72.603 37.6349 72.336 37.2119Z" fill="white"/>
</svg>
