<svg width="100" height="100" viewBox="0 0 100 100" fill="none" xmlns="http://www.w3.org/2000/svg">
<path d="M84.9459 50.9002C85.3159 50.5702 85.5498 50.0882 85.5498 49.5502C85.5498 48.7882 85.0818 48.1382 84.4218 47.8762C84.4168 47.8422 84.4129 47.8082 84.4069 47.7752C84.5669 47.5052 84.6608 47.1892 84.6608 46.8512C84.6608 46.1002 84.2068 45.4572 83.5608 45.1872C79.3708 37.1492 62.4448 36.9982 45.3228 44.9482C30.2829 51.9312 20.0159 62.8802 19.9569 71.1772C18.8759 71.3412 18.0479 72.2752 18.0479 73.4012C18.0479 74.1592 18.4229 74.8282 18.9969 75.2362C18.9659 75.3692 18.9479 75.5082 18.9479 75.6512C18.9479 76.6452 19.7429 77.4512 20.7239 77.4512C21.2269 77.4512 21.6799 77.2382 22.0029 76.8982C22.0509 76.9542 22.0979 77.0102 22.1469 77.0642C21.8169 77.3912 21.6119 77.8462 21.6119 78.3502C21.6119 79.3442 22.4069 80.1502 23.3879 80.1502C24.0579 80.1502 24.6409 79.7742 24.9439 79.2182C25.0179 79.2582 25.0929 79.2972 25.1689 79.3362C25.2139 80.2902 25.9889 81.0502 26.9409 81.0502C27.3069 81.0502 27.6479 80.9372 27.9299 80.7452C28.1729 81.4462 28.8299 81.9502 29.6049 81.9502C29.9709 81.9502 30.3119 81.8372 30.5939 81.6452C30.8369 82.3462 31.4939 82.8502 32.2689 82.8502C33.1379 82.8502 33.8609 82.2162 34.0139 81.3802C34.0349 81.3802 34.0558 81.3822 34.0768 81.3832C34.2308 82.2182 34.9529 82.8502 35.8209 82.8502C36.6889 82.8502 37.4298 82.2002 37.5708 81.3492C37.7218 81.3412 37.8739 81.3312 38.0259 81.3212C38.3519 81.7062 38.8339 81.9502 39.3729 81.9502C40.0369 81.9502 40.6149 81.5802 40.9199 81.0332C41.0619 81.0142 41.2049 80.9952 41.3469 80.9752C41.6419 81.5542 42.2369 81.9512 42.9249 81.9512C43.6999 81.9512 44.3569 81.4472 44.5999 80.7462C44.8829 80.9392 45.2229 81.0512 45.5889 81.0512C46.3639 81.0512 47.0209 80.5472 47.2639 79.8462C47.5469 80.0392 47.8868 80.1512 48.2528 80.1512C48.9798 80.1512 49.6028 79.7082 49.8778 79.0752C50.1398 78.9962 50.4028 78.9152 50.6668 78.8322C50.9748 79.0932 51.3719 79.2512 51.8049 79.2512C52.6469 79.2512 53.3509 78.6562 53.5329 77.8592C53.6829 77.8042 53.8329 77.7482 53.9839 77.6922C54.3099 78.0942 54.8039 78.3502 55.3569 78.3502C56.3379 78.3502 57.1329 77.5442 57.1329 76.5502C57.1329 76.5112 57.1299 76.4722 57.1269 76.4342C57.1719 76.4152 57.2169 76.3962 57.2619 76.3762C57.4919 76.4872 57.7489 76.5502 58.0209 76.5502C58.8259 76.5502 59.5048 76.0072 59.7228 75.2622C59.8908 75.1822 60.0589 75.1022 60.2259 75.0212C60.5519 75.4052 61.0338 75.6502 61.5728 75.6502C62.5538 75.6502 63.3488 74.8442 63.3488 73.8502C64.1238 73.8502 64.7808 73.3462 65.0238 72.6452C65.3068 72.8382 65.6469 72.9502 66.0129 72.9502C66.9939 72.9502 67.7889 72.1442 67.7889 71.1502C68.5639 71.1502 69.2209 70.6462 69.4639 69.9452C69.7469 70.1382 70.0869 70.2502 70.4529 70.2502C71.4339 70.2502 72.2288 69.4442 72.2288 68.4502C72.2288 68.1912 72.1739 67.9462 72.0769 67.7242C72.2059 67.6242 72.3328 67.5232 72.4598 67.4222C72.6628 67.5042 72.8838 67.5502 73.1158 67.5502C73.7798 67.5502 74.3578 67.1802 74.6618 66.6332C74.7368 66.6432 74.8138 66.6502 74.8918 66.6502C75.8728 66.6502 76.6678 65.8442 76.6678 64.8502C76.6678 64.7712 76.6609 64.6942 76.6519 64.6172C77.1919 64.3082 77.5558 63.7222 77.5558 63.0502C77.5558 62.9712 77.5489 62.8942 77.5389 62.8172C77.5429 62.8132 77.5469 62.8092 77.5509 62.8042C77.8129 62.9592 78.1178 63.0492 78.4428 63.0492C79.4238 63.0492 80.2189 62.2432 80.2189 61.2492C81.1999 61.2492 81.9949 60.4432 81.9949 59.4492C81.9949 59.0782 81.8838 58.7332 81.6938 58.4462C82.3858 58.2002 82.8829 57.5342 82.8829 56.7492C82.8829 56.4342 82.8028 56.1382 82.6618 55.8802C82.6688 55.8662 82.6769 55.8512 82.6839 55.8372C82.7489 55.8442 82.8149 55.8492 82.8829 55.8492C83.8639 55.8492 84.6589 55.0432 84.6589 54.0492C84.6589 53.9702 84.6518 53.8932 84.6428 53.8162C85.1828 53.5072 85.5468 52.9212 85.5468 52.2492C85.5468 51.7112 85.3128 51.2292 84.9428 50.8992L84.9459 50.9002Z" fill="white"/>
<path d="M35.822 83.65C35.14 83.65 34.512 83.38 34.046 82.933C33.58 83.38 32.952 83.65 32.27 83.65C31.471 83.65 30.734 83.276 30.254 82.667C30.044 82.722 29.826 82.75 29.606 82.75C28.807 82.75 28.07 82.376 27.59 81.767C27.38 81.822 27.162 81.85 26.942 81.85C26 81.85 25.173 81.34 24.725 80.573C24.329 80.815 23.869 80.95 23.39 80.95C21.97 80.95 20.814 79.784 20.814 78.35C20.814 78.316 20.814 78.282 20.816 78.248C20.786 78.249 20.756 78.25 20.726 78.25C19.306 78.25 18.15 77.084 18.15 75.65C18.15 75.621 18.15 75.592 18.152 75.564C17.581 74.996 17.25 74.217 17.25 73.4C17.25 72.138 18.044 71.017 19.18 70.564C19.437 66.441 21.997 61.658 26.446 57.016C31.106 52.154 37.691 47.61 44.988 44.222C62.421 36.128 79.519 36.31 84.145 44.583C84.954 45.039 85.462 45.899 85.462 46.851C85.462 47.076 85.433 47.298 85.376 47.514C85.983 47.997 86.35 48.738 86.35 49.551C86.35 50.031 86.217 50.498 85.974 50.901C86.217 51.304 86.35 51.771 86.35 52.251C86.35 53.012 86.017 53.729 85.457 54.218C85.389 55.3 84.661 56.205 83.677 56.526C83.684 56.601 83.687 56.676 83.687 56.751C83.687 57.557 83.316 58.3 82.713 58.785C82.77 59.001 82.799 59.224 82.799 59.451C82.799 60.638 82.007 61.642 80.928 61.952C80.624 63.046 79.627 63.851 78.447 63.851C78.376 63.851 78.306 63.848 78.236 63.842C78.092 64.296 77.826 64.704 77.466 65.018C77.384 66.315 76.356 67.357 75.072 67.445C74.568 68.036 73.814 68.379 73.029 68.349C73.03 68.383 73.031 68.417 73.031 68.451C73.031 69.885 71.875 71.051 70.455 71.051C70.234 71.051 70.017 71.023 69.807 70.968C69.473 71.392 69.014 71.702 68.497 71.852C68.193 72.947 67.196 73.752 66.016 73.752C65.795 73.752 65.578 73.724 65.368 73.669C65.034 74.093 64.575 74.403 64.058 74.553C63.754 75.648 62.757 76.453 61.577 76.453C61.1 76.453 60.64 76.32 60.241 76.075C59.784 76.85 58.943 77.353 58.025 77.353C57.955 77.353 57.885 77.35 57.815 77.344C57.483 78.392 56.508 79.153 55.361 79.153C54.883 79.153 54.424 79.021 54.027 78.778C53.575 79.555 52.744 80.053 51.809 80.053C51.361 80.053 50.923 79.935 50.538 79.714C50.503 79.725 50.467 79.736 50.432 79.747C49.964 80.491 49.147 80.954 48.258 80.954C48.037 80.954 47.82 80.926 47.61 80.871C47.13 81.48 46.393 81.854 45.594 81.854C45.373 81.854 45.156 81.826 44.946 81.771C44.466 82.38 43.73 82.754 42.93 82.754C42.255 82.754 41.624 82.491 41.153 82.037C40.68 82.491 40.047 82.754 39.378 82.754C38.902 82.754 38.442 82.621 38.044 82.377C37.593 83.151 36.764 83.654 35.826 83.654L35.822 83.65ZM34.014 80.58C34.025 80.58 34.037 80.58 34.048 80.58L34.107 80.583C34.481 80.597 34.796 80.869 34.864 81.237C34.951 81.708 35.354 82.049 35.822 82.049C36.29 82.049 36.703 81.699 36.782 81.218C36.843 80.848 37.153 80.571 37.527 80.55C37.675 80.542 37.824 80.532 37.973 80.522C38.226 80.505 38.473 80.61 38.637 80.803C38.823 81.023 39.092 81.149 39.374 81.149C39.723 81.149 40.048 80.955 40.222 80.642C40.345 80.421 40.566 80.271 40.817 80.238C40.957 80.22 41.097 80.2 41.237 80.18C41.574 80.133 41.906 80.305 42.061 80.609C42.23 80.942 42.562 81.148 42.926 81.148C43.338 81.148 43.707 80.88 43.845 80.481C43.926 80.246 44.113 80.061 44.349 79.983C44.585 79.905 44.845 79.941 45.051 80.081C45.211 80.19 45.397 80.247 45.59 80.247C46.001 80.247 46.371 79.979 46.509 79.58C46.59 79.345 46.777 79.16 47.013 79.082C47.249 79.003 47.509 79.04 47.715 79.18C47.875 79.289 48.061 79.346 48.254 79.346C48.639 79.346 48.989 79.113 49.146 78.751C49.24 78.535 49.424 78.371 49.65 78.304C49.909 78.226 50.168 78.146 50.429 78.064C50.691 77.981 50.977 78.039 51.186 78.217C51.309 78.322 51.517 78.446 51.807 78.446C52.261 78.446 52.652 78.129 52.755 77.676C52.816 77.412 53.006 77.196 53.26 77.103C53.382 77.058 53.505 77.013 53.627 76.967L53.706 76.938C54.028 76.818 54.39 76.917 54.607 77.184C54.794 77.414 55.068 77.546 55.359 77.546C55.897 77.546 56.335 77.097 56.335 76.546C56.335 76.534 56.334 76.521 56.333 76.508L56.331 76.48C56.31 76.142 56.503 75.828 56.814 75.695L56.948 75.637C57.161 75.545 57.402 75.55 57.611 75.651C57.743 75.714 57.881 75.746 58.023 75.746C58.45 75.746 58.834 75.453 58.957 75.034C59.021 74.815 59.175 74.634 59.382 74.536C59.549 74.457 59.714 74.377 59.88 74.297C60.209 74.138 60.603 74.221 60.839 74.5C61.025 74.72 61.294 74.846 61.576 74.846C62.114 74.846 62.552 74.397 62.552 73.846C62.552 73.404 62.91 73.046 63.352 73.046C63.764 73.046 64.133 72.778 64.271 72.379C64.352 72.144 64.539 71.959 64.775 71.881C65.012 71.803 65.271 71.839 65.477 71.979C65.637 72.088 65.823 72.145 66.016 72.145C66.554 72.145 66.992 71.696 66.992 71.145C66.992 70.703 67.35 70.345 67.792 70.345C68.204 70.345 68.573 70.077 68.711 69.678C68.792 69.443 68.979 69.258 69.215 69.18C69.452 69.101 69.711 69.138 69.917 69.278C70.077 69.387 70.263 69.444 70.456 69.444C70.994 69.444 71.432 68.995 71.432 68.444C71.432 68.304 71.403 68.167 71.347 68.037C71.201 67.702 71.301 67.311 71.589 67.086C71.702 66.998 71.814 66.91 71.925 66.821L71.967 66.788C72.192 66.609 72.496 66.565 72.763 66.673C72.879 66.72 72.999 66.743 73.12 66.743C73.469 66.743 73.794 66.549 73.968 66.237C74.127 65.951 74.445 65.791 74.771 65.833C74.823 65.84 74.863 65.843 74.897 65.843C75.435 65.843 75.873 65.394 75.873 64.843C75.873 64.807 75.87 64.765 75.863 64.712C75.822 64.391 75.978 64.077 76.259 63.916C76.569 63.739 76.761 63.404 76.761 63.043C76.761 63.007 76.758 62.965 76.751 62.912C76.721 62.676 76.797 62.439 76.959 62.265L76.978 62.245C77.236 61.98 77.646 61.921 77.964 62.109C78.115 62.198 78.278 62.243 78.449 62.243C78.987 62.243 79.425 61.794 79.425 61.243C79.425 60.801 79.783 60.443 80.225 60.443C80.763 60.443 81.201 59.994 81.201 59.443C81.201 59.242 81.143 59.048 81.033 58.882C80.897 58.677 80.863 58.42 80.941 58.187C81.019 57.954 81.2 57.769 81.432 57.686C81.825 57.546 82.089 57.167 82.089 56.743C82.089 56.571 82.047 56.407 81.966 56.257C81.839 56.024 81.836 55.743 81.958 55.507L81.981 55.462C82.134 55.169 82.451 55 82.78 55.036C82.822 55.041 82.857 55.043 82.889 55.043C83.427 55.043 83.865 54.594 83.865 54.043C83.865 54.007 83.862 53.965 83.855 53.912C83.814 53.591 83.97 53.277 84.251 53.116C84.561 52.939 84.753 52.604 84.753 52.243C84.753 51.955 84.63 51.681 84.416 51.49C84.246 51.338 84.149 51.121 84.149 50.893C84.149 50.665 84.246 50.448 84.416 50.296C84.63 50.105 84.753 49.831 84.753 49.543C84.753 49.128 84.508 48.763 84.13 48.612C83.864 48.506 83.675 48.266 83.634 47.983L83.621 47.891C83.592 47.707 83.628 47.519 83.723 47.359C83.817 47.2 83.865 47.026 83.865 46.842C83.865 46.434 83.626 46.07 83.257 45.916C83.084 45.844 82.943 45.714 82.856 45.548C80.97 41.931 76.153 39.912 69.29 39.863C69.206 39.863 69.122 39.863 69.038 39.863C62.021 39.863 53.733 41.919 45.664 45.665C38.544 48.971 32.13 53.392 27.604 58.115C23.219 62.69 20.789 67.328 20.762 71.174C20.759 71.567 20.471 71.9 20.082 71.959C19.381 72.066 18.853 72.682 18.853 73.392C18.853 73.86 19.082 74.303 19.465 74.575C19.73 74.763 19.855 75.093 19.781 75.409C19.762 75.489 19.753 75.567 19.753 75.642C19.753 76.193 20.191 76.642 20.729 76.642C20.994 76.642 21.242 76.534 21.428 76.338C21.584 76.174 21.8 76.084 22.028 76.089C22.254 76.095 22.467 76.195 22.615 76.367L22.653 76.411C22.684 76.447 22.715 76.483 22.747 76.519C23.034 76.836 23.02 77.323 22.717 77.624C22.525 77.814 22.419 78.07 22.419 78.342C22.419 78.893 22.857 79.342 23.395 79.342C23.748 79.342 24.075 79.145 24.248 78.828C24.459 78.44 24.945 78.297 25.333 78.508C25.392 78.54 25.452 78.571 25.512 78.603L25.544 78.62C25.797 78.752 25.961 79.008 25.974 79.292C25.999 79.825 26.426 80.243 26.947 80.243C27.14 80.243 27.326 80.185 27.486 80.077C27.692 79.937 27.951 79.9 28.188 79.979C28.424 80.057 28.611 80.241 28.692 80.477C28.83 80.876 29.199 81.144 29.611 81.144C29.804 81.144 29.99 81.086 30.15 80.978C30.356 80.838 30.615 80.801 30.852 80.88C31.089 80.958 31.275 81.142 31.356 81.378C31.494 81.777 31.863 82.045 32.275 82.045C32.744 82.045 33.147 81.703 33.233 81.231C33.303 80.85 33.635 80.575 34.02 80.575L34.014 80.58Z" fill="#F94D0D"/>
<path d="M74.7888 57.6719C74.7278 57.6719 74.6667 57.6629 74.6057 57.6429C74.2897 57.5419 74.1157 57.2039 74.2167 56.8889C74.3177 56.5719 74.3088 56.2449 74.1898 55.9679C74.0848 55.7209 73.9027 55.5459 73.6787 55.4739C73.4547 55.4029 73.2048 55.4399 72.9758 55.5799C72.7188 55.7369 72.5208 55.9979 72.4198 56.3149C72.3188 56.6309 71.9817 56.8049 71.6657 56.7039C71.3497 56.6029 71.1758 56.2649 71.2768 55.9499C71.4658 55.3589 71.8468 54.8639 72.3498 54.5559C72.8808 54.2309 73.4828 54.1509 74.0438 54.3309C74.6048 54.5099 75.0487 54.9239 75.2927 55.4969C75.5237 56.0389 75.5478 56.6639 75.3588 57.2549C75.2778 57.5099 75.0418 57.6719 74.7878 57.6719H74.7888Z" fill="#F94D0D"/>
<path d="M71.6891 56.6719C71.6281 56.6719 71.5671 56.6629 71.5061 56.6429C71.1901 56.5419 71.0161 56.2039 71.1171 55.8889C71.2181 55.5719 71.2091 55.2449 71.0901 54.9679C70.9851 54.7209 70.8031 54.5459 70.5791 54.4739C70.3551 54.4029 70.1051 54.4399 69.8761 54.5799C69.6191 54.7369 69.4211 54.9979 69.3201 55.3149C69.2191 55.6309 68.8811 55.8049 68.5661 55.7039C68.2501 55.6029 68.0761 55.2649 68.1771 54.9499C68.3661 54.3589 68.7471 53.8639 69.2501 53.5559C69.7811 53.2309 70.3831 53.1509 70.9441 53.3309C71.5051 53.5099 71.9491 53.9239 72.1931 54.4969C72.4241 55.0389 72.4481 55.6639 72.2591 56.2549C72.1781 56.5099 71.9421 56.6719 71.6881 56.6719H71.6891Z" fill="#F94D0D"/>
<path d="M47.1922 73.502C46.9532 73.502 46.7152 73.458 46.4862 73.37C45.9362 73.158 45.5172 72.719 45.3072 72.133C45.1072 71.578 45.1202 70.954 45.3432 70.374C45.4622 70.065 45.8092 69.911 46.1182 70.03C46.4272 70.149 46.5812 70.496 46.4622 70.806C46.3432 71.116 46.3332 71.444 46.4352 71.727C46.5262 71.98 46.6972 72.165 46.9162 72.25C47.1362 72.335 47.3872 72.312 47.6242 72.185C47.8902 72.043 48.1022 71.794 48.2222 71.483C48.3412 71.174 48.6882 71.02 48.9982 71.139C49.3072 71.258 49.4612 71.605 49.3422 71.915C49.1192 72.494 48.7102 72.966 48.1902 73.244C47.8692 73.415 47.5292 73.502 47.1922 73.502V73.502Z" fill="#F94D0D"/>
<path d="M59.9583 64.5798C59.2773 64.5798 58.5723 64.2628 58.0723 63.6618C57.8603 63.4068 57.8953 63.0288 58.1503 62.8168C58.4053 62.6048 58.7833 62.6398 58.9953 62.8948C59.4133 63.3968 60.0783 63.5358 60.4773 63.2028C60.8773 62.8708 60.8623 62.1918 60.4453 61.6888C60.2333 61.4338 60.2683 61.0558 60.5233 60.8438C60.7783 60.6318 61.1563 60.6668 61.3683 60.9218C62.2083 61.9328 62.1533 63.3698 61.2443 64.1258C60.8753 64.4318 60.4223 64.5798 59.9583 64.5798V64.5798Z" fill="#F94D0D"/>
<path d="M57.1884 64.5141C57.1494 64.5141 57.1104 64.5141 57.0714 64.5111C56.0124 64.4601 55.2164 63.7381 55.2584 62.8671C55.2744 62.5361 55.5544 62.2811 55.8864 62.2971C56.2174 62.3131 56.4724 62.5941 56.4564 62.9251C56.4494 63.0661 56.7144 63.2931 57.1284 63.3131C57.5424 63.3341 57.8274 63.1331 57.8344 62.9921C57.8504 62.6611 58.1304 62.4041 58.4624 62.4221C58.7934 62.4381 59.0484 62.7191 59.0324 63.0501C58.9924 63.8881 58.1914 64.5151 57.1874 64.5151L57.1884 64.5141Z" fill="#F94D0D"/>
<path d="M37.1497 33.6682C29.7497 38.1952 18.0497 45.6042 15.5497 62.3762C12.6557 81.7932 35.3497 76.2672 40.7497 68.8582C46.1497 61.4492 56.9507 49.5722 74.9497 49.4112C86.4497 49.3082 85.7497 42.0032 82.1497 37.3722C78.5497 32.7412 72.2497 29.0382 61.4497 28.1112C50.6497 27.1842 42.4987 30.3952 37.1497 33.6672V33.6682Z" fill="#FFA38B"/>
<path d="M24.7121 49.0419C25.1261 53.3249 26.8161 56.1559 29.7371 57.4539C32.0261 58.4709 35.8791 58.7479 39.9781 58.6449C43.8621 54.6889 47.7841 51.7519 51.6971 49.8779C52.1841 49.6449 52.6781 49.4209 53.1781 49.2059C50.0871 48.4739 46.9961 47.5269 45.0111 46.3729C41.4871 44.3229 39.6291 40.8089 39.6371 36.2119C39.6401 34.5989 39.8731 33.1289 40.1191 32.0249C39.0491 32.5579 38.0581 33.1119 37.1491 33.6679C33.5801 35.8509 29.0111 38.7049 24.9571 42.9559C24.8031 43.8529 24.4501 46.3339 24.7121 49.0419V49.0419Z" fill="#F94D0D"/>
<path d="M42.9341 30.8489C42.9251 30.8739 42.0311 33.3519 42.0381 36.2789C42.0471 39.9919 43.4541 42.6899 46.2181 44.2979C48.4441 45.5929 52.7831 46.7569 57.3591 47.6369C62.2901 46.0329 67.3981 45.1459 71.6311 44.6559C68.0121 42.2549 64.9131 39.6079 63.3671 37.5439C62.0251 35.7529 61.5301 33.7569 61.8961 31.6129C62.0821 30.5219 62.4891 29.4089 63.1131 28.2789C62.5711 28.2149 62.0171 28.1589 61.4501 28.1099C54.0171 27.4729 47.8391 28.7939 42.9651 30.7469C42.9561 30.7799 42.9461 30.8139 42.9341 30.8469V30.8489Z" fill="#F94D0D"/>
<path d="M42.9952 58.5079C46.0532 58.3119 49.0702 57.9589 51.5162 57.5929C54.9682 54.9489 59.0752 52.6039 63.8962 51.1089C62.0052 50.8669 60.0172 50.5639 58.1032 50.2209C57.6582 50.1409 57.1962 50.0549 56.7242 49.9639C55.3012 50.4689 53.9032 51.0379 52.5602 51.6809C50.1312 52.8439 46.8352 54.8979 42.9932 58.5079H42.9952Z" fill="#F94D0D"/>
<path d="M64.261 32.0218C64.008 33.5098 64.344 34.8458 65.288 36.1058C67.05 38.4578 71.173 41.7068 75.578 44.2838C79.621 43.9838 82.827 43.9868 84.448 44.0188C84.701 41.8298 83.692 39.3558 82.15 37.3728C79.049 33.3848 73.945 30.0838 65.687 28.6528C64.991 29.7188 64.458 30.8608 64.261 32.0228V32.0218Z" fill="#F94D0D"/>
<path d="M78.958 46.0921C80.135 46.6601 81.294 47.1521 82.396 47.5381C83 47.0871 83.458 46.5721 83.79 46.0111C82.644 45.9991 80.977 46.0081 78.958 46.0921Z" fill="#F94D0D"/>
<path d="M28.7731 73.1648C25.9521 72.9188 23.2811 72.2878 21.1631 71.3468C18.4981 70.1628 16.518 67.8958 15.319 64.6958C14.894 73.7428 20.927 76.2788 27.352 75.5668C27.631 75.0708 28.11 74.2398 28.774 73.1648H28.7731Z" fill="#F94D0D"/>
<path d="M35.6277 72.9731C34.2487 73.1811 32.8287 73.2811 31.4137 73.2811C31.2977 73.2811 31.1817 73.2781 31.0647 73.2771C30.6247 73.9701 30.2447 74.5901 29.9287 75.1161C31.9297 74.6421 33.8907 73.8951 35.6267 72.9731H35.6277Z" fill="#F94D0D"/>
<path d="M74.405 46.3848C74.313 46.3928 74.221 46.4008 74.129 46.4098C70.674 46.7228 66.332 47.3118 61.915 48.4138C65.591 48.9628 69.013 49.2928 71.18 49.3218C71.441 49.3248 71.681 49.4128 71.876 49.5578C72.877 49.4718 73.901 49.4208 74.95 49.4118C76.677 49.3968 78.126 49.2178 79.334 48.9108C77.448 48.0888 75.711 47.1478 74.405 46.3858V46.3848Z" fill="#F94D0D"/>
<path d="M41.2942 61.006C41.0142 61.018 40.7392 61.027 40.4672 61.036C38.9092 62.688 37.2822 64.589 35.6022 66.779C34.5012 68.214 33.5152 69.597 32.6572 70.857C35.5782 70.727 38.4412 70.122 40.6872 68.942C40.7082 68.914 40.7292 68.886 40.7492 68.859C42.5712 66.36 45.0082 63.352 48.1282 60.457C46.1182 60.687 43.7422 60.903 41.2942 61.007V61.006Z" fill="#F94D0D"/>
<path d="M37.7225 61.0637C33.7745 61.0127 30.7695 60.5377 28.7635 59.6467C25.0315 57.9877 22.8035 54.3797 22.3185 49.2117C22.2175 48.1297 22.2025 47.0907 22.2325 46.1567C19.7885 49.3897 17.7165 53.2957 16.4395 58.0747C16.6815 62.0107 17.8495 67.2477 22.1375 69.1537C24.3235 70.1257 27.2335 70.7307 30.2455 70.8587C31.2775 69.2947 32.5435 67.4807 34.0155 65.5617C35.2455 63.9587 36.4815 62.4597 37.7215 61.0637H37.7225Z" fill="#F94D0D"/>
</svg>
