<svg width="100" height="100" viewBox="0 0 100 100" fill="none" xmlns="http://www.w3.org/2000/svg">
<path d="M22.5812 83.0004L72.8982 69.9874L81.9041 51.4954C82.0491 51.1974 81.7822 50.8634 81.4602 50.9404L15.6602 66.5674L22.5812 83.0004Z" fill="white"/>
<path d="M81.5537 50.9292C81.8317 50.9292 82.0357 51.2262 81.9047 51.4952L72.8987 69.9872L22.5817 83.0002L15.6607 66.5672L81.4607 50.9392C81.4927 50.9312 81.5237 50.9282 81.5547 50.9282M81.5547 48.9282C81.3677 48.9282 81.1807 48.9502 80.9987 48.9932L15.1977 64.6212C14.6257 64.7572 14.1427 65.1382 13.8767 65.6622C13.6107 66.1862 13.5887 66.8012 13.8167 67.3432L20.7377 83.7762C21.0557 84.5322 21.7917 85.0002 22.5807 85.0002C22.7467 85.0002 22.9147 84.9792 23.0817 84.9362L73.3987 71.9232C73.9657 71.7762 74.4397 71.3892 74.6957 70.8622L83.7017 52.3702C84.0657 51.6232 84.0197 50.7582 83.5797 50.0542C83.1387 49.3492 82.3807 48.9282 81.5527 48.9282H81.5547Z" fill="#F94D0D"/>
<path d="M78.4826 58.3891L17.0811 73.9717L17.819 76.8795L79.2206 61.2969L78.4826 58.3891Z" fill="#FFA38B"/>
<path d="M81.5537 50.9292C81.8317 50.9292 82.0357 51.2262 81.9047 51.4952L72.8987 69.9872L22.5817 83.0002L15.6607 66.5672L81.4607 50.9392C81.4927 50.9312 81.5237 50.9282 81.5547 50.9282M81.5547 48.9282C81.3677 48.9282 81.1807 48.9502 80.9987 48.9932L15.1977 64.6212C14.6257 64.7572 14.1427 65.1382 13.8767 65.6622C13.6107 66.1862 13.5887 66.8012 13.8167 67.3432L20.7377 83.7762C21.0557 84.5322 21.7917 85.0002 22.5807 85.0002C22.7467 85.0002 22.9147 84.9792 23.0817 84.9362L73.3987 71.9232C73.9657 71.7762 74.4397 71.3892 74.6957 70.8622L83.7017 52.3702C84.0657 51.6232 84.0197 50.7582 83.5797 50.0542C83.1387 49.3492 82.3807 48.9282 81.5527 48.9282H81.5547Z" fill="#F94D0D"/>
<path d="M14.7973 65.8837L46.3793 26.6187L82.1553 49.0827C82.6633 49.4017 82.5353 50.1747 81.9523 50.3127L15.0053 66.2137C14.8143 66.2587 14.6743 66.0367 14.7973 65.8847V65.8837Z" fill="white"/>
<path d="M14.9572 67.2189C14.5502 67.2189 14.1622 67.0119 13.9372 66.6569C13.6622 66.2209 13.6942 65.6589 14.0172 65.2569L45.6002 25.9929C45.9182 25.5979 46.4812 25.5029 46.9112 25.7729L82.6872 48.2369C83.2612 48.5969 83.5602 49.2619 83.4492 49.9299C83.3392 50.5979 82.8412 51.1309 82.1832 51.2879L15.2362 67.1859C15.1432 67.2079 15.0502 67.2189 14.9572 67.2189V67.2189ZM46.6012 27.9389L17.0282 64.7049L80.9682 49.5189L46.6002 27.9389H46.6012Z" fill="#F94D10"/>
<path d="M53.6694 36.0275C58.856 35.232 62.5036 30.9556 61.8165 26.4759C61.1294 21.9963 56.3678 19.0097 51.1812 19.8052C45.9946 20.6007 42.347 24.8771 43.0341 29.3568C43.7212 33.8364 48.4828 36.823 53.6694 36.0275Z" fill="white"/>
<path d="M52.0064 37.1539C47.0204 37.1539 42.7334 33.9889 42.0464 29.5079C41.2764 24.4909 45.3074 19.6939 51.0304 18.8159C56.7544 17.9379 62.0364 21.3059 62.8064 26.3229C63.1834 28.7809 62.4384 31.2519 60.7074 33.2809C59.0134 35.2679 56.5674 36.5939 53.8224 37.0149C53.2104 37.1089 52.6034 37.1539 52.0074 37.1539H52.0064ZM52.8514 20.6769C52.3524 20.6769 51.8454 20.7149 51.3334 20.7929C46.7004 21.5039 43.4204 25.2769 44.0234 29.2049C44.5594 32.6979 47.9894 35.1549 52.0014 35.1549C52.5004 35.1549 53.0074 35.1169 53.5194 35.0389C55.7904 34.6909 57.8034 33.6059 59.1864 31.9839C60.5334 30.4049 61.1174 28.5019 60.8294 26.6269C60.2934 23.1339 56.8634 20.6769 52.8514 20.6769V20.6769Z" fill="#F94D10"/>
<path d="M73.9101 32.5206C74.5971 36.9996 70.9501 42.2366 65.7631 43.0316C60.5761 43.8276 55.8141 39.8816 55.1271 35.4016C54.4401 30.9226 58.0871 26.6456 63.2741 25.8496C68.4611 25.0536 73.2231 28.0406 73.9101 32.5196V32.5206Z" fill="white"/>
<path d="M64.4057 44.1358C62.1977 44.1358 60.0227 43.3978 58.1557 41.9948C55.9787 40.3588 54.5147 38.0108 54.1377 35.5538C53.7607 33.0958 54.5057 30.6248 56.2367 28.5958C57.9307 26.6088 60.3766 25.2828 63.1217 24.8618C68.8457 23.9838 74.1277 27.3518 74.8977 32.3688C75.2727 34.8158 74.5227 37.5088 72.8387 39.7568C71.1177 42.0548 68.5927 43.6088 65.9137 44.0198C65.4117 44.0968 64.9077 44.1348 64.4057 44.1348V44.1358ZM64.9427 26.7228C64.4437 26.7228 63.9367 26.7608 63.4247 26.8388C61.1537 27.1868 59.1407 28.2718 57.7577 29.8938C56.4107 31.4738 55.8267 33.3758 56.1147 35.2508C56.4127 37.1958 57.5947 39.0708 59.3577 40.3958C61.2147 41.7918 63.4357 42.3768 65.6107 42.0438C67.7767 41.7118 69.8287 40.4408 71.2387 38.5588C72.6027 36.7378 73.2156 34.5928 72.9216 32.6728C72.3856 29.1798 68.9557 26.7228 64.9437 26.7228H64.9427Z" fill="#F94D10"/>
<path d="M47.3812 39.6823C47.7742 45.9033 42.8192 48.0483 37.5452 48.3813C32.2712 48.7143 27.0852 47.2103 26.6922 40.9893C26.2992 34.7683 30.7462 24.5773 36.0202 24.2443C41.2942 23.9113 46.9882 33.4613 47.3812 39.6823V39.6823Z" fill="#F94D10"/>
<path d="M36.1863 49.4251C33.6333 49.4251 31.4913 48.9531 29.8033 48.0171C27.2803 46.6181 25.8973 44.2741 25.6943 41.0521C25.4883 37.8001 26.5033 33.5471 28.3403 29.9531C29.5693 27.5501 32.1923 23.4831 35.9563 23.2461C37.4513 23.1511 39.0003 23.6861 40.5583 24.8361C41.8713 25.8051 43.1843 27.2241 44.3563 28.9411C46.6323 32.2751 48.1733 36.3661 48.3793 39.6181C48.5833 42.8401 47.5063 45.3391 45.1793 47.0451C43.3423 48.3921 40.7953 49.1771 37.6083 49.3781C37.1213 49.4091 36.6473 49.4241 36.1863 49.4241V49.4251ZM36.2813 25.2361C36.2143 25.2361 36.1483 25.2381 36.0833 25.2421C34.0863 25.3681 31.8573 27.4701 30.1213 30.8641C28.4633 34.1071 27.5093 38.0561 27.6903 40.9261C27.8503 43.4591 28.8593 45.2061 30.7733 46.2681C32.4023 47.1721 34.7223 47.5571 37.4823 47.3831C40.2423 47.2091 42.4943 46.5341 43.9973 45.4331C45.7633 44.1381 46.5433 42.2781 46.3833 39.7451C46.2023 36.8751 44.7583 33.0771 42.7053 30.0691C40.6273 27.0241 38.2433 25.2361 36.2823 25.2361H36.2813Z" fill="#FFA38B"/>
<path d="M56.7441 42.1671C56.7441 48.8461 51.2401 50.8051 45.5151 50.8051C39.7901 50.8051 34.2861 48.8461 34.2861 42.1671C34.2861 35.4881 39.7901 24.8921 45.5151 24.8921C51.2401 24.8921 56.7441 35.4891 56.7441 42.1671Z" fill="#F94D10"/>
<path d="M45.5151 51.8051C42.0741 51.8051 39.2831 51.1421 37.2191 49.8361C34.6091 48.1831 33.2861 45.6041 33.2861 42.1681C33.2861 38.7321 34.6691 34.2211 36.8961 30.5111C38.0421 28.6031 39.3591 27.0031 40.7061 25.8841C42.2961 24.5631 43.9141 23.8931 45.5151 23.8931C47.1161 23.8931 48.7341 24.5631 50.3241 25.8841C51.6711 27.0031 52.9881 28.6031 54.1341 30.5111C56.3611 34.2201 57.7441 38.6871 57.7441 42.1681C57.7441 45.6491 56.4211 48.1841 53.8111 49.8361C51.7471 51.1431 48.9561 51.8051 45.5151 51.8051V51.8051ZM45.5151 25.8921C43.3151 25.8921 40.7341 28.0031 38.6111 31.5401C36.5911 34.9041 35.2861 39.0761 35.2861 42.1671C35.2861 44.9101 36.2681 46.8661 38.2891 48.1451C40.0031 49.2301 42.5021 49.8041 45.5151 49.8041C48.5281 49.8041 51.0271 49.2301 52.7411 48.1451C54.7621 46.8651 55.7441 44.9101 55.7441 42.1671C55.7441 39.0761 54.4391 34.9041 52.4191 31.5401C50.2961 28.0031 47.7151 25.8921 45.5151 25.8921V25.8921Z" fill="#FFA38B"/>
<path d="M40.6435 46.4911C41.2745 52.9051 36.3145 55.2921 30.9635 55.8191C25.6125 56.3461 20.2825 54.9711 19.6515 48.5571C19.0205 42.1431 23.1645 31.4611 28.5155 30.9351C33.8665 30.4091 40.0125 40.0781 40.6445 46.4921L40.6435 46.4911Z" fill="#F94D10"/>
<path d="M28.9404 56.922C26.6374 56.922 24.6724 56.506 23.0764 55.677C20.4684 54.323 18.9814 51.961 18.6554 48.654C18.3264 45.309 19.1984 40.89 20.9304 37.12C22.0884 34.599 24.6014 30.314 28.4164 29.939C32.2304 29.564 35.5304 33.277 37.1584 35.523C39.5924 38.883 41.3094 43.048 41.6384 46.393C41.9634 49.7 40.9654 52.307 38.6714 54.143C36.8544 55.597 34.2944 56.496 31.0614 56.814C30.3264 56.886 29.6184 56.922 28.9414 56.922H28.9404ZM28.9254 31.914C28.8194 31.914 28.7154 31.919 28.6124 31.929C26.5824 32.129 24.3904 34.381 22.7484 37.955C21.1794 41.369 20.3544 45.492 20.6464 48.458C20.9044 51.085 22.0014 52.866 23.9984 53.902C25.6904 54.78 28.0654 55.098 30.8664 54.823C33.6674 54.547 35.9344 53.772 37.4224 52.581C39.1784 51.175 39.9074 49.215 39.6484 46.588C39.3564 43.621 37.7434 39.738 35.5394 36.696C33.3494 33.673 30.9054 31.913 28.9264 31.913L28.9254 31.914Z" fill="#FFA38B"/>
<path d="M86.343 45.1368C86.095 49.9178 81.715 52.2488 76.475 51.9778C71.235 51.7068 67.132 48.6798 67.366 44.1548C67.6 39.6298 72.083 35.3178 77.324 35.5888C82.564 35.8598 86.578 40.6118 86.344 45.1378L86.343 45.1368Z" fill="white"/>
<path d="M77.3042 52.9988C77.0142 52.9988 76.7212 52.9908 76.4232 52.9758C73.6052 52.8298 71.0512 51.9268 69.2322 50.4338C67.2572 48.8118 66.2392 46.5628 66.3672 44.1018C66.4952 41.6278 67.7472 39.1578 69.8022 37.3248C71.9402 35.4178 74.6302 34.4468 77.3752 34.5888C80.1212 34.7308 82.6952 35.9758 84.6252 38.0928C86.4792 40.1278 87.4692 42.7138 87.3412 45.1878C87.0952 49.9338 83.1032 52.9988 77.3042 52.9988V52.9988ZM76.8422 36.5748C72.1872 36.5748 68.5552 40.5128 68.3632 44.2048C68.2682 46.0418 69.0072 47.6608 70.5012 48.8878C71.9922 50.1118 74.1312 50.8548 76.5262 50.9788C80.4402 51.1798 85.1022 49.7598 85.3442 45.0848C85.4452 43.1398 84.6442 41.0828 83.1472 39.4408C81.5742 37.7148 79.4882 36.7018 77.2712 36.5868C77.1282 36.5798 76.9842 36.5758 76.8422 36.5758V36.5748Z" fill="#F94D10"/>
<path d="M40.5709 34.4598C40.5009 34.4598 40.4299 34.4528 40.3589 34.4368C39.8189 34.3208 39.4759 33.7888 39.5919 33.2488C40.4189 29.4128 43.6549 27.4648 43.7929 27.3838C44.2689 27.1028 44.8819 27.2608 45.1619 27.7368C45.4419 28.2118 45.2849 28.8228 44.8119 29.1048C44.7789 29.1248 42.1849 30.7128 41.5469 33.6708C41.4459 34.1398 41.0309 34.4608 40.5699 34.4608L40.5709 34.4598Z" fill="#FFA38B"/>
<path d="M33.4546 39.738C32.9936 39.738 32.5786 39.417 32.4776 38.948C32.0146 36.797 29.6116 35.686 29.5876 35.675C29.0816 35.453 28.8526 34.862 29.0756 34.357C29.2986 33.852 29.8886 33.622 30.3936 33.845C30.5306 33.905 33.7496 35.355 34.4326 38.527C34.5486 39.067 34.2056 39.599 33.6656 39.715C33.5946 39.73 33.5236 39.738 33.4536 39.738H33.4546Z" fill="#FFA38B"/>
<path d="M67.0584 49.5948C66.6534 55.8738 61.2774 57.3758 55.8114 57.0228C50.3454 56.6698 45.2074 54.4888 45.6134 48.2098C46.0184 41.9308 51.9184 32.3088 57.3844 32.6618C62.8504 33.0148 67.4634 43.3158 67.0584 49.5948V49.5948Z" fill="#F94D10"/>
<path d="M57.283 58.071C56.786 58.071 56.274 58.054 55.747 58.02C52.455 57.807 49.824 57.01 47.928 55.65C45.52 53.924 44.405 51.398 44.616 48.144C44.828 44.859 46.425 40.732 48.783 37.373C49.996 35.645 51.356 34.217 52.715 33.245C54.321 32.096 55.913 31.564 57.45 31.663C58.986 31.762 60.498 32.495 61.942 33.841C63.164 34.98 64.329 36.571 65.31 38.441C67.217 42.076 68.269 46.374 68.057 49.659C67.847 52.913 66.417 55.274 63.807 56.676C62.081 57.604 59.891 58.071 57.284 58.071H57.283ZM57.101 33.652C55.053 33.652 52.575 35.453 50.42 38.523C48.293 41.552 46.799 45.379 46.612 48.274C46.447 50.828 47.259 52.71 49.094 54.025C50.66 55.147 53.005 55.839 55.877 56.024C58.749 56.209 61.164 55.826 62.861 54.914C64.85 53.846 65.897 52.084 66.062 49.53L67.06 49.594L66.062 49.53C66.249 46.636 65.259 42.648 63.539 39.37C61.734 35.929 59.41 33.794 57.321 33.659C57.249 33.654 57.175 33.652 57.102 33.652H57.101Z" fill="#FFA38B"/>
<path d="M62.864 45.9141C62.379 45.9141 61.953 45.5601 61.877 45.0661C61.079 39.8621 57.473 36.7761 57.437 36.7451C57.015 36.3901 56.959 35.7601 57.313 35.3371C57.667 34.9141 58.295 34.8571 58.719 35.2101C58.891 35.3531 62.937 38.7861 63.854 44.7621C63.938 45.3081 63.563 45.8181 63.017 45.9021C62.966 45.9101 62.915 45.9141 62.864 45.9141Z" fill="#FFA38B"/>
<path d="M49.3347 53.1582C49.9777 59.8062 44.6877 62.2862 38.9897 62.8372C33.2917 63.3882 27.6247 61.9692 26.9807 55.3212C26.3377 48.6732 30.7957 37.5962 36.4937 37.0452C42.1917 36.4942 48.6907 46.5112 49.3347 53.1582V53.1582Z" fill="#F94D10"/>
<path d="M36.8175 63.9472C34.3895 63.9472 32.3175 63.5202 30.6395 62.6722C27.8825 61.2792 26.3175 58.8382 25.9865 55.4182C25.6515 51.9532 26.5975 47.3742 28.4575 43.4682C29.4135 41.4592 30.5715 39.7392 31.8035 38.4952C33.2585 37.0272 34.8045 36.2042 36.3975 36.0502C37.9915 35.8962 39.6655 36.4072 41.3755 37.5692C42.8235 38.5532 44.2895 40.0192 45.6135 41.8082C48.1875 45.2862 49.9945 49.5982 50.3295 53.0632C50.6605 56.4832 49.5915 59.1782 47.1535 61.0742C45.2255 62.5742 42.5105 63.5022 39.0855 63.8332C38.2985 63.9092 37.5415 63.9472 36.8165 63.9472H36.8175ZM36.9345 38.0242C36.8185 38.0242 36.7035 38.0292 36.5905 38.0402C34.4005 38.2522 32.0355 40.6022 30.2625 44.3272C28.5765 47.8702 27.6785 52.1482 27.9765 55.2252C28.2405 57.9552 29.4065 59.8072 31.5415 60.8862C33.3525 61.8012 35.8945 62.1312 38.8935 61.8412C41.8925 61.5512 44.3245 60.7392 45.9265 59.4932C47.8145 58.0252 48.6035 55.9832 48.3395 53.2532C48.0415 50.1762 46.3405 46.1502 44.0065 42.9952C41.6795 39.8512 39.0665 38.0222 36.9345 38.0222V38.0242Z" fill="#FFA38B"/>
<path d="M31.4922 48.3149C31.4432 48.3149 31.3942 48.3109 31.3442 48.3039C30.7982 48.2229 30.4202 47.7149 30.5012 47.1679C31.1822 42.5729 34.2912 39.9159 34.4232 39.8049C34.8462 39.4499 35.4772 39.5049 35.8322 39.9279C36.1872 40.3499 36.1322 40.9799 35.7112 41.3349C35.6632 41.3759 33.0432 43.6559 32.4792 47.4609C32.4052 47.9579 31.9792 48.3149 31.4912 48.3149H31.4922Z" fill="#FFA38B"/>
</svg>
