<svg width="24" height="24" viewBox="0 0 24 24" fill="none" xmlns="http://www.w3.org/2000/svg">
<path d="M10.4999 16.9999C10.3683 17.0007 10.2379 16.9755 10.116 16.9257C9.9942 16.8759 9.88338 16.8026 9.78994 16.7099C9.69621 16.617 9.62182 16.5064 9.57105 16.3845C9.52028 16.2626 9.49414 16.1319 9.49414 15.9999C9.49414 15.8679 9.52028 15.7372 9.57105 15.6154C9.62182 15.4935 9.69621 15.3829 9.78994 15.2899L13.0999 11.9999L9.91994 8.68993C9.73369 8.50257 9.62915 8.24911 9.62915 7.98493C9.62915 7.72074 9.73369 7.46729 9.91994 7.27993C10.0129 7.1862 10.1235 7.11181 10.2454 7.06104C10.3672 7.01027 10.4979 6.98413 10.6299 6.98413C10.762 6.98413 10.8927 7.01027 11.0145 7.06104C11.1364 7.11181 11.247 7.1862 11.3399 7.27993L15.1999 11.2799C15.3832 11.4669 15.4858 11.7182 15.4858 11.9799C15.4858 12.2417 15.3832 12.493 15.1999 12.6799L11.1999 16.6799C11.1102 16.7769 11.0021 16.855 10.882 16.91C10.7618 16.9649 10.632 16.9955 10.4999 16.9999V16.9999Z" fill="#FDF6E5"/>
</svg>
